<svg xmlns="http://www.w3.org/2000/svg" xmlns:xlink="http://www.w3.org/1999/xlink" xmlns:s="https://github.com/nturley/netlistsvg" width="1330.5" height="599"><rect width="100%" height="100%" fill="white"/><style>svg {
  stroke:#000;
  fill:none;
}
text {
  fill:#000;
  stroke:none;
  font-size:10px;
  font-weight: bold;
  font-family: "Courier New", monospace;
}
line {
    stroke-linecap: round;
}
.nodelabel {
  text-anchor: middle;
}
.inputPortLabel {
  text-anchor: end;
}
.splitjoinBody {
  fill:#000;
}</style><g s:type="ge" transform="translate(293,384.5)" s:width="25" s:height="25" id="cell_\37"><s:alias val="$ge"/><circle r="12" cx="12" cy="12" class="cell_\37"/><line x1="8" x2="19" y1="6" y2="11" class="cell_\37"/><line x1="8" x2="19" y1="16" y2="11" class="cell_\37"/><line x1="8" x2="19" y1="19" y2="14" class="cell_\37"/><g s:x="2" s:y="5" s:pid="A"/><g s:x="2" s:y="20" s:pid="B"/><g s:x="25" s:y="12.5" s:pid="Y"/></g><g s:type="add" transform="translate(232,262.5)" s:width="25" s:height="25" id="cell_\40"><s:alias val="$add"/><circle r="12.5" cx="12.5" cy="12.5" class="cell_\40"/><line x1="7.5" x2="17.5" y1="12.5" y2="12.5" class="cell_\40"/><line x1="12.5" x2="12.5" y1="7.5" y2="17.5" class="cell_\40"/><g s:x="2" s:y="5" s:pid="A"/><g s:x="2" s:y="20" s:pid="B"/><g s:x="26" s:y="12.5" s:pid="Y"/></g><g s:type="mux-bus" transform="translate(354,245)" s:width="24" s:height="40" id="cell_\42"><s:alias val="$pmux-bus"/><s:alias val="$mux-bus"/><s:alias val="$_MUX_-bus"/><path d="M0,0 L20,10 L20,30 L0,40 Z" class="cell_\42"/><path d="M4,2 L4,0 L22,9 L22,31 L4,40 L4,38" class="cell_\42"/><path d="M8,2 L8,0 L24,8 L24,32 L8,40 L8,38" class="cell_\42"/><text x="5" y="32" class="nodelabel cell_\42" s:attribute="">1</text><text x="5" y="13" class="nodelabel cell_\42" s:attribute="">0</text><g s:x="-1" s:y="10" s:pid="A"/><g s:x="-1" s:y="30" s:pid="B"/><g s:x="12" s:y="38" s:pid="S"/><g s:x="24.5" s:y="20" s:pid="Y"/></g><g s:type="ge" transform="translate(600.5,357.5)" s:width="25" s:height="25" id="cell_\59"><s:alias val="$ge"/><circle r="12" cx="12" cy="12" class="cell_\59"/><line x1="8" x2="19" y1="6" y2="11" class="cell_\59"/><line x1="8" x2="19" y1="16" y2="11" class="cell_\59"/><line x1="8" x2="19" y1="19" y2="14" class="cell_\59"/><g s:x="2" s:y="5" s:pid="A"/><g s:x="2" s:y="20" s:pid="B"/><g s:x="25" s:y="12.5" s:pid="Y"/></g><g s:type="add" transform="translate(539.5,304)" s:width="25" s:height="25" id="cell_\62"><s:alias val="$add"/><circle r="12.5" cx="12.5" cy="12.5" class="cell_\62"/><line x1="7.5" x2="17.5" y1="12.5" y2="12.5" class="cell_\62"/><line x1="12.5" x2="12.5" y1="7.5" y2="17.5" class="cell_\62"/><g s:x="2" s:y="5" s:pid="A"/><g s:x="2" s:y="20" s:pid="B"/><g s:x="26" s:y="12.5" s:pid="Y"/></g><g s:type="mux-bus" transform="translate(661.5,286.5)" s:width="24" s:height="40" id="cell_\64"><s:alias val="$pmux-bus"/><s:alias val="$mux-bus"/><s:alias val="$_MUX_-bus"/><path d="M0,0 L20,10 L20,30 L0,40 Z" class="cell_\64"/><path d="M4,2 L4,0 L22,9 L22,31 L4,40 L4,38" class="cell_\64"/><path d="M8,2 L8,0 L24,8 L24,32 L8,40 L8,38" class="cell_\64"/><text x="5" y="32" class="nodelabel cell_\64" s:attribute="">1</text><text x="5" y="13" class="nodelabel cell_\64" s:attribute="">0</text><g s:x="-1" s:y="10" s:pid="A"/><g s:x="-1" s:y="30" s:pid="B"/><g s:x="12" s:y="38" s:pid="S"/><g s:x="24.5" s:y="20" s:pid="Y"/></g><g s:type="ge" transform="translate(1042,401.5)" s:width="25" s:height="25" id="cell_\81"><s:alias val="$ge"/><circle r="12" cx="12" cy="12" class="cell_\81"/><line x1="8" x2="19" y1="6" y2="11" class="cell_\81"/><line x1="8" x2="19" y1="16" y2="11" class="cell_\81"/><line x1="8" x2="19" y1="19" y2="14" class="cell_\81"/><g s:x="2" s:y="5" s:pid="A"/><g s:x="2" s:y="20" s:pid="B"/><g s:x="25" s:y="12.5" s:pid="Y"/></g><g s:type="add" transform="translate(981,68)" s:width="25" s:height="25" id="cell_\84"><s:alias val="$add"/><circle r="12.5" cx="12.5" cy="12.5" class="cell_\84"/><line x1="7.5" x2="17.5" y1="12.5" y2="12.5" class="cell_\84"/><line x1="12.5" x2="12.5" y1="7.5" y2="17.5" class="cell_\84"/><g s:x="2" s:y="5" s:pid="A"/><g s:x="2" s:y="20" s:pid="B"/><g s:x="26" s:y="12.5" s:pid="Y"/></g><g s:type="mux-bus" transform="translate(1103,50.5)" s:width="24" s:height="40" id="cell_\86"><s:alias val="$pmux-bus"/><s:alias val="$mux-bus"/><s:alias val="$_MUX_-bus"/><path d="M0,0 L20,10 L20,30 L0,40 Z" class="cell_\86"/><path d="M4,2 L4,0 L22,9 L22,31 L4,40 L4,38" class="cell_\86"/><path d="M8,2 L8,0 L24,8 L24,32 L8,40 L8,38" class="cell_\86"/><text x="5" y="32" class="nodelabel cell_\86" s:attribute="">1</text><text x="5" y="13" class="nodelabel cell_\86" s:attribute="">0</text><g s:x="-1" s:y="10" s:pid="A"/><g s:x="-1" s:y="30" s:pid="B"/><g s:x="12" s:y="38" s:pid="S"/><g s:x="24.5" s:y="20" s:pid="Y"/></g><g s:type="ge" transform="translate(1042,561)" s:width="25" s:height="25" id="cell_\91"><s:alias val="$ge"/><circle r="12" cx="12" cy="12" class="cell_\91"/><line x1="8" x2="19" y1="6" y2="11" class="cell_\91"/><line x1="8" x2="19" y1="16" y2="11" class="cell_\91"/><line x1="8" x2="19" y1="19" y2="14" class="cell_\91"/><g s:x="2" s:y="5" s:pid="A"/><g s:x="2" s:y="20" s:pid="B"/><g s:x="25" s:y="12.5" s:pid="Y"/></g><g s:type="add" transform="translate(981,486)" s:width="25" s:height="25" id="cell_\95"><s:alias val="$add"/><circle r="12.5" cx="12.5" cy="12.5" class="cell_\95"/><line x1="7.5" x2="17.5" y1="12.5" y2="12.5" class="cell_\95"/><line x1="12.5" x2="12.5" y1="7.5" y2="17.5" class="cell_\95"/><g s:x="2" s:y="5" s:pid="A"/><g s:x="2" s:y="20" s:pid="B"/><g s:x="26" s:y="12.5" s:pid="Y"/></g><g s:type="mux-bus" transform="translate(1103,468.5)" s:width="24" s:height="40" id="cell_\96"><s:alias val="$pmux-bus"/><s:alias val="$mux-bus"/><s:alias val="$_MUX_-bus"/><path d="M0,0 L20,10 L20,30 L0,40 Z" class="cell_\96"/><path d="M4,2 L4,0 L22,9 L22,31 L4,40 L4,38" class="cell_\96"/><path d="M8,2 L8,0 L24,8 L24,32 L8,40 L8,38" class="cell_\96"/><text x="5" y="32" class="nodelabel cell_\96" s:attribute="">1</text><text x="5" y="13" class="nodelabel cell_\96" s:attribute="">0</text><g s:x="-1" s:y="10" s:pid="A"/><g s:x="-1" s:y="30" s:pid="B"/><g s:x="12" s:y="38" s:pid="S"/><g s:x="24.5" s:y="20" s:pid="Y"/></g><g s:type="inputExt" transform="translate(12,109.5)" s:width="30" s:height="20" id="cell_i_binary"><text x="15" y="-4" class="nodelabel cell_i_binary" s:attribute="ref">i_binary</text><s:alias val="$_inputExt_"/><path d="M0,0 L0,20 L15,20 L30,10 L15,0 Z" class="cell_i_binary"/><g s:x="30" s:y="10" s:pid="Y"/></g><g s:type="outputExt" transform="translate(1288.5,448.5)" s:width="30" s:height="20" id="cell_o_bcd"><text x="15" y="-4" class="nodelabel cell_o_bcd" s:attribute="ref">o_bcd</text><s:alias val="$_outputExt_"/><path d="M30,0 L30,20 L15,20 L0,10 L15,0 Z" class="cell_o_bcd"/><g s:x="0" s:y="10" s:pid="A"/></g><g s:type="constant" transform="translate(161,411.5)" s:width="30" s:height="20" id="cell_101"><text x="15" y="-4" class="nodelabel cell_101" s:attribute="ref">101</text><s:alias val="$_constant_"/><rect width="30" height="20" class="cell_101"/><g s:x="31" s:y="10" s:pid="Y"/></g><g s:type="constant" transform="translate(95,314)" s:width="30" s:height="20" id="cell_11"><text x="15" y="-4" class="nodelabel cell_11" s:attribute="ref">11</text><s:alias val="$_constant_"/><rect width="30" height="20" class="cell_11"/><g s:x="31" s:y="10" s:pid="Y"/></g><g s:type="constant" transform="translate(95,475.5)" s:width="30" s:height="20" id="cell_00"><text x="15" y="-4" class="nodelabel cell_00" s:attribute="ref">00</text><s:alias val="$_constant_"/><rect width="30" height="20" class="cell_00"/><g s:x="31" s:y="10" s:pid="Y"/></g><g s:type="constant" transform="translate(819,550)" s:width="30" s:height="20" id="cell_000"><text x="15" y="-4" class="nodelabel cell_000" s:attribute="ref">000</text><s:alias val="$_constant_"/><rect width="30" height="20" class="cell_000"/><g s:x="31" s:y="10" s:pid="Y"/></g><g s:type="join" transform="translate(241.66666666666666,187.5)" s:width="4" s:height="40" id="cell_$join$,5,43,44,"><rect width="5" height="40" class="splitjoinBody" s:generic="body"/><s:alias val="$_join_"/><g s:x="5" s:y="20" s:pid="out"/><g transform="translate(0,10)" s:x="0" s:y="10" s:pid="in0"><text x="-3" y="-4" class="inputPortLabel">0</text></g><g transform="translate(0,30)" s:x="0" s:y="10" s:pid="in0"><text x="-3" y="-4" class="inputPortLabel">1:2</text></g></g><g s:type="join" transform="translate(459.5,234.5)" s:width="4" s:height="40" id="cell_$join$,4,17,18,19,"><rect width="5" height="40" class="splitjoinBody" s:generic="body"/><s:alias val="$_join_"/><g s:x="5" s:y="20" s:pid="out"/><g transform="translate(0,10)" s:x="0" s:y="10" s:pid="in0"><text x="-3" y="-4" class="inputPortLabel">0</text></g><g transform="translate(0,30)" s:x="0" s:y="10" s:pid="in0"><text x="-3" y="-4" class="inputPortLabel">1:3</text></g></g><g s:type="join" transform="translate(892,37)" s:width="4" s:height="40" id="cell_$join$,3,25,26,27,"><rect width="5" height="40" class="splitjoinBody" s:generic="body"/><s:alias val="$_join_"/><g s:x="5" s:y="20" s:pid="out"/><g transform="translate(0,10)" s:x="0" s:y="10" s:pid="in0"><text x="-3" y="-4" class="inputPortLabel">0</text></g><g transform="translate(0,30)" s:x="0" s:y="10" s:pid="in0"><text x="-3" y="-4" class="inputPortLabel">1:3</text></g></g><g s:type="join" transform="translate(940,529.5)" s:width="4" s:height="40" id="cell_$join$,28,55,56,57,"><rect width="5" height="40" class="splitjoinBody" s:generic="body"/><s:alias val="$_join_"/><g s:x="5" s:y="20" s:pid="out"/><g transform="translate(0,10)" s:x="0" s:y="10" s:pid="in0"><text x="-3" y="-4" class="inputPortLabel">0</text></g><g transform="translate(0,30)" s:x="0" s:y="10" s:pid="in0"><text x="-3" y="-4" class="inputPortLabel">1:3</text></g></g><g s:type="join" transform="translate(892,455)" s:width="4" s:height="40" id="cell_$join$,28,43,44,"><rect width="5" height="40" class="splitjoinBody" s:generic="body"/><s:alias val="$_join_"/><g s:x="5" s:y="20" s:pid="out"/><g transform="translate(0,10)" s:x="0" s:y="10" s:pid="in0"><text x="-3" y="-4" class="inputPortLabel">0</text></g><g transform="translate(0,30)" s:x="0" s:y="10" s:pid="in0"><text x="-3" y="-4" class="inputPortLabel">1:2</text></g></g><g s:type="join" transform="translate(1208.5,438)" s:width="4" s:height="40" id="cell_$join$,2,6,7,8,9,10,11,12,"><rect width="5" height="60" class="splitjoinBody" s:generic="body"/><s:alias val="$_join_"/><g s:x="5" s:y="20" s:pid="out"/><g transform="translate(0,10)" s:x="0" s:y="10" s:pid="in0"><text x="-3" y="-4" class="inputPortLabel">0</text></g><g transform="translate(0,30)" s:x="0" s:y="10" s:pid="in0"><text x="-3" y="-4" class="inputPortLabel">1:4</text></g><g transform="translate(0,50)" s:x="0" s:y="10" s:pid="in0"><text x="-3" y="-4" class="inputPortLabel">5:7</text></g></g><g s:type="split" transform="translate(177.6,99)" s:width="5" s:height="40" id="cell_$split$,2,3,4,5,"><rect width="5" height="80" class="splitjoinBody" s:generic="body"/><s:alias val="$_split_"/><g s:x="0" s:y="20" s:pid="in"/><g transform="translate(4,10)" s:x="4" s:y="10" s:pid="out0"><text x="5" y="-4">3</text></g><g transform="translate(4,30)" s:x="4" s:y="10" s:pid="out0"><text x="5" y="-4">2</text></g><g transform="translate(4,50)" s:x="4" s:y="10" s:pid="out0"><text x="5" y="-4">1</text></g><g transform="translate(4,70)" s:x="4" s:y="10" s:pid="out0"><text x="5" y="-4">0</text></g></g><g s:type="split" transform="translate(760,434.5)" s:width="5" s:height="40" id="cell_$split$,25,26,27,28,"><rect width="5" height="40" class="splitjoinBody" s:generic="body"/><s:alias val="$_split_"/><g s:x="0" s:y="20" s:pid="in"/><g transform="translate(4,10)" s:x="4" s:y="10" s:pid="out0"><text x="5" y="-4">0:2</text></g><g transform="translate(4,30)" s:x="4" s:y="10" s:pid="out0"><text x="5" y="-4">3</text></g></g><line x1="182.6" x2="222" y1="109.5" y2="109.5" class="net_5 width_1" style="stroke-width: 1"/><line x1="222" x2="222" y1="109.5" y2="389.5" class="net_5 width_1" style="stroke-width: 1"/><line x1="222" x2="295" y1="389.5" y2="389.5" class="net_5 width_1" style="stroke-width: 1"/><line x1="182.6" x2="222" y1="109.5" y2="109.5" class="net_5 width_1" style="stroke-width: 1"/><line x1="222" x2="222" y1="109.5" y2="267.5" class="net_5 width_1" style="stroke-width: 1"/><circle cx="222" cy="267.5" r="2" style="fill:#000" class="net_5 width_1"/><line x1="222" x2="234" y1="267.5" y2="267.5" class="net_5 width_1" style="stroke-width: 1"/><line x1="182.6" x2="222" y1="109.5" y2="109.5" class="net_5 width_1" style="stroke-width: 1"/><line x1="222" x2="222" y1="109.5" y2="198" class="net_5 width_1" style="stroke-width: 1"/><circle cx="222" cy="198" r="2" style="fill:#000" class="net_5 width_1"/><line x1="222" x2="241.66666666666666" y1="198" y2="198" class="net_5 width_1" style="stroke-width: 1"/><line x1="192" x2="202" y1="421.5" y2="421.5" class="net_38,39,40 width_3" style="stroke-width: 2"/><line x1="202" x2="202" y1="421.5" y2="404.5" class="net_38,39,40 width_3" style="stroke-width: 2"/><circle cx="202" cy="421.5" r="3" style="fill:#000" class="net_38,39,40 width_3"/><line x1="202" x2="295" y1="404.5" y2="404.5" class="net_38,39,40 width_3" style="stroke-width: 2"/><line x1="192" x2="388.5" y1="421.5" y2="421.5" class="net_38,39,40 width_3" style="stroke-width: 2"/><line x1="388.5" x2="388.5" y1="421.5" y2="377.5" class="net_38,39,40 width_3" style="stroke-width: 2"/><circle cx="388.5" cy="421.5" r="3" style="fill:#000" class="net_38,39,40 width_3"/><line x1="388.5" x2="602.5" y1="377.5" y2="377.5" class="net_38,39,40 width_3" style="stroke-width: 2"/><line x1="192" x2="1044" y1="421.5" y2="421.5" class="net_38,39,40 width_3" style="stroke-width: 2"/><line x1="192" x2="202" y1="421.5" y2="421.5" class="net_38,39,40 width_3" style="stroke-width: 2"/><line x1="202" x2="202" y1="421.5" y2="581" class="net_38,39,40 width_3" style="stroke-width: 2"/><line x1="202" x2="1044" y1="581" y2="581" class="net_38,39,40 width_3" style="stroke-width: 2"/><line x1="126" x2="146" y1="324" y2="324" class="net_41,42 width_2" style="stroke-width: 2"/><line x1="146" x2="146" y1="324" y2="282.5" class="net_41,42 width_2" style="stroke-width: 2"/><circle cx="146" cy="324" r="3" style="fill:#000" class="net_41,42 width_2"/><circle cx="146" cy="282.5" r="3" style="fill:#000" class="net_41,42 width_2"/><line x1="146" x2="234" y1="282.5" y2="282.5" class="net_41,42 width_2" style="stroke-width: 2"/><line x1="126" x2="541.5" y1="324" y2="324" class="net_41,42 width_2" style="stroke-width: 2"/><line x1="126" x2="146" y1="324" y2="324" class="net_41,42 width_2" style="stroke-width: 2"/><line x1="146" x2="146" y1="324" y2="88" class="net_41,42 width_2" style="stroke-width: 2"/><line x1="146" x2="983" y1="88" y2="88" class="net_41,42 width_2" style="stroke-width: 2"/><line x1="126" x2="146" y1="324" y2="324" class="net_41,42 width_2" style="stroke-width: 2"/><line x1="146" x2="146" y1="324" y2="506" class="net_41,42 width_2" style="stroke-width: 2"/><line x1="146" x2="983" y1="506" y2="506" class="net_41,42 width_2" style="stroke-width: 2"/><line x1="247.66666666666666" x2="328" y1="208" y2="208" class="net_5,43,44 width_3" style="stroke-width: 2"/><line x1="328" x2="328" y1="208" y2="255" class="net_5,43,44 width_3" style="stroke-width: 2"/><line x1="328" x2="353" y1="255" y2="255" class="net_5,43,44 width_3" style="stroke-width: 2"/><line x1="258" x2="353" y1="275" y2="275" class="net_14,15,16 width_3" style="stroke-width: 2"/><line x1="318" x2="366" y1="397" y2="397" class="net_13 width_1" style="stroke-width: 1"/><line x1="366" x2="366" y1="397" y2="283" class="net_13 width_1" style="stroke-width: 1"/><line x1="465.5" x2="475.5" y1="255" y2="255" class="net_4,17,18,19 width_4" style="stroke-width: 2"/><line x1="475.5" x2="475.5" y1="255" y2="360.5" class="net_4,17,18,19 width_4" style="stroke-width: 2"/><line x1="475.5" x2="575.5" y1="360.5" y2="360.5" class="net_4,17,18,19 width_4" style="stroke-width: 2"/><line x1="575.5" x2="575.5" y1="360.5" y2="362.5" class="net_4,17,18,19 width_4" style="stroke-width: 2"/><circle cx="475.5" cy="255" r="3" style="fill:#000" class="net_4,17,18,19 width_4"/><line x1="575.5" x2="602.5" y1="362.5" y2="362.5" class="net_4,17,18,19 width_4" style="stroke-width: 2"/><line x1="465.5" x2="514.5" y1="255" y2="255" class="net_4,17,18,19 width_4" style="stroke-width: 2"/><line x1="514.5" x2="514.5" y1="255" y2="309" class="net_4,17,18,19 width_4" style="stroke-width: 2"/><line x1="514.5" x2="541.5" y1="309" y2="309" class="net_4,17,18,19 width_4" style="stroke-width: 2"/><line x1="465.5" x2="475.5" y1="255" y2="255" class="net_4,17,18,19 width_4" style="stroke-width: 2"/><line x1="475.5" x2="475.5" y1="255" y2="240" class="net_4,17,18,19 width_4" style="stroke-width: 2"/><line x1="475.5" x2="635.5" y1="240" y2="240" class="net_4,17,18,19 width_4" style="stroke-width: 2"/><line x1="635.5" x2="635.5" y1="240" y2="296.5" class="net_4,17,18,19 width_4" style="stroke-width: 2"/><line x1="635.5" x2="660.5" y1="296.5" y2="296.5" class="net_4,17,18,19 width_4" style="stroke-width: 2"/><line x1="565.5" x2="660.5" y1="316.5" y2="316.5" class="net_21,22,23,24 width_4" style="stroke-width: 2"/><line x1="625.5" x2="673.5" y1="370" y2="370" class="net_20 width_1" style="stroke-width: 1"/><line x1="673.5" x2="673.5" y1="370" y2="324.5" class="net_20 width_1" style="stroke-width: 1"/><line x1="898" x2="908" y1="57.5" y2="57.5" class="net_3,25,26,27 width_4" style="stroke-width: 2"/><line x1="908" x2="908" y1="57.5" y2="404.5" class="net_3,25,26,27 width_4" style="stroke-width: 2"/><line x1="908" x2="1017" y1="404.5" y2="404.5" class="net_3,25,26,27 width_4" style="stroke-width: 2"/><line x1="1017" x2="1017" y1="404.5" y2="406.5" class="net_3,25,26,27 width_4" style="stroke-width: 2"/><circle cx="908" cy="57.5" r="3" style="fill:#000" class="net_3,25,26,27 width_4"/><line x1="1017" x2="1044" y1="406.5" y2="406.5" class="net_3,25,26,27 width_4" style="stroke-width: 2"/><line x1="898" x2="956" y1="57.5" y2="57.5" class="net_3,25,26,27 width_4" style="stroke-width: 2"/><line x1="956" x2="956" y1="57.5" y2="73" class="net_3,25,26,27 width_4" style="stroke-width: 2"/><line x1="956" x2="983" y1="73" y2="73" class="net_3,25,26,27 width_4" style="stroke-width: 2"/><line x1="898" x2="908" y1="57.5" y2="57.5" class="net_3,25,26,27 width_4" style="stroke-width: 2"/><line x1="908" x2="908" y1="57.5" y2="27" class="net_3,25,26,27 width_4" style="stroke-width: 2"/><line x1="908" x2="1077" y1="27" y2="27" class="net_3,25,26,27 width_4" style="stroke-width: 2"/><line x1="1077" x2="1077" y1="27" y2="60.5" class="net_3,25,26,27 width_4" style="stroke-width: 2"/><line x1="1077" x2="1102" y1="60.5" y2="60.5" class="net_3,25,26,27 width_4" style="stroke-width: 2"/><line x1="1007" x2="1102" y1="80.5" y2="80.5" class="net_30,31,32,33 width_4" style="stroke-width: 2"/><line x1="1067" x2="1115" y1="414" y2="414" class="net_29 width_1" style="stroke-width: 1"/><line x1="1115" x2="1115" y1="414" y2="88.5" class="net_29 width_1" style="stroke-width: 1"/><line x1="946" x2="1017" y1="550" y2="550" class="net_28,55,56,57 width_4" style="stroke-width: 2"/><line x1="1017" x2="1017" y1="550" y2="566" class="net_28,55,56,57 width_4" style="stroke-width: 2"/><line x1="1017" x2="1044" y1="566" y2="566" class="net_28,55,56,57 width_4" style="stroke-width: 2"/><line x1="898" x2="956" y1="475.5" y2="475.5" class="net_28,43,44 width_3" style="stroke-width: 2"/><line x1="956" x2="956" y1="475.5" y2="491" class="net_28,43,44 width_3" style="stroke-width: 2"/><line x1="956" x2="983" y1="491" y2="491" class="net_28,43,44 width_3" style="stroke-width: 2"/><line x1="898" x2="908" y1="475.5" y2="475.5" class="net_28,43,44 width_3" style="stroke-width: 2"/><line x1="908" x2="908" y1="475.5" y2="445" class="net_28,43,44 width_3" style="stroke-width: 2"/><line x1="908" x2="1077" y1="445" y2="445" class="net_28,43,44 width_3" style="stroke-width: 2"/><line x1="1077" x2="1077" y1="445" y2="478.5" class="net_28,43,44 width_3" style="stroke-width: 2"/><circle cx="908" cy="475.5" r="3" style="fill:#000" class="net_28,43,44 width_3"/><line x1="1077" x2="1102" y1="478.5" y2="478.5" class="net_28,43,44 width_3" style="stroke-width: 2"/><line x1="1007" x2="1102" y1="498.5" y2="498.5" class="net_35,36,37 width_3" style="stroke-width: 2"/><line x1="1067" x2="1115" y1="573.5" y2="573.5" class="net_34 width_1" style="stroke-width: 1"/><line x1="1115" x2="1115" y1="573.5" y2="506.5" class="net_34 width_1" style="stroke-width: 1"/><line x1="1214.5" x2="1288.5" y1="458.5" y2="458.5" class="net_2,6,7,8,9,10,11,12 width_8" style="stroke-width: 2"/><line x1="126" x2="136" y1="485.5" y2="485.5" class="net_43,44 width_2" style="stroke-width: 2"/><line x1="136" x2="136" y1="485.5" y2="218" class="net_43,44 width_2" style="stroke-width: 2"/><circle cx="136" cy="485.5" r="3" style="fill:#000" class="net_43,44 width_2"/><line x1="136" x2="241.66666666666666" y1="218" y2="218" class="net_43,44 width_2" style="stroke-width: 2"/><line x1="126" x2="892" y1="485.5" y2="485.5" class="net_43,44 width_2" style="stroke-width: 2"/><line x1="182.6" x2="427.5" y1="129.5" y2="129.5" class="net_4 width_1" style="stroke-width: 1"/><line x1="427.5" x2="427.5" y1="129.5" y2="245" class="net_4 width_1" style="stroke-width: 1"/><line x1="427.5" x2="459.5" y1="245" y2="245" class="net_4 width_1" style="stroke-width: 1"/><line x1="378.5" x2="459.5" y1="265" y2="265" class="net_17,18,19 width_3" style="stroke-width: 2"/><line x1="182.6" x2="212" y1="149.5" y2="149.5" class="net_3 width_1" style="stroke-width: 1"/><line x1="212" x2="212" y1="149.5" y2="47.5" class="net_3 width_1" style="stroke-width: 1"/><line x1="212" x2="892" y1="47.5" y2="47.5" class="net_3 width_1" style="stroke-width: 1"/><line x1="765" x2="794" y1="445" y2="445" class="net_25,26,27 width_3" style="stroke-width: 2"/><line x1="794" x2="794" y1="445" y2="67.5" class="net_25,26,27 width_3" style="stroke-width: 2"/><line x1="794" x2="892" y1="67.5" y2="67.5" class="net_25,26,27 width_3" style="stroke-width: 2"/><line x1="765" x2="794" y1="465" y2="465" class="net_28 width_1" style="stroke-width: 1"/><line x1="794" x2="794" y1="465" y2="529" class="net_28 width_1" style="stroke-width: 1"/><line x1="794" x2="908" y1="529" y2="529" class="net_28 width_1" style="stroke-width: 1"/><line x1="908" x2="908" y1="529" y2="540" class="net_28 width_1" style="stroke-width: 1"/><circle cx="794" cy="465" r="2" style="fill:#000" class="net_28 width_1"/><line x1="908" x2="940" y1="540" y2="540" class="net_28 width_1" style="stroke-width: 1"/><line x1="765" x2="860" y1="465" y2="465" class="net_28 width_1" style="stroke-width: 1"/><line x1="860" x2="860" y1="465" y2="465.5" class="net_28 width_1" style="stroke-width: 1"/><line x1="860" x2="892" y1="465.5" y2="465.5" class="net_28 width_1" style="stroke-width: 1"/><line x1="850" x2="940" y1="560" y2="560" class="net_55,56,57 width_3" style="stroke-width: 2"/><line x1="182.6" x2="202" y1="169.5" y2="169.5" class="net_2 width_1" style="stroke-width: 1"/><line x1="202" x2="202" y1="169.5" y2="12" class="net_2 width_1" style="stroke-width: 1"/><line x1="202" x2="1186.5" y1="12" y2="12" class="net_2 width_1" style="stroke-width: 1"/><line x1="1186.5" x2="1186.5" y1="12" y2="448.5" class="net_2 width_1" style="stroke-width: 1"/><line x1="1186.5" x2="1208.5" y1="448.5" y2="448.5" class="net_2 width_1" style="stroke-width: 1"/><line x1="1127.5" x2="1176.5" y1="70.5" y2="70.5" class="net_6,7,8,9 width_4" style="stroke-width: 2"/><line x1="1176.5" x2="1176.5" y1="70.5" y2="468.5" class="net_6,7,8,9 width_4" style="stroke-width: 2"/><line x1="1176.5" x2="1208.5" y1="468.5" y2="468.5" class="net_6,7,8,9 width_4" style="stroke-width: 2"/><line x1="1127.5" x2="1208.5" y1="488.5" y2="488.5" class="net_10,11,12 width_3" style="stroke-width: 2"/><line x1="42" x2="177.6" y1="119.5" y2="119.5" class="net_2,3,4,5 width_4" style="stroke-width: 2"/><line x1="686" x2="696" y1="306.5" y2="306.5" class="net_25,26,27,28 width_4" style="stroke-width: 2"/><line x1="696" x2="696" y1="306.5" y2="455" class="net_25,26,27,28 width_4" style="stroke-width: 2"/><line x1="696" x2="760" y1="455" y2="455" class="net_25,26,27,28 width_4" style="stroke-width: 2"/><rect x="612" y="576" width="16" height="9" class="net_38,39,40 width_3 busLabel_3" style="fill: white; stroke: none"/><text x="611" y="584" class="net_38,39,40 width_3 busLabel_3">/3/</text><rect x="612" y="576" width="16" height="9" class="net_38,39,40 width_3 busLabel_3" style="fill: white; stroke: none"/><text x="611" y="584" class="net_38,39,40 width_3 busLabel_3">/3/</text><rect x="612" y="576" width="16" height="9" class="net_38,39,40 width_3 busLabel_3" style="fill: white; stroke: none"/><text x="611" y="584" class="net_38,39,40 width_3 busLabel_3">/3/</text><rect x="612" y="576" width="16" height="9" class="net_38,39,40 width_3 busLabel_3" style="fill: white; stroke: none"/><text x="611" y="584" class="net_38,39,40 width_3 busLabel_3">/3/</text><rect x="551.5" y="501" width="16" height="9" class="net_41,42 width_2 busLabel_2" style="fill: white; stroke: none"/><text x="550.5" y="509" class="net_41,42 width_2 busLabel_2">/2/</text><rect x="551.5" y="501" width="16" height="9" class="net_41,42 width_2 busLabel_2" style="fill: white; stroke: none"/><text x="550.5" y="509" class="net_41,42 width_2 busLabel_2">/2/</text><rect x="551.5" y="501" width="16" height="9" class="net_41,42 width_2 busLabel_2" style="fill: white; stroke: none"/><text x="550.5" y="509" class="net_41,42 width_2 busLabel_2">/2/</text><rect x="551.5" y="501" width="16" height="9" class="net_41,42 width_2 busLabel_2" style="fill: white; stroke: none"/><text x="550.5" y="509" class="net_41,42 width_2 busLabel_2">/2/</text><rect x="304.5" y="203" width="16" height="9" class="net_5,43,44 width_3 busLabel_3" style="fill: white; stroke: none"/><text x="303.5" y="211" class="net_5,43,44 width_3 busLabel_3">/3/</text><rect x="304.5" y="270" width="16" height="9" class="net_14,15,16 width_3 busLabel_3" style="fill: white; stroke: none"/><text x="303.5" y="278" class="net_14,15,16 width_3 busLabel_3">/3/</text><rect x="551.5" y="235" width="16" height="9" class="net_4,17,18,19 width_4 busLabel_4" style="fill: white; stroke: none"/><text x="550.5" y="243" class="net_4,17,18,19 width_4 busLabel_4">/4/</text><rect x="551.5" y="235" width="16" height="9" class="net_4,17,18,19 width_4 busLabel_4" style="fill: white; stroke: none"/><text x="550.5" y="243" class="net_4,17,18,19 width_4 busLabel_4">/4/</text><rect x="551.5" y="235" width="16" height="9" class="net_4,17,18,19 width_4 busLabel_4" style="fill: white; stroke: none"/><text x="550.5" y="243" class="net_4,17,18,19 width_4 busLabel_4">/4/</text><rect x="612" y="311.5" width="16" height="9" class="net_21,22,23,24 width_4 busLabel_4" style="fill: white; stroke: none"/><text x="611" y="319.5" class="net_21,22,23,24 width_4 busLabel_4">/4/</text><rect x="993" y="22" width="16" height="9" class="net_3,25,26,27 width_4 busLabel_4" style="fill: white; stroke: none"/><text x="992" y="30" class="net_3,25,26,27 width_4 busLabel_4">/4/</text><rect x="993" y="22" width="16" height="9" class="net_3,25,26,27 width_4 busLabel_4" style="fill: white; stroke: none"/><text x="992" y="30" class="net_3,25,26,27 width_4 busLabel_4">/4/</text><rect x="993" y="22" width="16" height="9" class="net_3,25,26,27 width_4 busLabel_4" style="fill: white; stroke: none"/><text x="992" y="30" class="net_3,25,26,27 width_4 busLabel_4">/4/</text><rect x="1053.5" y="75.5" width="16" height="9" class="net_30,31,32,33 width_4 busLabel_4" style="fill: white; stroke: none"/><text x="1052.5" y="83.5" class="net_30,31,32,33 width_4 busLabel_4">/4/</text><rect x="993" y="545" width="16" height="9" class="net_28,55,56,57 width_4 busLabel_4" style="fill: white; stroke: none"/><text x="992" y="553" class="net_28,55,56,57 width_4 busLabel_4">/4/</text><rect x="993" y="440" width="16" height="9" class="net_28,43,44 width_3 busLabel_3" style="fill: white; stroke: none"/><text x="992" y="448" class="net_28,43,44 width_3 busLabel_3">/3/</text><rect x="993" y="440" width="16" height="9" class="net_28,43,44 width_3 busLabel_3" style="fill: white; stroke: none"/><text x="992" y="448" class="net_28,43,44 width_3 busLabel_3">/3/</text><rect x="1053.5" y="493.5" width="16" height="9" class="net_35,36,37 width_3 busLabel_3" style="fill: white; stroke: none"/><text x="1052.5" y="501.5" class="net_35,36,37 width_3 busLabel_3">/3/</text><rect x="1250.5" y="453.5" width="16" height="9" class="net_2,6,7,8,9,10,11,12 width_8 busLabel_8" style="fill: white; stroke: none"/><text x="1249.5" y="461.5" class="net_2,6,7,8,9,10,11,12 width_8 busLabel_8">/8/</text><rect x="501.5" y="480.5" width="16" height="9" class="net_43,44 width_2 busLabel_2" style="fill: white; stroke: none"/><text x="500.5" y="488.5" class="net_43,44 width_2 busLabel_2">/2/</text><rect x="501.5" y="480.5" width="16" height="9" class="net_43,44 width_2 busLabel_2" style="fill: white; stroke: none"/><text x="500.5" y="488.5" class="net_43,44 width_2 busLabel_2">/2/</text><rect x="414.5" y="260" width="16" height="9" class="net_17,18,19 width_3 busLabel_3" style="fill: white; stroke: none"/><text x="413.5" y="268" class="net_17,18,19 width_3 busLabel_3">/3/</text><rect x="833.5" y="62.5" width="16" height="9" class="net_25,26,27 width_3 busLabel_3" style="fill: white; stroke: none"/><text x="832.5" y="70.5" class="net_25,26,27 width_3 busLabel_3">/3/</text><rect x="890.5" y="555" width="16" height="9" class="net_55,56,57 width_3 busLabel_3" style="fill: white; stroke: none"/><text x="889.5" y="563" class="net_55,56,57 width_3 busLabel_3">/3/</text><rect x="1163.5" y="65.5" width="16" height="9" class="net_6,7,8,9 width_4 busLabel_4" style="fill: white; stroke: none"/><text x="1162.5" y="73.5" class="net_6,7,8,9 width_4 busLabel_4">/4/</text><rect x="1163.5" y="483.5" width="16" height="9" class="net_10,11,12 width_3 busLabel_3" style="fill: white; stroke: none"/><text x="1162.5" y="491.5" class="net_10,11,12 width_3 busLabel_3">/3/</text><rect x="109.5" y="114.5" width="16" height="9" class="net_2,3,4,5 width_4 busLabel_4" style="fill: white; stroke: none"/><text x="108.5" y="122.5" class="net_2,3,4,5 width_4 busLabel_4">/4/</text><rect x="722" y="450" width="16" height="9" class="net_25,26,27,28 width_4 busLabel_4" style="fill: white; stroke: none"/><text x="721" y="458" class="net_25,26,27,28 width_4 busLabel_4">/4/</text></svg>