<svg xmlns="http://www.w3.org/2000/svg" xmlns:xlink="http://www.w3.org/1999/xlink" xmlns:s="https://github.com/nturley/netlistsvg" width="489" height="358.5"><rect width="100%" height="100%" fill="white"/><style>svg {
  stroke:#000;
  fill:none;
}
text {
  fill:#000;
  stroke:none;
  font-size:10px;
  font-weight: bold;
  font-family: "Courier New", monospace;
}
line {
    stroke-linecap: round;
}
.nodelabel {
  text-anchor: middle;
}
.inputPortLabel {
  text-anchor: end;
}
.splitjoinBody {
  fill:#000;
}</style><g s:type="mux" transform="translate(283.6666666666667,199)" s:width="20" s:height="40" id="cell_\11"><s:alias val="$pmux"/><s:alias val="$mux"/><s:alias val="$_MUX_"/><path d="M0,0 L20,10 L20,30 L0,40 Z" class="cell_\11"/><text x="5" y="32" class="nodelabel cell_\11" s:attribute="">1</text><text x="5" y="13" class="nodelabel cell_\11" s:attribute="">0</text><g s:x="0" s:y="10" s:pid="A"/><g s:x="0" s:y="30" s:pid="B"/><g s:x="10" s:y="35" s:pid="S"/><g s:x="20" s:y="20" s:pid="Y"/></g><g s:type="mux-bus" transform="translate(414,124)" s:width="24" s:height="40" id="cell_\13"><s:alias val="$pmux-bus"/><s:alias val="$mux-bus"/><s:alias val="$_MUX_-bus"/><path d="M0,0 L20,10 L20,30 L0,40 Z" class="cell_\13"/><path d="M4,2 L4,0 L22,9 L22,31 L4,40 L4,38" class="cell_\13"/><path d="M8,2 L8,0 L24,8 L24,32 L8,40 L8,38" class="cell_\13"/><text x="5" y="32" class="nodelabel cell_\13" s:attribute="">1</text><text x="5" y="13" class="nodelabel cell_\13" s:attribute="">0</text><g s:x="-1" s:y="10" s:pid="A"/><g s:x="-1" s:y="30" s:pid="B"/><g s:x="12" s:y="38" s:pid="S"/><g s:x="24.5" s:y="20" s:pid="Y"/></g><g s:type="dff-bus" transform="translate(78,195)" s:width="34" s:height="44" id="cell_\23"><s:alias val="$dff-bus"/><s:alias val="$_DFF_-bus"/><s:alias val="$_DFF_P_-bus"/><s:alias val="adff-bus"/><s:alias val="$adff-bus"/><s:alias val="$_DFF_-bus"/><s:alias val="$_DFF_P_-bus"/><s:alias val="sdff-bus"/><s:alias val="$sdff-bus"/><s:alias val="$_DFF_-bus"/><s:alias val="$_DFF_P_-bus"/><rect width="30" height="40" x="0" y="0" class="cell_\23"/><path d="M0,35 L5,30 L0,25" class="cell_\23"/><path d="M30,2 L32,2 L32,42 L2,42 L2,40" class="cell_\23"/><path d="M32,4 L34,4 L34,44 L4,44 L4,42" class="cell_\23"/><g s:x="35" s:y="10" s:pid="Q"/><g s:x="-1" s:y="30" s:pid="CLK"/><g s:x="-1" s:y="30" s:pid="C"/><g s:x="-1" s:y="10" s:pid="D"/><g s:x="17" s:y="44" s:pid="ARST"/><g s:x="17" s:y="44" s:pid="SRST"/></g><g s:type="dff" transform="translate(347,306.5)" s:width="30" s:height="40" id="cell_\24"><s:alias val="$dff"/><s:alias val="$_DFF_"/><s:alias val="$_DFF_P_"/><s:alias val="$adff"/><s:alias val="$_DFF_"/><s:alias val="$_DFF_P_"/><s:alias val="$sdff"/><s:alias val="$_DFF_"/><s:alias val="$_DFF_P_"/><rect width="30" height="40" x="0" y="0" class="cell_\24"/><path d="M0,35 L5,30 L0,25" class="cell_\24"/><g s:x="31" s:y="10" s:pid="Q"/><g s:x="-1" s:y="30" s:pid="CLK"/><g s:x="-1" s:y="30" s:pid="C"/><g s:x="-1" s:y="10" s:pid="D"/><g s:x="15" s:y="40" s:pid="ARST"/><g s:x="15" s:y="40" s:pid="SRST"/></g><g s:type="eq" transform="translate(216,274)" s:width="25" s:height="25" id="cell_\6"><s:alias val="$eq"/><s:alias val="$eqx"/><circle r="12.5" cx="12.5" cy="12.5" class="cell_\6"/><line x1="7.5" x2="17.5" y1="10" y2="10" class="cell_\6"/><line x1="7.5" x2="17.5" y1="15" y2="15" class="cell_\6"/><g s:x="2" s:y="5" s:pid="A"/><g s:x="2" s:y="20" s:pid="B"/><g s:x="25" s:y="12.5" s:pid="Y"/></g><g s:type="add" transform="translate(282,74)" s:width="25" s:height="25" id="cell_\8"><s:alias val="$add"/><circle r="12.5" cx="12.5" cy="12.5" class="cell_\8"/><line x1="7.5" x2="17.5" y1="12.5" y2="12.5" class="cell_\8"/><line x1="12.5" x2="12.5" y1="7.5" y2="17.5" class="cell_\8"/><g s:x="2" s:y="5" s:pid="A"/><g s:x="2" s:y="20" s:pid="B"/><g s:x="26" s:y="12.5" s:pid="Y"/></g><g s:type="inputExt" transform="translate(12,326.5)" s:width="30" s:height="20" id="cell_i_clk"><text x="15" y="-4" class="nodelabel cell_i_clk" s:attribute="ref">i_clk</text><s:alias val="$_inputExt_"/><path d="M0,0 L0,20 L15,20 L30,10 L15,0 Z" class="cell_i_clk"/><g s:x="30" s:y="10" s:pid="Y"/></g><g s:type="outputExt" transform="translate(413,306.5)" s:width="30" s:height="20" id="cell_o_clk_ena"><text x="15" y="-4" class="nodelabel cell_o_clk_ena" s:attribute="ref">o_clk_ena</text><s:alias val="$_outputExt_"/><path d="M30,0 L30,20 L15,20 L0,10 L15,0 Z" class="cell_o_clk_ena"/><g s:x="0" s:y="10" s:pid="A"/></g><g s:type="constant" transform="translate(214,154)" s:width="30" s:height="20" id="cell_0"><text x="15" y="-4" class="nodelabel cell_0" s:attribute="ref">0</text><s:alias val="$_constant_"/><rect width="30" height="20" class="cell_0"/><g s:x="31" s:y="10" s:pid="Y"/></g><g s:type="constant" transform="translate(214,219)" s:width="30" s:height="20" id="cell_1"><text x="15" y="-4" class="nodelabel cell_1" s:attribute="ref">1</text><s:alias val="$_constant_"/><rect width="30" height="20" class="cell_1"/><g s:x="31" s:y="10" s:pid="Y"/></g><g s:type="constant" transform="translate(280,144)" s:width="30" s:height="20" id="cell_0000"><text x="15" y="-4" class="nodelabel cell_0000" s:attribute="ref">0x0</text><s:alias val="$_constant_"/><rect width="30" height="20" class="cell_0000"/><g s:x="31" s:y="10" s:pid="Y"/></g><g s:type="constant" transform="translate(82,284)" s:width="30" s:height="20" id="cell_1001"><text x="15" y="-4" class="nodelabel cell_1001" s:attribute="ref">0x9</text><s:alias val="$_constant_"/><rect width="30" height="20" class="cell_1001"/><g s:x="31" s:y="10" s:pid="Y"/></g><g s:type="constant" transform="translate(148,84)" s:width="30" s:height="20" id="cell_0001"><text x="15" y="-4" class="nodelabel cell_0001" s:attribute="ref">0x1</text><s:alias val="$_constant_"/><rect width="30" height="20" class="cell_0001"/><g s:x="31" s:y="10" s:pid="Y"/></g><line x1="245" x2="255" y1="164" y2="164" class="net_18 width_1" style="stroke-width: 1"/><line x1="255" x2="255" y1="164" y2="209" class="net_18 width_1" style="stroke-width: 1"/><line x1="255" x2="283.6666666666667" y1="209" y2="209" class="net_18 width_1" style="stroke-width: 1"/><line x1="245" x2="283.6666666666667" y1="229" y2="229" class="net_19 width_1" style="stroke-width: 1"/><line x1="241" x2="255" y1="286.5" y2="286.5" class="net_4 width_1" style="stroke-width: 1"/><line x1="255" x2="255" y1="286.5" y2="276.5" class="net_4 width_1" style="stroke-width: 1"/><line x1="255" x2="293.6666666666667" y1="276.5" y2="276.5" class="net_4 width_1" style="stroke-width: 1"/><circle cx="255" cy="286.5" r="2" style="fill:#000" class="net_4 width_1"/><line x1="293.6666666666667" x2="293.6666666666667" y1="276.5" y2="234" class="net_4 width_1" style="stroke-width: 1"/><line x1="241" x2="426" y1="286.5" y2="286.5" class="net_4 width_1" style="stroke-width: 1"/><line x1="426" x2="426" y1="286.5" y2="162" class="net_4 width_1" style="stroke-width: 1"/><line x1="308" x2="388" y1="86.5" y2="86.5" class="net_6,7,8,9 width_4" style="stroke-width: 2"/><line x1="388" x2="388" y1="86.5" y2="134" class="net_6,7,8,9 width_4" style="stroke-width: 2"/><line x1="388" x2="413" y1="134" y2="134" class="net_6,7,8,9 width_4" style="stroke-width: 2"/><line x1="311" x2="413" y1="154" y2="154" class="net_20,21,22,23 width_4" style="stroke-width: 2"/><line x1="42" x2="52" y1="336.5" y2="336.5" class="net_2 width_1" style="stroke-width: 1"/><line x1="52" x2="52" y1="336.5" y2="225" class="net_2 width_1" style="stroke-width: 1"/><circle cx="52" cy="336.5" r="2" style="fill:#000" class="net_2 width_1"/><line x1="52" x2="77" y1="225" y2="225" class="net_2 width_1" style="stroke-width: 1"/><line x1="42" x2="346" y1="336.5" y2="336.5" class="net_2 width_1" style="stroke-width: 1"/><line x1="438.5" x2="477" y1="144" y2="144" class="net_10,11,12,13 width_4" style="stroke-width: 2"/><line x1="477" x2="477" y1="144" y2="16" class="net_10,11,12,13 width_4" style="stroke-width: 2"/><line x1="477" x2="52" y1="16" y2="16" class="net_10,11,12,13 width_4" style="stroke-width: 2"/><line x1="52" x2="52" y1="16" y2="205" class="net_10,11,12,13 width_4" style="stroke-width: 2"/><line x1="52" x2="77" y1="205" y2="205" class="net_10,11,12,13 width_4" style="stroke-width: 2"/><line x1="303.6666666666667" x2="321" y1="219" y2="219" class="net_5 width_1" style="stroke-width: 1"/><line x1="321" x2="321" y1="219" y2="316.5" class="net_5 width_1" style="stroke-width: 1"/><line x1="321" x2="346" y1="316.5" y2="316.5" class="net_5 width_1" style="stroke-width: 1"/><line x1="113" x2="189" y1="205" y2="205" class="net_14,15,16,17 width_4" style="stroke-width: 2"/><line x1="189" x2="189" y1="205" y2="279" class="net_14,15,16,17 width_4" style="stroke-width: 2"/><line x1="189" x2="218" y1="279" y2="279" class="net_14,15,16,17 width_4" style="stroke-width: 2"/><line x1="113" x2="123" y1="205" y2="205" class="net_14,15,16,17 width_4" style="stroke-width: 2"/><line x1="123" x2="123" y1="205" y2="33" class="net_14,15,16,17 width_4" style="stroke-width: 2"/><line x1="123" x2="255" y1="33" y2="33" class="net_14,15,16,17 width_4" style="stroke-width: 2"/><line x1="255" x2="255" y1="33" y2="79" class="net_14,15,16,17 width_4" style="stroke-width: 2"/><circle cx="123" cy="205" r="3" style="fill:#000" class="net_14,15,16,17 width_4"/><line x1="255" x2="284" y1="79" y2="79" class="net_14,15,16,17 width_4" style="stroke-width: 2"/><line x1="113" x2="218" y1="294" y2="294" class="net_24,25,26,27 width_4" style="stroke-width: 2"/><line x1="179" x2="284" y1="94" y2="94" class="net_28,29,30,31 width_4" style="stroke-width: 2"/><line x1="378" x2="413" y1="316.5" y2="316.5" class="net_3 width_1" style="stroke-width: 1"/><rect x="361" y="81.5" width="16" height="9" class="net_6,7,8,9 width_4 busLabel_4" style="fill: white; stroke: none"/><text x="360" y="89.5" class="net_6,7,8,9 width_4 busLabel_4">/4/</text><rect x="361" y="149" width="16" height="9" class="net_20,21,22,23 width_4 busLabel_4" style="fill: white; stroke: none"/><text x="360" y="157" class="net_20,21,22,23 width_4 busLabel_4">/4/</text><rect x="228.5" y="11" width="16" height="9" class="net_10,11,12,13 width_4 busLabel_4" style="fill: white; stroke: none"/><text x="227.5" y="19" class="net_10,11,12,13 width_4 busLabel_4">/4/</text><rect x="162.5" y="28" width="16" height="9" class="net_14,15,16,17 width_4 busLabel_4" style="fill: white; stroke: none"/><text x="161.5" y="36" class="net_14,15,16,17 width_4 busLabel_4">/4/</text><rect x="162.5" y="28" width="16" height="9" class="net_14,15,16,17 width_4 busLabel_4" style="fill: white; stroke: none"/><text x="161.5" y="36" class="net_14,15,16,17 width_4 busLabel_4">/4/</text><rect x="162.5" y="289" width="16" height="9" class="net_24,25,26,27 width_4 busLabel_4" style="fill: white; stroke: none"/><text x="161.5" y="297" class="net_24,25,26,27 width_4 busLabel_4">/4/</text><rect x="228.5" y="89" width="16" height="9" class="net_28,29,30,31 width_4 busLabel_4" style="fill: white; stroke: none"/><text x="227.5" y="97" class="net_28,29,30,31 width_4 busLabel_4">/4/</text></svg>