<svg xmlns="http://www.w3.org/2000/svg" xmlns:xlink="http://www.w3.org/1999/xlink" xmlns:s="https://github.com/nturley/netlistsvg" width="462" height="328.5"><rect width="100%" height="100%" fill="white"/><style>svg {
  stroke:#000;
  fill:none;
}
text {
  fill:#000;
  stroke:none;
  font-size:10px;
  font-weight: bold;
  font-family: "Courier New", monospace;
}
line {
    stroke-linecap: round;
}
.nodelabel {
  text-anchor: middle;
}
.inputPortLabel {
  text-anchor: end;
}
.splitjoinBody {
  fill:#000;
}</style><g s:type="mux" transform="translate(256.66666666666663,152)" s:width="20" s:height="40" id="cell_\11"><s:alias val="$pmux"/><s:alias val="$mux"/><s:alias val="$_MUX_"/><path d="M0,0 L20,10 L20,30 L0,40 Z" class="cell_\11"/><text x="5" y="32" class="nodelabel cell_\11" s:attribute="">1</text><text x="5" y="13" class="nodelabel cell_\11" s:attribute="">0</text><g s:x="0" s:y="10" s:pid="A"/><g s:x="0" s:y="30" s:pid="B"/><g s:x="10" s:y="35" s:pid="S"/><g s:x="20" s:y="20" s:pid="Y"/></g><g s:type="mux-bus" transform="translate(387,77)" s:width="24" s:height="40" id="cell_\13"><s:alias val="$pmux-bus"/><s:alias val="$mux-bus"/><s:alias val="$_MUX_-bus"/><path d="M0,0 L20,10 L20,30 L0,40 Z" class="cell_\13"/><path d="M4,2 L4,0 L22,9 L22,31 L4,40 L4,38" class="cell_\13"/><path d="M8,2 L8,0 L24,8 L24,32 L8,40 L8,38" class="cell_\13"/><text x="5" y="32" class="nodelabel cell_\13" s:attribute="">1</text><text x="5" y="13" class="nodelabel cell_\13" s:attribute="">0</text><g s:x="-1" s:y="10" s:pid="A"/><g s:x="-1" s:y="30" s:pid="B"/><g s:x="12" s:y="38" s:pid="S"/><g s:x="24.5" s:y="20" s:pid="Y"/></g><g s:type="dff-bus" transform="translate(78,128)" s:width="34" s:height="44" id="cell_\17"><s:alias val="$dff-bus"/><s:alias val="$_DFF_-bus"/><s:alias val="$_DFF_P_-bus"/><s:alias val="adff-bus"/><s:alias val="$adff-bus"/><s:alias val="$_DFF_-bus"/><s:alias val="$_DFF_P_-bus"/><s:alias val="sdff-bus"/><s:alias val="$sdff-bus"/><s:alias val="$_DFF_-bus"/><s:alias val="$_DFF_P_-bus"/><rect width="30" height="40" x="0" y="0" class="cell_\17"/><path d="M0,35 L5,30 L0,25" class="cell_\17"/><path d="M30,2 L32,2 L32,42 L2,42 L2,40" class="cell_\17"/><path d="M32,4 L34,4 L34,44 L4,44 L4,42" class="cell_\17"/><g s:x="35" s:y="10" s:pid="Q"/><g s:x="-1" s:y="30" s:pid="CLK"/><g s:x="-1" s:y="30" s:pid="C"/><g s:x="-1" s:y="10" s:pid="D"/><g s:x="17" s:y="44" s:pid="ARST"/><g s:x="17" s:y="44" s:pid="SRST"/></g><g s:type="dff" transform="translate(320,239.5)" s:width="30" s:height="40" id="cell_\18"><s:alias val="$dff"/><s:alias val="$_DFF_"/><s:alias val="$_DFF_P_"/><s:alias val="$adff"/><s:alias val="$_DFF_"/><s:alias val="$_DFF_P_"/><s:alias val="$sdff"/><s:alias val="$_DFF_"/><s:alias val="$_DFF_P_"/><rect width="30" height="40" x="0" y="0" class="cell_\18"/><path d="M0,35 L5,30 L0,25" class="cell_\18"/><g s:x="31" s:y="10" s:pid="Q"/><g s:x="-1" s:y="30" s:pid="CLK"/><g s:x="-1" s:y="30" s:pid="C"/><g s:x="-1" s:y="10" s:pid="D"/><g s:x="15" s:y="40" s:pid="ARST"/><g s:x="15" s:y="40" s:pid="SRST"/></g><g s:type="eq" transform="translate(189,207)" s:width="25" s:height="25" id="cell_\6"><s:alias val="$eq"/><s:alias val="$eqx"/><circle r="12.5" cx="12.5" cy="12.5" class="cell_\6"/><line x1="7.5" x2="17.5" y1="10" y2="10" class="cell_\6"/><line x1="7.5" x2="17.5" y1="15" y2="15" class="cell_\6"/><g s:x="2" s:y="5" s:pid="A"/><g s:x="2" s:y="20" s:pid="B"/><g s:x="25" s:y="12.5" s:pid="Y"/></g><g s:type="add" transform="translate(255,27)" s:width="25" s:height="25" id="cell_\8"><s:alias val="$add"/><circle r="12.5" cx="12.5" cy="12.5" class="cell_\8"/><line x1="7.5" x2="17.5" y1="12.5" y2="12.5" class="cell_\8"/><line x1="12.5" x2="12.5" y1="7.5" y2="17.5" class="cell_\8"/><g s:x="2" s:y="5" s:pid="A"/><g s:x="2" s:y="20" s:pid="B"/><g s:x="26" s:y="12.5" s:pid="Y"/></g><g s:type="inputExt" transform="translate(12,296.5)" s:width="30" s:height="20" id="cell_i_clk"><text x="15" y="-4" class="nodelabel cell_i_clk" s:attribute="ref">i_clk</text><s:alias val="$_inputExt_"/><path d="M0,0 L0,20 L15,20 L30,10 L15,0 Z" class="cell_i_clk"/><g s:x="30" s:y="10" s:pid="Y"/></g><g s:type="outputExt" transform="translate(386,239.5)" s:width="30" s:height="20" id="cell_o_clk_ena"><text x="15" y="-4" class="nodelabel cell_o_clk_ena" s:attribute="ref">o_clk_ena</text><s:alias val="$_outputExt_"/><path d="M30,0 L30,20 L15,20 L0,10 L15,0 Z" class="cell_o_clk_ena"/><g s:x="0" s:y="10" s:pid="A"/></g><g s:type="constant" transform="translate(187,152)" s:width="30" s:height="20" id="cell_0"><text x="15" y="-4" class="nodelabel cell_0" s:attribute="ref">0</text><s:alias val="$_constant_"/><rect width="30" height="20" class="cell_0"/><g s:x="31" s:y="10" s:pid="Y"/></g><g s:type="constant" transform="translate(187,37)" s:width="30" s:height="20" id="cell_1"><text x="15" y="-4" class="nodelabel cell_1" s:attribute="ref">1</text><s:alias val="$_constant_"/><rect width="30" height="20" class="cell_1"/><g s:x="31" s:y="10" s:pid="Y"/></g><g s:type="constant" transform="translate(253,97)" s:width="30" s:height="20" id="cell_00000"><text x="15" y="-4" class="nodelabel cell_00000" s:attribute="ref">0x0</text><s:alias val="$_constant_"/><rect width="30" height="20" class="cell_00000"/><g s:x="31" s:y="10" s:pid="Y"/></g><g s:type="constant" transform="translate(82,217)" s:width="30" s:height="20" id="cell_1001"><text x="15" y="-4" class="nodelabel cell_1001" s:attribute="ref">0x9</text><s:alias val="$_constant_"/><rect width="30" height="20" class="cell_1001"/><g s:x="31" s:y="10" s:pid="Y"/></g><line x1="218" x2="256.66666666666663" y1="162" y2="162" class="net_21 width_1" style="stroke-width: 1"/><line x1="218" x2="228" y1="47" y2="47" class="net_22 width_1" style="stroke-width: 1"/><line x1="228" x2="228" y1="47" y2="182" class="net_22 width_1" style="stroke-width: 1"/><circle cx="228" cy="47" r="2" style="fill:#000" class="net_22 width_1"/><line x1="228" x2="256.66666666666663" y1="182" y2="182" class="net_22 width_1" style="stroke-width: 1"/><line x1="218" x2="257" y1="47" y2="47" class="net_22 width_1" style="stroke-width: 1"/><line x1="214" x2="228" y1="219.5" y2="219.5" class="net_4 width_1" style="stroke-width: 1"/><line x1="228" x2="228" y1="219.5" y2="209.5" class="net_4 width_1" style="stroke-width: 1"/><line x1="228" x2="266.66666666666663" y1="209.5" y2="209.5" class="net_4 width_1" style="stroke-width: 1"/><circle cx="228" cy="219.5" r="2" style="fill:#000" class="net_4 width_1"/><line x1="266.66666666666663" x2="266.66666666666663" y1="209.5" y2="187" class="net_4 width_1" style="stroke-width: 1"/><line x1="214" x2="399" y1="219.5" y2="219.5" class="net_4 width_1" style="stroke-width: 1"/><line x1="399" x2="399" y1="219.5" y2="115" class="net_4 width_1" style="stroke-width: 1"/><line x1="281" x2="361" y1="39.5" y2="39.5" class="net_6,7,8,9,10 width_5" style="stroke-width: 2"/><line x1="361" x2="361" y1="39.5" y2="87" class="net_6,7,8,9,10 width_5" style="stroke-width: 2"/><line x1="361" x2="386" y1="87" y2="87" class="net_6,7,8,9,10 width_5" style="stroke-width: 2"/><line x1="284" x2="386" y1="107" y2="107" class="net_23,24,25,26,27 width_5" style="stroke-width: 2"/><line x1="42" x2="62" y1="306.5" y2="306.5" class="net_2 width_1" style="stroke-width: 1"/><line x1="62" x2="62" y1="306.5" y2="158" class="net_2 width_1" style="stroke-width: 1"/><circle cx="62" cy="306.5" r="2" style="fill:#000" class="net_2 width_1"/><line x1="62" x2="77" y1="158" y2="158" class="net_2 width_1" style="stroke-width: 1"/><line x1="42" x2="294" y1="306.5" y2="306.5" class="net_2 width_1" style="stroke-width: 1"/><line x1="294" x2="294" y1="306.5" y2="269.5" class="net_2 width_1" style="stroke-width: 1"/><line x1="294" x2="319" y1="269.5" y2="269.5" class="net_2 width_1" style="stroke-width: 1"/><line x1="411.5" x2="450" y1="97" y2="97" class="net_11,12,13,14,15 width_5" style="stroke-width: 2"/><line x1="450" x2="450" y1="97" y2="290.5" class="net_11,12,13,14,15 width_5" style="stroke-width: 2"/><line x1="450" x2="52" y1="290.5" y2="290.5" class="net_11,12,13,14,15 width_5" style="stroke-width: 2"/><line x1="52" x2="52" y1="290.5" y2="138" class="net_11,12,13,14,15 width_5" style="stroke-width: 2"/><line x1="52" x2="77" y1="138" y2="138" class="net_11,12,13,14,15 width_5" style="stroke-width: 2"/><line x1="276.66666666666663" x2="294" y1="172" y2="172" class="net_5 width_1" style="stroke-width: 1"/><line x1="294" x2="294" y1="172" y2="249.5" class="net_5 width_1" style="stroke-width: 1"/><line x1="294" x2="319" y1="249.5" y2="249.5" class="net_5 width_1" style="stroke-width: 1"/><line x1="113" x2="162" y1="138" y2="138" class="net_16,17,18,19,20 width_5" style="stroke-width: 2"/><line x1="162" x2="162" y1="138" y2="212" class="net_16,17,18,19,20 width_5" style="stroke-width: 2"/><line x1="162" x2="191" y1="212" y2="212" class="net_16,17,18,19,20 width_5" style="stroke-width: 2"/><line x1="113" x2="123" y1="138" y2="138" class="net_16,17,18,19,20 width_5" style="stroke-width: 2"/><line x1="123" x2="123" y1="138" y2="16" class="net_16,17,18,19,20 width_5" style="stroke-width: 2"/><line x1="123" x2="228" y1="16" y2="16" class="net_16,17,18,19,20 width_5" style="stroke-width: 2"/><line x1="228" x2="228" y1="16" y2="32" class="net_16,17,18,19,20 width_5" style="stroke-width: 2"/><circle cx="123" cy="138" r="3" style="fill:#000" class="net_16,17,18,19,20 width_5"/><line x1="228" x2="257" y1="32" y2="32" class="net_16,17,18,19,20 width_5" style="stroke-width: 2"/><line x1="113" x2="191" y1="227" y2="227" class="net_28,29,30,31 width_4" style="stroke-width: 2"/><line x1="351" x2="386" y1="249.5" y2="249.5" class="net_3 width_1" style="stroke-width: 1"/><rect x="334" y="34.5" width="16" height="9" class="net_6,7,8,9,10 width_5 busLabel_5" style="fill: white; stroke: none"/><text x="333" y="42.5" class="net_6,7,8,9,10 width_5 busLabel_5">/5/</text><rect x="334" y="102" width="16" height="9" class="net_23,24,25,26,27 width_5 busLabel_5" style="fill: white; stroke: none"/><text x="333" y="110" class="net_23,24,25,26,27 width_5 busLabel_5">/5/</text><rect x="201.5" y="285.5" width="16" height="9" class="net_11,12,13,14,15 width_5 busLabel_5" style="fill: white; stroke: none"/><text x="200.5" y="293.5" class="net_11,12,13,14,15 width_5 busLabel_5">/5/</text><rect x="149" y="11" width="16" height="9" class="net_16,17,18,19,20 width_5 busLabel_5" style="fill: white; stroke: none"/><text x="148" y="19" class="net_16,17,18,19,20 width_5 busLabel_5">/5/</text><rect x="149" y="11" width="16" height="9" class="net_16,17,18,19,20 width_5 busLabel_5" style="fill: white; stroke: none"/><text x="148" y="19" class="net_16,17,18,19,20 width_5 busLabel_5">/5/</text><rect x="149" y="222" width="16" height="9" class="net_28,29,30,31 width_4 busLabel_4" style="fill: white; stroke: none"/><text x="148" y="230" class="net_28,29,30,31 width_4 busLabel_4">/4/</text></svg>