<svg xmlns="http://www.w3.org/2000/svg" xmlns:xlink="http://www.w3.org/1999/xlink" xmlns:s="https://github.com/nturley/netlistsvg" width="902.5" height="851"><rect width="100%" height="100%" fill="white"/><style>svg {
  stroke:#000;
  fill:none;
}
text {
  fill:#000;
  stroke:none;
  font-size:10px;
  font-weight: bold;
  font-family: "Courier New", monospace;
}
line {
    stroke-linecap: round;
}
.nodelabel {
  text-anchor: middle;
}
.inputPortLabel {
  text-anchor: end;
}
.splitjoinBody {
  fill:#000;
}</style><g s:type="mux-bus" transform="translate(552.3333333333334,703)" s:width="24" s:height="40" id="cell_\11"><s:alias val="$pmux-bus"/><s:alias val="$mux-bus"/><s:alias val="$_MUX_-bus"/><path d="M0,0 L20,10 L20,30 L0,40 Z" class="cell_\11"/><path d="M4,2 L4,0 L22,9 L22,31 L4,40 L4,38" class="cell_\11"/><path d="M8,2 L8,0 L24,8 L24,32 L8,40 L8,38" class="cell_\11"/><text x="5" y="32" class="nodelabel cell_\11" s:attribute="">1</text><text x="5" y="13" class="nodelabel cell_\11" s:attribute="">0</text><g s:x="-1" s:y="10" s:pid="A"/><g s:x="-1" s:y="30" s:pid="B"/><g s:x="12" s:y="38" s:pid="S"/><g s:x="24.5" s:y="20" s:pid="Y"/></g><g s:type="mux-bus" transform="translate(714,398)" s:width="24" s:height="40" id="cell_\12"><s:alias val="$pmux-bus"/><s:alias val="$mux-bus"/><s:alias val="$_MUX_-bus"/><path d="M0,0 L20,10 L20,30 L0,40 Z" class="cell_\12"/><path d="M4,2 L4,0 L22,9 L22,31 L4,40 L4,38" class="cell_\12"/><path d="M8,2 L8,0 L24,8 L24,32 L8,40 L8,38" class="cell_\12"/><text x="5" y="32" class="nodelabel cell_\12" s:attribute="">1</text><text x="5" y="13" class="nodelabel cell_\12" s:attribute="">0</text><g s:x="-1" s:y="10" s:pid="A"/><g s:x="-1" s:y="30" s:pid="B"/><g s:x="12" s:y="38" s:pid="S"/><g s:x="24.5" s:y="20" s:pid="Y"/></g><g s:type="eq" transform="translate(482,364)" s:width="25" s:height="25" id="cell_\14"><s:alias val="$eq"/><s:alias val="$eqx"/><circle r="12.5" cx="12.5" cy="12.5" class="cell_\14"/><line x1="7.5" x2="17.5" y1="10" y2="10" class="cell_\14"/><line x1="7.5" x2="17.5" y1="15" y2="15" class="cell_\14"/><g s:x="2" s:y="5" s:pid="A"/><g s:x="2" s:y="20" s:pid="B"/><g s:x="25" s:y="12.5" s:pid="Y"/></g><g s:type="or" transform="translate(416.5,333)" s:width="30" s:height="25" id="cell_\17"><s:alias val="$or"/><s:alias val="$logic_or"/><s:alias val="$_OR_"/><s:alias val="$reduce_or"/><s:alias val="$reduce_bool"/><path d="M0,0 A30 25 0 0 1 0,25 A30 25 0 0 0 30,12.5 A30 25 0 0 0 0,0" class="cell_\17"/><g s:x="2" s:y="5" s:pid="A"/><g s:x="2" s:y="20" s:pid="B"/><g s:x="30" s:y="12.5" s:pid="Y"/></g><g s:type="mux" transform="translate(483.6666666666667,295.5)" s:width="20" s:height="40" id="cell_\18"><s:alias val="$pmux"/><s:alias val="$mux"/><s:alias val="$_MUX_"/><path d="M0,0 L20,10 L20,30 L0,40 Z" class="cell_\18"/><text x="5" y="32" class="nodelabel cell_\18" s:attribute="">1</text><text x="5" y="13" class="nodelabel cell_\18" s:attribute="">0</text><g s:x="0" s:y="10" s:pid="A"/><g s:x="0" s:y="30" s:pid="B"/><g s:x="10" s:y="35" s:pid="S"/><g s:x="20" s:y="20" s:pid="Y"/></g><g s:type="sub" transform="translate(219,536)" s:width="25" s:height="25" id="cell_\21"><s:alias val="$sub"/><circle r="12.5" cx="12.5" cy="12.5" class="cell_\21"/><line x1="7.5" x2="17.5" y1="12.5" y2="12.5" class="cell_\21"/><g s:x="2" s:y="5" s:pid="A"/><g s:x="2" s:y="20" s:pid="B"/><g s:x="25" s:y="12.5" s:pid="Y"/></g><g s:type="lt" transform="translate(352,269.5)" s:width="25" s:height="25" id="cell_\23"><s:alias val="$lt"/><circle r="12.5" cx="12.5" cy="12.5" class="cell_\23"/><line x1="6" x2="17" y1="12" y2="7" class="cell_\23"/><line x1="6" x2="17" y1="12" y2="17" class="cell_\23"/><g s:x="2" s:y="5" s:pid="A"/><g s:x="2" s:y="20" s:pid="B"/><g s:x="25" s:y="12.5" s:pid="Y"/></g><g s:type="or" transform="translate(350.5,201)" s:width="30" s:height="25" id="cell_\25"><s:alias val="$or"/><s:alias val="$logic_or"/><s:alias val="$_OR_"/><s:alias val="$reduce_or"/><s:alias val="$reduce_bool"/><path d="M0,0 A30 25 0 0 1 0,25 A30 25 0 0 0 30,12.5 A30 25 0 0 0 0,0" class="cell_\25"/><g s:x="2" s:y="5" s:pid="A"/><g s:x="2" s:y="20" s:pid="B"/><g s:x="30" s:y="12.5" s:pid="Y"/></g><g s:type="and" transform="translate(416.3333333333333,262)" s:width="30" s:height="25" id="cell_\26"><s:alias val="$and"/><s:alias val="$logic_and"/><s:alias val="$_AND_"/><s:alias val="$reduce_and"/><path d="M0,0 L0,25 L15,25 A15 12.5 0 0 0 15,0 Z" class="cell_\26"/><g s:x="0" s:y="5" s:pid="A"/><g s:x="0" s:y="20" s:pid="B"/><g s:x="30" s:y="12.5" s:pid="Y"/></g><g s:type="mux" transform="translate(483.6666666666667,22)" s:width="20" s:height="40" id="cell_\29"><s:alias val="$pmux"/><s:alias val="$mux"/><s:alias val="$_MUX_"/><path d="M0,0 L20,10 L20,30 L0,40 Z" class="cell_\29"/><text x="5" y="32" class="nodelabel cell_\29" s:attribute="">1</text><text x="5" y="13" class="nodelabel cell_\29" s:attribute="">0</text><g s:x="0" s:y="10" s:pid="A"/><g s:x="0" s:y="30" s:pid="B"/><g s:x="10" s:y="35" s:pid="S"/><g s:x="20" s:y="20" s:pid="Y"/></g><g s:type="mux" transform="translate(553.6666666666666,32)" s:width="20" s:height="40" id="cell_\30"><s:alias val="$pmux"/><s:alias val="$mux"/><s:alias val="$_MUX_"/><path d="M0,0 L20,10 L20,30 L0,40 Z" class="cell_\30"/><text x="5" y="32" class="nodelabel cell_\30" s:attribute="">1</text><text x="5" y="13" class="nodelabel cell_\30" s:attribute="">0</text><g s:x="0" s:y="10" s:pid="A"/><g s:x="0" s:y="30" s:pid="B"/><g s:x="10" s:y="35" s:pid="S"/><g s:x="20" s:y="20" s:pid="Y"/></g><g s:type="mux" transform="translate(641.6666666666666,22)" s:width="20" s:height="40" id="cell_\31"><s:alias val="$pmux"/><s:alias val="$mux"/><s:alias val="$_MUX_"/><path d="M0,0 L20,10 L20,30 L0,40 Z" class="cell_\31"/><text x="5" y="32" class="nodelabel cell_\31" s:attribute="">1</text><text x="5" y="13" class="nodelabel cell_\31" s:attribute="">0</text><g s:x="0" s:y="10" s:pid="A"/><g s:x="0" s:y="30" s:pid="B"/><g s:x="10" s:y="35" s:pid="S"/><g s:x="20" s:y="20" s:pid="Y"/></g><g s:type="mux-bus" transform="translate(714,693)" s:width="24" s:height="40" id="cell_\32"><s:alias val="$pmux-bus"/><s:alias val="$mux-bus"/><s:alias val="$_MUX_-bus"/><path d="M0,0 L20,10 L20,30 L0,40 Z" class="cell_\32"/><path d="M4,2 L4,0 L22,9 L22,31 L4,40 L4,38" class="cell_\32"/><path d="M8,2 L8,0 L24,8 L24,32 L8,40 L8,38" class="cell_\32"/><text x="5" y="32" class="nodelabel cell_\32" s:attribute="">1</text><text x="5" y="13" class="nodelabel cell_\32" s:attribute="">0</text><g s:x="-1" s:y="10" s:pid="A"/><g s:x="-1" s:y="30" s:pid="B"/><g s:x="12" s:y="38" s:pid="S"/><g s:x="24.5" s:y="20" s:pid="Y"/></g><g s:type="and" transform="translate(635,510)" s:width="30" s:height="25" id="cell_\33"><s:alias val="$and"/><s:alias val="$logic_and"/><s:alias val="$_AND_"/><s:alias val="$reduce_and"/><path d="M0,0 L0,25 L15,25 A15 12.5 0 0 0 15,0 Z" class="cell_\33"/><g s:x="0" s:y="5" s:pid="A"/><g s:x="0" s:y="20" s:pid="B"/><g s:x="30" s:y="12.5" s:pid="Y"/></g><g s:type="mux" transform="translate(715.1666666666666,52)" s:width="20" s:height="40" id="cell_\35"><s:alias val="$pmux"/><s:alias val="$mux"/><s:alias val="$_MUX_"/><path d="M0,0 L20,10 L20,30 L0,40 Z" class="cell_\35"/><text x="5" y="32" class="nodelabel cell_\35" s:attribute="">1</text><text x="5" y="13" class="nodelabel cell_\35" s:attribute="">0</text><g s:x="0" s:y="10" s:pid="A"/><g s:x="0" s:y="30" s:pid="B"/><g s:x="10" s:y="35" s:pid="S"/><g s:x="20" s:y="20" s:pid="Y"/></g><g s:type="mux-bus" transform="translate(841.5,734)" s:width="24" s:height="40" id="cell_\37"><s:alias val="$pmux-bus"/><s:alias val="$mux-bus"/><s:alias val="$_MUX_-bus"/><path d="M0,0 L20,10 L20,30 L0,40 Z" class="cell_\37"/><path d="M4,2 L4,0 L22,9 L22,31 L4,40 L4,38" class="cell_\37"/><path d="M8,2 L8,0 L24,8 L24,32 L8,40 L8,38" class="cell_\37"/><text x="5" y="32" class="nodelabel cell_\37" s:attribute="">1</text><text x="5" y="13" class="nodelabel cell_\37" s:attribute="">0</text><g s:x="-1" s:y="10" s:pid="A"/><g s:x="-1" s:y="30" s:pid="B"/><g s:x="12" s:y="38" s:pid="S"/><g s:x="24.5" s:y="20" s:pid="Y"/></g><g s:type="mux-bus" transform="translate(841.5,419)" s:width="24" s:height="40" id="cell_\38"><s:alias val="$pmux-bus"/><s:alias val="$mux-bus"/><s:alias val="$_MUX_-bus"/><path d="M0,0 L20,10 L20,30 L0,40 Z" class="cell_\38"/><path d="M4,2 L4,0 L22,9 L22,31 L4,40 L4,38" class="cell_\38"/><path d="M8,2 L8,0 L24,8 L24,32 L8,40 L8,38" class="cell_\38"/><text x="5" y="32" class="nodelabel cell_\38" s:attribute="">1</text><text x="5" y="13" class="nodelabel cell_\38" s:attribute="">0</text><g s:x="-1" s:y="10" s:pid="A"/><g s:x="-1" s:y="30" s:pid="B"/><g s:x="12" s:y="38" s:pid="S"/><g s:x="24.5" s:y="20" s:pid="Y"/></g><g s:type="dff-bus" transform="translate(83,601)" s:width="34" s:height="44" id="cell_\43"><s:alias val="$dff-bus"/><s:alias val="$_DFF_-bus"/><s:alias val="$_DFF_P_-bus"/><s:alias val="adff-bus"/><s:alias val="$adff-bus"/><s:alias val="$_DFF_-bus"/><s:alias val="$_DFF_P_-bus"/><s:alias val="sdff-bus"/><s:alias val="$sdff-bus"/><s:alias val="$_DFF_-bus"/><s:alias val="$_DFF_P_-bus"/><rect width="30" height="40" x="0" y="0" class="cell_\43"/><path d="M0,35 L5,30 L0,25" class="cell_\43"/><path d="M30,2 L32,2 L32,42 L2,42 L2,40" class="cell_\43"/><path d="M32,4 L34,4 L34,44 L4,44 L4,42" class="cell_\43"/><g s:x="35" s:y="10" s:pid="Q"/><g s:x="-1" s:y="30" s:pid="CLK"/><g s:x="-1" s:y="30" s:pid="C"/><g s:x="-1" s:y="10" s:pid="D"/><g s:x="17" s:y="44" s:pid="ARST"/><g s:x="17" s:y="44" s:pid="SRST"/></g><g s:type="dff-bus" transform="translate(83,196)" s:width="34" s:height="44" id="cell_\44"><s:alias val="$dff-bus"/><s:alias val="$_DFF_-bus"/><s:alias val="$_DFF_P_-bus"/><s:alias val="adff-bus"/><s:alias val="$adff-bus"/><s:alias val="$_DFF_-bus"/><s:alias val="$_DFF_P_-bus"/><s:alias val="sdff-bus"/><s:alias val="$sdff-bus"/><s:alias val="$_DFF_-bus"/><s:alias val="$_DFF_P_-bus"/><rect width="30" height="40" x="0" y="0" class="cell_\44"/><path d="M0,35 L5,30 L0,25" class="cell_\44"/><path d="M30,2 L32,2 L32,42 L2,42 L2,40" class="cell_\44"/><path d="M32,4 L34,4 L34,44 L4,44 L4,42" class="cell_\44"/><g s:x="35" s:y="10" s:pid="Q"/><g s:x="-1" s:y="30" s:pid="CLK"/><g s:x="-1" s:y="30" s:pid="C"/><g s:x="-1" s:y="10" s:pid="D"/><g s:x="17" s:y="44" s:pid="ARST"/><g s:x="17" s:y="44" s:pid="SRST"/></g><g s:type="dff" transform="translate(774.5,72)" s:width="30" s:height="40" id="cell_\45"><s:alias val="$dff"/><s:alias val="$_DFF_"/><s:alias val="$_DFF_P_"/><s:alias val="$adff"/><s:alias val="$_DFF_"/><s:alias val="$_DFF_P_"/><s:alias val="$sdff"/><s:alias val="$_DFF_"/><s:alias val="$_DFF_P_"/><rect width="30" height="40" x="0" y="0" class="cell_\45"/><path d="M0,35 L5,30 L0,25" class="cell_\45"/><g s:x="31" s:y="10" s:pid="Q"/><g s:x="-1" s:y="30" s:pid="CLK"/><g s:x="-1" s:y="30" s:pid="C"/><g s:x="-1" s:y="10" s:pid="D"/><g s:x="15" s:y="40" s:pid="ARST"/><g s:x="15" s:y="40" s:pid="SRST"/></g><g s:type="eq" transform="translate(482,623)" s:width="25" s:height="25" id="cell_\7"><s:alias val="$eq"/><s:alias val="$eqx"/><circle r="12.5" cx="12.5" cy="12.5" class="cell_\7"/><line x1="7.5" x2="17.5" y1="10" y2="10" class="cell_\7"/><line x1="7.5" x2="17.5" y1="15" y2="15" class="cell_\7"/><g s:x="2" s:y="5" s:pid="A"/><g s:x="2" s:y="20" s:pid="B"/><g s:x="25" s:y="12.5" s:pid="Y"/></g><g s:type="add" transform="translate(418,684)" s:width="25" s:height="25" id="cell_\9"><s:alias val="$add"/><circle r="12.5" cx="12.5" cy="12.5" class="cell_\9"/><line x1="7.5" x2="17.5" y1="12.5" y2="12.5" class="cell_\9"/><line x1="12.5" x2="12.5" y1="7.5" y2="17.5" class="cell_\9"/><g s:x="2" s:y="5" s:pid="A"/><g s:x="2" s:y="20" s:pid="B"/><g s:x="26" s:y="12.5" s:pid="Y"/></g><g s:type="inputExt" transform="translate(12,216)" s:width="30" s:height="20" id="cell_i_clk"><text x="15" y="-4" class="nodelabel cell_i_clk" s:attribute="ref">i_clk</text><s:alias val="$_inputExt_"/><path d="M0,0 L0,20 L15,20 L30,10 L15,0 Z" class="cell_i_clk"/><g s:x="30" s:y="10" s:pid="Y"/></g><g s:type="inputExt" transform="translate(542,500)" s:width="30" s:height="20" id="cell_i_clk_ena"><text x="15" y="-4" class="nodelabel cell_i_clk_ena" s:attribute="ref">i_clk_ena</text><s:alias val="$_inputExt_"/><path d="M0,0 L0,20 L15,20 L30,10 L15,0 Z" class="cell_i_clk_ena"/><g s:x="30" s:y="10" s:pid="Y"/></g><g s:type="inputExt" transform="translate(631,580)" s:width="30" s:height="20" id="cell_i_reset"><text x="15" y="-4" class="nodelabel cell_i_reset" s:attribute="ref">i_reset</text><s:alias val="$_inputExt_"/><path d="M0,0 L0,20 L15,20 L30,10 L15,0 Z" class="cell_i_reset"/><g s:x="30" s:y="10" s:pid="Y"/></g><g s:type="inputExt" transform="translate(279,439)" s:width="30" s:height="20" id="cell_i_duty"><text x="15" y="-4" class="nodelabel cell_i_duty" s:attribute="ref">i_duty</text><s:alias val="$_inputExt_"/><path d="M0,0 L0,20 L15,20 L30,10 L15,0 Z" class="cell_i_duty"/><g s:x="30" s:y="10" s:pid="Y"/></g><g s:type="outputExt" transform="translate(840.5,72)" s:width="30" s:height="20" id="cell_o_pwm"><text x="15" y="-4" class="nodelabel cell_o_pwm" s:attribute="ref">o_pwm</text><s:alias val="$_outputExt_"/><path d="M30,0 L30,20 L15,20 L0,10 L15,0 Z" class="cell_o_pwm"/><g s:x="0" s:y="10" s:pid="A"/></g><g s:type="constant" transform="translate(416,754)" s:width="30" s:height="20" id="cell_00"><text x="15" y="-4" class="nodelabel cell_00" s:attribute="ref">00</text><s:alias val="$_constant_"/><rect width="30" height="20" class="cell_00"/><g s:x="31" s:y="10" s:pid="Y"/></g><g s:type="constant" transform="translate(350,552)" s:width="30" s:height="20" id="cell_11"><text x="15" y="-4" class="nodelabel cell_11" s:attribute="ref">11</text><s:alias val="$_constant_"/><rect width="30" height="20" class="cell_11"/><g s:x="31" s:y="10" s:pid="Y"/></g><g s:type="constant" transform="translate(153,175)" s:width="30" s:height="20" id="cell_0"><text x="15" y="-4" class="nodelabel cell_0" s:attribute="ref">0</text><s:alias val="$_constant_"/><rect width="30" height="20" class="cell_0"/><g s:x="31" s:y="10" s:pid="Y"/></g><g s:type="constant" transform="translate(416,123)" s:width="30" s:height="20" id="cell_1"><text x="15" y="-4" class="nodelabel cell_1" s:attribute="ref">1</text><s:alias val="$_constant_"/><rect width="30" height="20" class="cell_1"/><g s:x="31" s:y="10" s:pid="Y"/></g><g s:type="constant" transform="translate(87,546)" s:width="30" s:height="20" id="cell_001"><text x="15" y="-4" class="nodelabel cell_001" s:attribute="ref">001</text><s:alias val="$_constant_"/><rect width="30" height="20" class="cell_001"/><g s:x="31" s:y="10" s:pid="Y"/></g><g s:type="constant" transform="translate(279,694)" s:width="30" s:height="20" id="cell_01"><text x="15" y="-4" class="nodelabel cell_01" s:attribute="ref">01</text><s:alias val="$_constant_"/><rect width="30" height="20" class="cell_01"/><g s:x="31" s:y="10" s:pid="Y"/></g><g s:type="join" transform="translate(238,249)" s:width="4" s:height="40" id="cell_$join$,21,22,47,"><rect width="5" height="40" class="splitjoinBody" s:generic="body"/><s:alias val="$_join_"/><g s:x="5" s:y="20" s:pid="out"/><g transform="translate(0,10)" s:x="0" s:y="10" s:pid="in0"><text x="-3" y="-4" class="inputPortLabel">0:1</text></g><g transform="translate(0,30)" s:x="0" s:y="10" s:pid="in0"><text x="-3" y="-4" class="inputPortLabel">2</text></g></g><line x1="444" x2="517" y1="696.5" y2="696.5" class="net_9,10 width_2" style="stroke-width: 2"/><line x1="517" x2="517" y1="696.5" y2="713" class="net_9,10 width_2" style="stroke-width: 2"/><line x1="517" x2="551.3333333333334" y1="713" y2="713" class="net_9,10 width_2" style="stroke-width: 2"/><line x1="447" x2="457" y1="764" y2="764" class="net_43,44 width_2" style="stroke-width: 2"/><line x1="457" x2="457" y1="764" y2="733" class="net_43,44 width_2" style="stroke-width: 2"/><circle cx="457" cy="764" r="3" style="fill:#000" class="net_43,44 width_2"/><line x1="457" x2="551.3333333333334" y1="733" y2="733" class="net_43,44 width_2" style="stroke-width: 2"/><line x1="447" x2="840.5" y1="764" y2="764" class="net_43,44 width_2" style="stroke-width: 2"/><line x1="507" x2="527" y1="635.5" y2="635.5" class="net_11 width_1" style="stroke-width: 1"/><line x1="527" x2="527" y1="635.5" y2="753" class="net_11 width_1" style="stroke-width: 1"/><line x1="527" x2="564.3333333333334" y1="753" y2="753" class="net_11 width_1" style="stroke-width: 1"/><circle cx="527" cy="635.5" r="2" style="fill:#000" class="net_11 width_1"/><line x1="564.3333333333334" x2="564.3333333333334" y1="753" y2="741" class="net_11 width_1" style="stroke-width: 1"/><line x1="507" x2="527" y1="635.5" y2="635.5" class="net_11 width_1" style="stroke-width: 1"/><line x1="527" x2="527" y1="635.5" y2="530" class="net_11 width_1" style="stroke-width: 1"/><line x1="527" x2="635" y1="530" y2="530" class="net_11 width_1" style="stroke-width: 1"/><line x1="118" x2="138" y1="206" y2="206" class="net_14,15,16 width_3" style="stroke-width: 2"/><line x1="138" x2="138" y1="206" y2="154" class="net_14,15,16 width_3" style="stroke-width: 2"/><line x1="138" x2="703" y1="154" y2="154" class="net_14,15,16 width_3" style="stroke-width: 2"/><line x1="703" x2="703" y1="154" y2="408" class="net_14,15,16 width_3" style="stroke-width: 2"/><circle cx="138" cy="206" r="3" style="fill:#000" class="net_14,15,16 width_3"/><line x1="703" x2="713" y1="408" y2="408" class="net_14,15,16 width_3" style="stroke-width: 2"/><line x1="118" x2="138" y1="206" y2="206" class="net_14,15,16 width_3" style="stroke-width: 2"/><line x1="138" x2="138" y1="206" y2="536" class="net_14,15,16 width_3" style="stroke-width: 2"/><line x1="138" x2="194" y1="536" y2="536" class="net_14,15,16 width_3" style="stroke-width: 2"/><line x1="194" x2="194" y1="536" y2="541" class="net_14,15,16 width_3" style="stroke-width: 2"/><line x1="194" x2="221" y1="541" y2="541" class="net_14,15,16 width_3" style="stroke-width: 2"/><line x1="118" x2="352.5" y1="206" y2="206" class="net_14,15,16 width_3" style="stroke-width: 2"/><line x1="309" x2="457" y1="449" y2="449" class="net_5,6,7 width_3" style="stroke-width: 2"/><line x1="457" x2="457" y1="449" y2="428" class="net_5,6,7 width_3" style="stroke-width: 2"/><circle cx="457" cy="449" r="3" style="fill:#000" class="net_5,6,7 width_3"/><line x1="457" x2="713" y1="428" y2="428" class="net_5,6,7 width_3" style="stroke-width: 2"/><line x1="309" x2="325" y1="449" y2="449" class="net_5,6,7 width_3" style="stroke-width: 2"/><line x1="325" x2="325" y1="449" y2="338" class="net_5,6,7 width_3" style="stroke-width: 2"/><circle cx="325" cy="449" r="3" style="fill:#000" class="net_5,6,7 width_3"/><line x1="325" x2="418.5" y1="338" y2="338" class="net_5,6,7 width_3" style="stroke-width: 2"/><line x1="309" x2="840.5" y1="449" y2="449" class="net_5,6,7 width_3" style="stroke-width: 2"/><line x1="665" x2="726" y1="522.5" y2="522.5" class="net_17 width_1" style="stroke-width: 1"/><line x1="726" x2="726" y1="522.5" y2="436" class="net_17 width_1" style="stroke-width: 1"/><line x1="118" x2="264" y1="611" y2="611" class="net_21,22 width_2" style="stroke-width: 2"/><line x1="264" x2="264" y1="611" y2="369" class="net_21,22 width_2" style="stroke-width: 2"/><circle cx="264" cy="611" r="3" style="fill:#000" class="net_21,22 width_2"/><line x1="264" x2="484" y1="369" y2="369" class="net_21,22 width_2" style="stroke-width: 2"/><line x1="118" x2="683" y1="611" y2="611" class="net_21,22 width_2" style="stroke-width: 2"/><line x1="683" x2="683" y1="611" y2="703" class="net_21,22 width_2" style="stroke-width: 2"/><line x1="683" x2="713" y1="703" y2="703" class="net_21,22 width_2" style="stroke-width: 2"/><line x1="118" x2="264" y1="611" y2="611" class="net_21,22 width_2" style="stroke-width: 2"/><line x1="264" x2="264" y1="611" y2="628" class="net_21,22 width_2" style="stroke-width: 2"/><line x1="264" x2="484" y1="628" y2="628" class="net_21,22 width_2" style="stroke-width: 2"/><line x1="118" x2="194" y1="611" y2="611" class="net_21,22 width_2" style="stroke-width: 2"/><line x1="194" x2="194" y1="611" y2="673" class="net_21,22 width_2" style="stroke-width: 2"/><line x1="194" x2="391" y1="673" y2="673" class="net_21,22 width_2" style="stroke-width: 2"/><line x1="391" x2="391" y1="673" y2="689" class="net_21,22 width_2" style="stroke-width: 2"/><circle cx="194" cy="611" r="3" style="fill:#000" class="net_21,22 width_2"/><line x1="391" x2="420" y1="689" y2="689" class="net_21,22 width_2" style="stroke-width: 2"/><line x1="118" x2="128" y1="611" y2="611" class="net_21,22 width_2" style="stroke-width: 2"/><line x1="128" x2="128" y1="611" y2="259.5" class="net_21,22 width_2" style="stroke-width: 2"/><circle cx="128" cy="611" r="3" style="fill:#000" class="net_21,22 width_2"/><line x1="128" x2="238" y1="259.5" y2="259.5" class="net_21,22 width_2" style="stroke-width: 2"/><line x1="381" x2="391" y1="562" y2="562" class="net_45,46 width_2" style="stroke-width: 2"/><line x1="391" x2="391" y1="562" y2="384" class="net_45,46 width_2" style="stroke-width: 2"/><circle cx="391" cy="562" r="3" style="fill:#000" class="net_45,46 width_2"/><line x1="391" x2="484" y1="384" y2="384" class="net_45,46 width_2" style="stroke-width: 2"/><line x1="381" x2="391" y1="562" y2="562" class="net_45,46 width_2" style="stroke-width: 2"/><line x1="391" x2="391" y1="562" y2="643" class="net_45,46 width_2" style="stroke-width: 2"/><line x1="391" x2="484" y1="643" y2="643" class="net_45,46 width_2" style="stroke-width: 2"/><line x1="184" x2="194" y1="185" y2="185" class="net_47 width_1" style="stroke-width: 1"/><line x1="194" x2="194" y1="185" y2="305.5" class="net_47 width_1" style="stroke-width: 1"/><circle cx="194" cy="185" r="2" style="fill:#000" class="net_47 width_1"/><line x1="194" x2="483.6666666666667" y1="305.5" y2="305.5" class="net_47 width_1" style="stroke-width: 1"/><line x1="184" x2="194" y1="185" y2="185" class="net_47 width_1" style="stroke-width: 1"/><line x1="194" x2="194" y1="185" y2="82" class="net_47 width_1" style="stroke-width: 1"/><line x1="194" x2="457" y1="82" y2="82" class="net_47 width_1" style="stroke-width: 1"/><line x1="457" x2="457" y1="82" y2="32" class="net_47 width_1" style="stroke-width: 1"/><circle cx="457" cy="82" r="2" style="fill:#000" class="net_47 width_1"/><line x1="457" x2="483.6666666666667" y1="32" y2="32" class="net_47 width_1" style="stroke-width: 1"/><line x1="184" x2="194" y1="185" y2="185" class="net_47 width_1" style="stroke-width: 1"/><line x1="194" x2="194" y1="185" y2="82" class="net_47 width_1" style="stroke-width: 1"/><line x1="194" x2="715.1666666666666" y1="82" y2="82" class="net_47 width_1" style="stroke-width: 1"/><line x1="184" x2="194" y1="185" y2="185" class="net_47 width_1" style="stroke-width: 1"/><line x1="194" x2="194" y1="185" y2="279.5" class="net_47 width_1" style="stroke-width: 1"/><circle cx="194" cy="279.5" r="2" style="fill:#000" class="net_47 width_1"/><line x1="194" x2="238" y1="279.5" y2="279.5" class="net_47 width_1" style="stroke-width: 1"/><line x1="447" x2="467" y1="133" y2="133" class="net_48 width_1" style="stroke-width: 1"/><line x1="467" x2="467" y1="133" y2="325.5" class="net_48 width_1" style="stroke-width: 1"/><circle cx="467" cy="133" r="2" style="fill:#000" class="net_48 width_1"/><line x1="467" x2="483.6666666666667" y1="325.5" y2="325.5" class="net_48 width_1" style="stroke-width: 1"/><line x1="447" x2="467" y1="133" y2="133" class="net_48 width_1" style="stroke-width: 1"/><line x1="467" x2="467" y1="133" y2="52" class="net_48 width_1" style="stroke-width: 1"/><line x1="467" x2="483.6666666666667" y1="52" y2="52" class="net_48 width_1" style="stroke-width: 1"/><line x1="446.5" x2="493.6666666666667" y1="345.5" y2="345.5" class="net_24 width_1" style="stroke-width: 1"/><line x1="493.6666666666667" x2="493.6666666666667" y1="345.5" y2="330.5" class="net_24 width_1" style="stroke-width: 1"/><line x1="118" x2="221" y1="556" y2="556" class="net_49,50,51 width_3" style="stroke-width: 2"/><line x1="244" x2="325" y1="269.5" y2="269.5" class="net_21,22,47 width_3" style="stroke-width: 2"/><line x1="325" x2="325" y1="269.5" y2="274.5" class="net_21,22,47 width_3" style="stroke-width: 2"/><line x1="325" x2="354" y1="274.5" y2="274.5" class="net_21,22,47 width_3" style="stroke-width: 2"/><line x1="244" x2="254" y1="548.5" y2="548.5" class="net_26,27,28 width_3" style="stroke-width: 2"/><line x1="254" x2="254" y1="548.5" y2="289.5" class="net_26,27,28 width_3" style="stroke-width: 2"/><line x1="254" x2="354" y1="289.5" y2="289.5" class="net_26,27,28 width_3" style="stroke-width: 2"/><line x1="380.5" x2="391" y1="213.5" y2="213.5" class="net_30 width_1" style="stroke-width: 1"/><line x1="391" x2="391" y1="213.5" y2="267" class="net_30 width_1" style="stroke-width: 1"/><line x1="391" x2="416.3333333333333" y1="267" y2="267" class="net_30 width_1" style="stroke-width: 1"/><line x1="377" x2="416.3333333333333" y1="282" y2="282" class="net_29 width_1" style="stroke-width: 1"/><line x1="446.3333333333333" x2="493.6666666666667" y1="274.5" y2="274.5" class="net_31 width_1" style="stroke-width: 1"/><line x1="493.6666666666667" x2="493.6666666666667" y1="274.5" y2="57" class="net_31 width_1" style="stroke-width: 1"/><line x1="503.6666666666667" x2="553.6666666666666" y1="42" y2="42" class="net_32 width_1" style="stroke-width: 1"/><line x1="503.6666666666667" x2="517" y1="315.5" y2="315.5" class="net_25 width_1" style="stroke-width: 1"/><line x1="517" x2="517" y1="315.5" y2="62" class="net_25 width_1" style="stroke-width: 1"/><line x1="517" x2="553.6666666666666" y1="62" y2="62" class="net_25 width_1" style="stroke-width: 1"/><line x1="507" x2="563.6666666666666" y1="376.5" y2="376.5" class="net_23 width_1" style="stroke-width: 1"/><line x1="563.6666666666666" x2="563.6666666666666" y1="376.5" y2="67" class="net_23 width_1" style="stroke-width: 1"/><line x1="805.5" x2="815.5" y1="82" y2="82" class="net_8 width_1" style="stroke-width: 1"/><line x1="815.5" x2="815.5" y1="82" y2="12" class="net_8 width_1" style="stroke-width: 1"/><line x1="815.5" x2="606" y1="12" y2="12" class="net_8 width_1" style="stroke-width: 1"/><line x1="606" x2="606" y1="12" y2="32" class="net_8 width_1" style="stroke-width: 1"/><circle cx="815.5" cy="82" r="2" style="fill:#000" class="net_8 width_1"/><line x1="606" x2="641.6666666666666" y1="32" y2="32" class="net_8 width_1" style="stroke-width: 1"/><line x1="805.5" x2="840.5" y1="82" y2="82" class="net_8 width_1" style="stroke-width: 1"/><line x1="573.6666666666666" x2="641.6666666666666" y1="52" y2="52" class="net_33 width_1" style="stroke-width: 1"/><line x1="572" x2="606" y1="510" y2="510" class="net_3 width_1" style="stroke-width: 1"/><line x1="606" x2="606" y1="510" y2="417" class="net_3 width_1" style="stroke-width: 1"/><line x1="606" x2="651.6666666666666" y1="417" y2="417" class="net_3 width_1" style="stroke-width: 1"/><circle cx="606" cy="510" r="2" style="fill:#000" class="net_3 width_1"/><line x1="651.6666666666666" x2="651.6666666666666" y1="417" y2="57" class="net_3 width_1" style="stroke-width: 1"/><line x1="572" x2="606" y1="510" y2="510" class="net_3 width_1" style="stroke-width: 1"/><line x1="606" x2="606" y1="510" y2="749" class="net_3 width_1" style="stroke-width: 1"/><line x1="606" x2="726" y1="749" y2="749" class="net_3 width_1" style="stroke-width: 1"/><line x1="726" x2="726" y1="749" y2="731" class="net_3 width_1" style="stroke-width: 1"/><line x1="572" x2="606" y1="510" y2="510" class="net_3 width_1" style="stroke-width: 1"/><line x1="606" x2="606" y1="510" y2="515" class="net_3 width_1" style="stroke-width: 1"/><circle cx="606" cy="515" r="2" style="fill:#000" class="net_3 width_1"/><line x1="606" x2="635" y1="515" y2="515" class="net_3 width_1" style="stroke-width: 1"/><line x1="576.8333333333334" x2="713" y1="723" y2="723" class="net_12,13 width_2" style="stroke-width: 2"/><line x1="661.6666666666666" x2="683" y1="42" y2="42" class="net_34 width_1" style="stroke-width: 1"/><line x1="683" x2="683" y1="42" y2="62" class="net_34 width_1" style="stroke-width: 1"/><line x1="683" x2="715.1666666666666" y1="62" y2="62" class="net_34 width_1" style="stroke-width: 1"/><line x1="661" x2="693" y1="590" y2="590" class="net_4 width_1" style="stroke-width: 1"/><line x1="693" x2="693" y1="590" y2="388" class="net_4 width_1" style="stroke-width: 1"/><line x1="693" x2="725.1666666666666" y1="388" y2="388" class="net_4 width_1" style="stroke-width: 1"/><circle cx="693" cy="590" r="2" style="fill:#000" class="net_4 width_1"/><line x1="725.1666666666666" x2="725.1666666666666" y1="388" y2="87" class="net_4 width_1" style="stroke-width: 1"/><line x1="661" x2="693" y1="590" y2="590" class="net_4 width_1" style="stroke-width: 1"/><line x1="693" x2="693" y1="590" y2="784" class="net_4 width_1" style="stroke-width: 1"/><line x1="693" x2="853.5" y1="784" y2="784" class="net_4 width_1" style="stroke-width: 1"/><line x1="853.5" x2="853.5" y1="784" y2="772" class="net_4 width_1" style="stroke-width: 1"/><line x1="661" x2="853.5" y1="590" y2="590" class="net_4 width_1" style="stroke-width: 1"/><line x1="853.5" x2="853.5" y1="590" y2="457" class="net_4 width_1" style="stroke-width: 1"/><line x1="738.5" x2="815.5" y1="713" y2="713" class="net_35,36 width_2" style="stroke-width: 2"/><line x1="815.5" x2="815.5" y1="713" y2="744" class="net_35,36 width_2" style="stroke-width: 2"/><line x1="815.5" x2="840.5" y1="744" y2="744" class="net_35,36 width_2" style="stroke-width: 2"/><line x1="738.5" x2="815.5" y1="418" y2="418" class="net_18,19,20 width_3" style="stroke-width: 2"/><line x1="815.5" x2="815.5" y1="418" y2="429" class="net_18,19,20 width_3" style="stroke-width: 2"/><line x1="815.5" x2="840.5" y1="429" y2="429" class="net_18,19,20 width_3" style="stroke-width: 2"/><line x1="42" x2="72" y1="226" y2="226" class="net_2 width_1" style="stroke-width: 1"/><line x1="72" x2="72" y1="226" y2="631" class="net_2 width_1" style="stroke-width: 1"/><circle cx="72" cy="226" r="2" style="fill:#000" class="net_2 width_1"/><line x1="72" x2="82" y1="631" y2="631" class="net_2 width_1" style="stroke-width: 1"/><line x1="42" x2="82" y1="226" y2="226" class="net_2 width_1" style="stroke-width: 1"/><line x1="42" x2="72" y1="226" y2="226" class="net_2 width_1" style="stroke-width: 1"/><line x1="72" x2="72" y1="226" y2="102" class="net_2 width_1" style="stroke-width: 1"/><line x1="72" x2="773.5" y1="102" y2="102" class="net_2 width_1" style="stroke-width: 1"/><line x1="866" x2="880.5" y1="754" y2="754" class="net_38,39 width_2" style="stroke-width: 2"/><line x1="880.5" x2="880.5" y1="754" y2="813" class="net_38,39 width_2" style="stroke-width: 2"/><line x1="880.5" x2="62" y1="813" y2="813" class="net_38,39 width_2" style="stroke-width: 2"/><line x1="62" x2="62" y1="813" y2="611" class="net_38,39 width_2" style="stroke-width: 2"/><line x1="62" x2="82" y1="611" y2="611" class="net_38,39 width_2" style="stroke-width: 2"/><line x1="866" x2="890.5" y1="439" y2="439" class="net_40,41,42 width_3" style="stroke-width: 2"/><line x1="890.5" x2="890.5" y1="439" y2="833" class="net_40,41,42 width_3" style="stroke-width: 2"/><line x1="890.5" x2="52" y1="833" y2="833" class="net_40,41,42 width_3" style="stroke-width: 2"/><line x1="52" x2="52" y1="833" y2="206" class="net_40,41,42 width_3" style="stroke-width: 2"/><line x1="52" x2="82" y1="206" y2="206" class="net_40,41,42 width_3" style="stroke-width: 2"/><line x1="735.1666666666666" x2="748.5" y1="72" y2="72" class="net_37 width_1" style="stroke-width: 1"/><line x1="748.5" x2="748.5" y1="72" y2="82" class="net_37 width_1" style="stroke-width: 1"/><line x1="748.5" x2="773.5" y1="82" y2="82" class="net_37 width_1" style="stroke-width: 1"/><line x1="310" x2="420" y1="704" y2="704" class="net_60,61 width_2" style="stroke-width: 2"/><rect x="493.5" y="691.5" width="16" height="9" class="net_9,10 width_2 busLabel_2" style="fill: white; stroke: none"/><text x="492.5" y="699.5" class="net_9,10 width_2 busLabel_2">/2/</text><rect x="651" y="759" width="16" height="9" class="net_43,44 width_2 busLabel_2" style="fill: white; stroke: none"/><text x="650" y="767" class="net_43,44 width_2 busLabel_2">/2/</text><rect x="651" y="759" width="16" height="9" class="net_43,44 width_2 busLabel_2" style="fill: white; stroke: none"/><text x="650" y="767" class="net_43,44 width_2 busLabel_2">/2/</text><rect x="230.5" y="201" width="16" height="9" class="net_14,15,16 width_3 busLabel_3" style="fill: white; stroke: none"/><text x="229.5" y="209" class="net_14,15,16 width_3 busLabel_3">/3/</text><rect x="230.5" y="201" width="16" height="9" class="net_14,15,16 width_3 busLabel_3" style="fill: white; stroke: none"/><text x="229.5" y="209" class="net_14,15,16 width_3 busLabel_3">/3/</text><rect x="230.5" y="201" width="16" height="9" class="net_14,15,16 width_3 busLabel_3" style="fill: white; stroke: none"/><text x="229.5" y="209" class="net_14,15,16 width_3 busLabel_3">/3/</text><rect x="568" y="444" width="16" height="9" class="net_5,6,7 width_3 busLabel_3" style="fill: white; stroke: none"/><text x="567" y="452" class="net_5,6,7 width_3 busLabel_3">/3/</text><rect x="568" y="444" width="16" height="9" class="net_5,6,7 width_3 busLabel_3" style="fill: white; stroke: none"/><text x="567" y="452" class="net_5,6,7 width_3 busLabel_3">/3/</text><rect x="568" y="444" width="16" height="9" class="net_5,6,7 width_3 busLabel_3" style="fill: white; stroke: none"/><text x="567" y="452" class="net_5,6,7 width_3 busLabel_3">/3/</text><rect x="167.5" y="254.5" width="16" height="9" class="net_21,22 width_2 busLabel_2" style="fill: white; stroke: none"/><text x="166.5" y="262.5" class="net_21,22 width_2 busLabel_2">/2/</text><rect x="167.5" y="254.5" width="16" height="9" class="net_21,22 width_2 busLabel_2" style="fill: white; stroke: none"/><text x="166.5" y="262.5" class="net_21,22 width_2 busLabel_2">/2/</text><rect x="167.5" y="254.5" width="16" height="9" class="net_21,22 width_2 busLabel_2" style="fill: white; stroke: none"/><text x="166.5" y="262.5" class="net_21,22 width_2 busLabel_2">/2/</text><rect x="167.5" y="254.5" width="16" height="9" class="net_21,22 width_2 busLabel_2" style="fill: white; stroke: none"/><text x="166.5" y="262.5" class="net_21,22 width_2 busLabel_2">/2/</text><rect x="167.5" y="254.5" width="16" height="9" class="net_21,22 width_2 busLabel_2" style="fill: white; stroke: none"/><text x="166.5" y="262.5" class="net_21,22 width_2 busLabel_2">/2/</text><rect x="430.5" y="638" width="16" height="9" class="net_45,46 width_2 busLabel_2" style="fill: white; stroke: none"/><text x="429.5" y="646" class="net_45,46 width_2 busLabel_2">/2/</text><rect x="430.5" y="638" width="16" height="9" class="net_45,46 width_2 busLabel_2" style="fill: white; stroke: none"/><text x="429.5" y="646" class="net_45,46 width_2 busLabel_2">/2/</text><rect x="167.5" y="551" width="16" height="9" class="net_49,50,51 width_3 busLabel_3" style="fill: white; stroke: none"/><text x="166.5" y="559" class="net_49,50,51 width_3 busLabel_3">/3/</text><rect x="296" y="264.5" width="16" height="9" class="net_21,22,47 width_3 busLabel_3" style="fill: white; stroke: none"/><text x="295" y="272.5" class="net_21,22,47 width_3 busLabel_3">/3/</text><rect x="296" y="284.5" width="16" height="9" class="net_26,27,28 width_3 busLabel_3" style="fill: white; stroke: none"/><text x="295" y="292.5" class="net_26,27,28 width_3 busLabel_3">/3/</text><rect x="651" y="718" width="16" height="9" class="net_12,13 width_2 busLabel_2" style="fill: white; stroke: none"/><text x="650" y="726" class="net_12,13 width_2 busLabel_2">/2/</text><rect x="788.5" y="708" width="16" height="9" class="net_35,36 width_2 busLabel_2" style="fill: white; stroke: none"/><text x="787.5" y="716" class="net_35,36 width_2 busLabel_2">/2/</text><rect x="788.5" y="413" width="16" height="9" class="net_18,19,20 width_3 busLabel_3" style="fill: white; stroke: none"/><text x="787.5" y="421" class="net_18,19,20 width_3 busLabel_3">/3/</text><rect x="430.5" y="808" width="16" height="9" class="net_38,39 width_2 busLabel_2" style="fill: white; stroke: none"/><text x="429.5" y="816" class="net_38,39 width_2 busLabel_2">/2/</text><rect x="430.5" y="828" width="16" height="9" class="net_40,41,42 width_3 busLabel_3" style="fill: white; stroke: none"/><text x="429.5" y="836" class="net_40,41,42 width_3 busLabel_3">/3/</text><rect x="364.5" y="699" width="16" height="9" class="net_60,61 width_2 busLabel_2" style="fill: white; stroke: none"/><text x="363.5" y="707" class="net_60,61 width_2 busLabel_2">/2/</text></svg>