<svg xmlns="http://www.w3.org/2000/svg" xmlns:xlink="http://www.w3.org/1999/xlink" xmlns:s="https://github.com/nturley/netlistsvg" width="908.5" height="701"><rect width="100%" height="100%" fill="white"/><style>svg {
  stroke:#000;
  fill:none;
}
text {
  fill:#000;
  stroke:none;
  font-size:10px;
  font-weight: bold;
  font-family: "Courier New", monospace;
}
line {
    stroke-linecap: round;
}
.nodelabel {
  text-anchor: middle;
}
.inputPortLabel {
  text-anchor: end;
}
.splitjoinBody {
  fill:#000;
}</style><g s:type="mux-bus" transform="translate(563.3333333333334,607)" s:width="24" s:height="40" id="cell_\11"><s:alias val="$pmux-bus"/><s:alias val="$mux-bus"/><s:alias val="$_MUX_-bus"/><path d="M0,0 L20,10 L20,30 L0,40 Z" class="cell_\11"/><path d="M4,2 L4,0 L22,9 L22,31 L4,40 L4,38" class="cell_\11"/><path d="M8,2 L8,0 L24,8 L24,32 L8,40 L8,38" class="cell_\11"/><text x="5" y="32" class="nodelabel cell_\11" s:attribute="">1</text><text x="5" y="13" class="nodelabel cell_\11" s:attribute="">0</text><g s:x="-1" s:y="10" s:pid="A"/><g s:x="-1" s:y="30" s:pid="B"/><g s:x="12" s:y="38" s:pid="S"/><g s:x="24.5" s:y="20" s:pid="Y"/></g><g s:type="mux-bus" transform="translate(720,331.5)" s:width="24" s:height="40" id="cell_\12"><s:alias val="$pmux-bus"/><s:alias val="$mux-bus"/><s:alias val="$_MUX_-bus"/><path d="M0,0 L20,10 L20,30 L0,40 Z" class="cell_\12"/><path d="M4,2 L4,0 L22,9 L22,31 L4,40 L4,38" class="cell_\12"/><path d="M8,2 L8,0 L24,8 L24,32 L8,40 L8,38" class="cell_\12"/><text x="5" y="32" class="nodelabel cell_\12" s:attribute="">1</text><text x="5" y="13" class="nodelabel cell_\12" s:attribute="">0</text><g s:x="-1" s:y="10" s:pid="A"/><g s:x="-1" s:y="30" s:pid="B"/><g s:x="12" s:y="38" s:pid="S"/><g s:x="24.5" s:y="20" s:pid="Y"/></g><g s:type="eq" transform="translate(493,506)" s:width="25" s:height="25" id="cell_\14"><s:alias val="$eq"/><s:alias val="$eqx"/><circle r="12.5" cx="12.5" cy="12.5" class="cell_\14"/><line x1="7.5" x2="17.5" y1="10" y2="10" class="cell_\14"/><line x1="7.5" x2="17.5" y1="15" y2="15" class="cell_\14"/><g s:x="2" s:y="5" s:pid="A"/><g s:x="2" s:y="20" s:pid="B"/><g s:x="25" s:y="12.5" s:pid="Y"/></g><g s:type="or" transform="translate(427.5,393.5)" s:width="30" s:height="25" id="cell_\17"><s:alias val="$or"/><s:alias val="$logic_or"/><s:alias val="$_OR_"/><s:alias val="$reduce_or"/><s:alias val="$reduce_bool"/><path d="M0,0 A30 25 0 0 1 0,25 A30 25 0 0 0 30,12.5 A30 25 0 0 0 0,0" class="cell_\17"/><g s:x="2" s:y="5" s:pid="A"/><g s:x="2" s:y="20" s:pid="B"/><g s:x="30" s:y="12.5" s:pid="Y"/></g><g s:type="mux" transform="translate(494.6666666666667,204.5)" s:width="20" s:height="40" id="cell_\18"><s:alias val="$pmux"/><s:alias val="$mux"/><s:alias val="$_MUX_"/><path d="M0,0 L20,10 L20,30 L0,40 Z" class="cell_\18"/><text x="5" y="32" class="nodelabel cell_\18" s:attribute="">1</text><text x="5" y="13" class="nodelabel cell_\18" s:attribute="">0</text><g s:x="0" s:y="10" s:pid="A"/><g s:x="0" s:y="30" s:pid="B"/><g s:x="10" s:y="35" s:pid="S"/><g s:x="20" s:y="20" s:pid="Y"/></g><g s:type="sub" transform="translate(223,168.5)" s:width="25" s:height="25" id="cell_\21"><s:alias val="$sub"/><circle r="12.5" cx="12.5" cy="12.5" class="cell_\21"/><line x1="7.5" x2="17.5" y1="12.5" y2="12.5" class="cell_\21"/><g s:x="2" s:y="5" s:pid="A"/><g s:x="2" s:y="20" s:pid="B"/><g s:x="25" s:y="12.5" s:pid="Y"/></g><g s:type="lt" transform="translate(363,161)" s:width="25" s:height="25" id="cell_\23"><s:alias val="$lt"/><circle r="12.5" cx="12.5" cy="12.5" class="cell_\23"/><line x1="6" x2="17" y1="12" y2="7" class="cell_\23"/><line x1="6" x2="17" y1="12" y2="17" class="cell_\23"/><g s:x="2" s:y="5" s:pid="A"/><g s:x="2" s:y="20" s:pid="B"/><g s:x="25" s:y="12.5" s:pid="Y"/></g><g s:type="or" transform="translate(361.5,101)" s:width="30" s:height="25" id="cell_\25"><s:alias val="$or"/><s:alias val="$logic_or"/><s:alias val="$_OR_"/><s:alias val="$reduce_or"/><s:alias val="$reduce_bool"/><path d="M0,0 A30 25 0 0 1 0,25 A30 25 0 0 0 30,12.5 A30 25 0 0 0 0,0" class="cell_\25"/><g s:x="2" s:y="5" s:pid="A"/><g s:x="2" s:y="20" s:pid="B"/><g s:x="30" s:y="12.5" s:pid="Y"/></g><g s:type="and" transform="translate(427.3333333333333,153.5)" s:width="30" s:height="25" id="cell_\26"><s:alias val="$and"/><s:alias val="$logic_and"/><s:alias val="$_AND_"/><s:alias val="$reduce_and"/><path d="M0,0 L0,25 L15,25 A15 12.5 0 0 0 15,0 Z" class="cell_\26"/><g s:x="0" s:y="5" s:pid="A"/><g s:x="0" s:y="20" s:pid="B"/><g s:x="30" s:y="12.5" s:pid="Y"/></g><g s:type="mux" transform="translate(494.6666666666667,60)" s:width="20" s:height="40" id="cell_\29"><s:alias val="$pmux"/><s:alias val="$mux"/><s:alias val="$_MUX_"/><path d="M0,0 L20,10 L20,30 L0,40 Z" class="cell_\29"/><text x="5" y="32" class="nodelabel cell_\29" s:attribute="">1</text><text x="5" y="13" class="nodelabel cell_\29" s:attribute="">0</text><g s:x="0" s:y="10" s:pid="A"/><g s:x="0" s:y="30" s:pid="B"/><g s:x="10" s:y="35" s:pid="S"/><g s:x="20" s:y="20" s:pid="Y"/></g><g s:type="mux" transform="translate(564.6666666666666,194.5)" s:width="20" s:height="40" id="cell_\30"><s:alias val="$pmux"/><s:alias val="$mux"/><s:alias val="$_MUX_"/><path d="M0,0 L20,10 L20,30 L0,40 Z" class="cell_\30"/><text x="5" y="32" class="nodelabel cell_\30" s:attribute="">1</text><text x="5" y="13" class="nodelabel cell_\30" s:attribute="">0</text><g s:x="0" s:y="10" s:pid="A"/><g s:x="0" s:y="30" s:pid="B"/><g s:x="10" s:y="35" s:pid="S"/><g s:x="20" s:y="20" s:pid="Y"/></g><g s:type="mux" transform="translate(652.6666666666666,184.5)" s:width="20" s:height="40" id="cell_\31"><s:alias val="$pmux"/><s:alias val="$mux"/><s:alias val="$_MUX_"/><path d="M0,0 L20,10 L20,30 L0,40 Z" class="cell_\31"/><text x="5" y="32" class="nodelabel cell_\31" s:attribute="">1</text><text x="5" y="13" class="nodelabel cell_\31" s:attribute="">0</text><g s:x="0" s:y="10" s:pid="A"/><g s:x="0" s:y="30" s:pid="B"/><g s:x="10" s:y="35" s:pid="S"/><g s:x="20" s:y="20" s:pid="Y"/></g><g s:type="mux-bus" transform="translate(720,597)" s:width="24" s:height="40" id="cell_\32"><s:alias val="$pmux-bus"/><s:alias val="$mux-bus"/><s:alias val="$_MUX_-bus"/><path d="M0,0 L20,10 L20,30 L0,40 Z" class="cell_\32"/><path d="M4,2 L4,0 L22,9 L22,31 L4,40 L4,38" class="cell_\32"/><path d="M8,2 L8,0 L24,8 L24,32 L8,40 L8,38" class="cell_\32"/><text x="5" y="32" class="nodelabel cell_\32" s:attribute="">1</text><text x="5" y="13" class="nodelabel cell_\32" s:attribute="">0</text><g s:x="-1" s:y="10" s:pid="A"/><g s:x="-1" s:y="30" s:pid="B"/><g s:x="12" s:y="38" s:pid="S"/><g s:x="24.5" s:y="20" s:pid="Y"/></g><g s:type="and" transform="translate(646,498.5)" s:width="30" s:height="25" id="cell_\33"><s:alias val="$and"/><s:alias val="$logic_and"/><s:alias val="$_AND_"/><s:alias val="$reduce_and"/><path d="M0,0 L0,25 L15,25 A15 12.5 0 0 0 15,0 Z" class="cell_\33"/><g s:x="0" s:y="5" s:pid="A"/><g s:x="0" s:y="20" s:pid="B"/><g s:x="30" s:y="12.5" s:pid="Y"/></g><g s:type="mux" transform="translate(721.1666666666666,194.5)" s:width="20" s:height="40" id="cell_\35"><s:alias val="$pmux"/><s:alias val="$mux"/><s:alias val="$_MUX_"/><path d="M0,0 L20,10 L20,30 L0,40 Z" class="cell_\35"/><text x="5" y="32" class="nodelabel cell_\35" s:attribute="">1</text><text x="5" y="13" class="nodelabel cell_\35" s:attribute="">0</text><g s:x="0" s:y="10" s:pid="A"/><g s:x="0" s:y="30" s:pid="B"/><g s:x="10" s:y="35" s:pid="S"/><g s:x="20" s:y="20" s:pid="Y"/></g><g s:type="mux-bus" transform="translate(847.5,638)" s:width="24" s:height="40" id="cell_\37"><s:alias val="$pmux-bus"/><s:alias val="$mux-bus"/><s:alias val="$_MUX_-bus"/><path d="M0,0 L20,10 L20,30 L0,40 Z" class="cell_\37"/><path d="M4,2 L4,0 L22,9 L22,31 L4,40 L4,38" class="cell_\37"/><path d="M8,2 L8,0 L24,8 L24,32 L8,40 L8,38" class="cell_\37"/><text x="5" y="32" class="nodelabel cell_\37" s:attribute="">1</text><text x="5" y="13" class="nodelabel cell_\37" s:attribute="">0</text><g s:x="-1" s:y="10" s:pid="A"/><g s:x="-1" s:y="30" s:pid="B"/><g s:x="12" s:y="38" s:pid="S"/><g s:x="24.5" s:y="20" s:pid="Y"/></g><g s:type="mux-bus" transform="translate(847.5,352.5)" s:width="24" s:height="40" id="cell_\38"><s:alias val="$pmux-bus"/><s:alias val="$mux-bus"/><s:alias val="$_MUX_-bus"/><path d="M0,0 L20,10 L20,30 L0,40 Z" class="cell_\38"/><path d="M4,2 L4,0 L22,9 L22,31 L4,40 L4,38" class="cell_\38"/><path d="M8,2 L8,0 L24,8 L24,32 L8,40 L8,38" class="cell_\38"/><text x="5" y="32" class="nodelabel cell_\38" s:attribute="">1</text><text x="5" y="13" class="nodelabel cell_\38" s:attribute="">0</text><g s:x="-1" s:y="10" s:pid="A"/><g s:x="-1" s:y="30" s:pid="B"/><g s:x="12" s:y="38" s:pid="S"/><g s:x="24.5" s:y="20" s:pid="Y"/></g><g s:type="dff-bus" transform="translate(220,245.5)" s:width="34" s:height="44" id="cell_\43"><s:alias val="$dff-bus"/><s:alias val="$_DFF_-bus"/><s:alias val="$_DFF_P_-bus"/><s:alias val="adff-bus"/><s:alias val="$adff-bus"/><s:alias val="$_DFF_-bus"/><s:alias val="$_DFF_P_-bus"/><s:alias val="sdff-bus"/><s:alias val="$sdff-bus"/><s:alias val="$_DFF_-bus"/><s:alias val="$_DFF_P_-bus"/><rect width="30" height="40" x="0" y="0" class="cell_\43"/><path d="M0,35 L5,30 L0,25" class="cell_\43"/><path d="M30,2 L32,2 L32,42 L2,42 L2,40" class="cell_\43"/><path d="M32,4 L34,4 L34,44 L4,44 L4,42" class="cell_\43"/><g s:x="35" s:y="10" s:pid="Q"/><g s:x="-1" s:y="30" s:pid="CLK"/><g s:x="-1" s:y="30" s:pid="C"/><g s:x="-1" s:y="10" s:pid="D"/><g s:x="17" s:y="44" s:pid="ARST"/><g s:x="17" s:y="44" s:pid="SRST"/></g><g s:type="dff-bus" transform="translate(78,163.5)" s:width="34" s:height="44" id="cell_\44"><s:alias val="$dff-bus"/><s:alias val="$_DFF_-bus"/><s:alias val="$_DFF_P_-bus"/><s:alias val="adff-bus"/><s:alias val="$adff-bus"/><s:alias val="$_DFF_-bus"/><s:alias val="$_DFF_P_-bus"/><s:alias val="sdff-bus"/><s:alias val="$sdff-bus"/><s:alias val="$_DFF_-bus"/><s:alias val="$_DFF_P_-bus"/><rect width="30" height="40" x="0" y="0" class="cell_\44"/><path d="M0,35 L5,30 L0,25" class="cell_\44"/><path d="M30,2 L32,2 L32,42 L2,42 L2,40" class="cell_\44"/><path d="M32,4 L34,4 L34,44 L4,44 L4,42" class="cell_\44"/><g s:x="35" s:y="10" s:pid="Q"/><g s:x="-1" s:y="30" s:pid="CLK"/><g s:x="-1" s:y="30" s:pid="C"/><g s:x="-1" s:y="10" s:pid="D"/><g s:x="17" s:y="44" s:pid="ARST"/><g s:x="17" s:y="44" s:pid="SRST"/></g><g s:type="dff" transform="translate(780.5,269.5)" s:width="30" s:height="40" id="cell_\45"><s:alias val="$dff"/><s:alias val="$_DFF_"/><s:alias val="$_DFF_P_"/><s:alias val="$adff"/><s:alias val="$_DFF_"/><s:alias val="$_DFF_P_"/><s:alias val="$sdff"/><s:alias val="$_DFF_"/><s:alias val="$_DFF_P_"/><rect width="30" height="40" x="0" y="0" class="cell_\45"/><path d="M0,35 L5,30 L0,25" class="cell_\45"/><g s:x="31" s:y="10" s:pid="Q"/><g s:x="-1" s:y="30" s:pid="CLK"/><g s:x="-1" s:y="30" s:pid="C"/><g s:x="-1" s:y="10" s:pid="D"/><g s:x="15" s:y="40" s:pid="ARST"/><g s:x="15" s:y="40" s:pid="SRST"/></g><g s:type="add" transform="translate(429,588)" s:width="25" s:height="25" id="cell_\9"><s:alias val="$add"/><circle r="12.5" cx="12.5" cy="12.5" class="cell_\9"/><line x1="7.5" x2="17.5" y1="12.5" y2="12.5" class="cell_\9"/><line x1="12.5" x2="12.5" y1="7.5" y2="17.5" class="cell_\9"/><g s:x="2" s:y="5" s:pid="A"/><g s:x="2" s:y="20" s:pid="B"/><g s:x="26" s:y="12.5" s:pid="Y"/></g><g s:type="inputExt" transform="translate(12,289.5)" s:width="30" s:height="20" id="cell_i_clk"><text x="15" y="-4" class="nodelabel cell_i_clk" s:attribute="ref">i_clk</text><s:alias val="$_inputExt_"/><path d="M0,0 L0,20 L15,20 L30,10 L15,0 Z" class="cell_i_clk"/><g s:x="30" s:y="10" s:pid="Y"/></g><g s:type="inputExt" transform="translate(553,413.5)" s:width="30" s:height="20" id="cell_i_clk_ena"><text x="15" y="-4" class="nodelabel cell_i_clk_ena" s:attribute="ref">i_clk_ena</text><s:alias val="$_inputExt_"/><path d="M0,0 L0,20 L15,20 L30,10 L15,0 Z" class="cell_i_clk_ena"/><g s:x="30" s:y="10" s:pid="Y"/></g><g s:type="inputExt" transform="translate(642,443.5)" s:width="30" s:height="20" id="cell_i_reset"><text x="15" y="-4" class="nodelabel cell_i_reset" s:attribute="ref">i_reset</text><s:alias val="$_inputExt_"/><path d="M0,0 L0,20 L15,20 L30,10 L15,0 Z" class="cell_i_reset"/><g s:x="30" s:y="10" s:pid="Y"/></g><g s:type="inputExt" transform="translate(290,372.5)" s:width="30" s:height="20" id="cell_i_duty"><text x="15" y="-4" class="nodelabel cell_i_duty" s:attribute="ref">i_duty</text><s:alias val="$_inputExt_"/><path d="M0,0 L0,20 L15,20 L30,10 L15,0 Z" class="cell_i_duty"/><g s:x="30" s:y="10" s:pid="Y"/></g><g s:type="outputExt" transform="translate(846.5,269.5)" s:width="30" s:height="20" id="cell_o_pwm"><text x="15" y="-4" class="nodelabel cell_o_pwm" s:attribute="ref">o_pwm</text><s:alias val="$_outputExt_"/><path d="M30,0 L30,20 L15,20 L0,10 L15,0 Z" class="cell_o_pwm"/><g s:x="0" s:y="10" s:pid="A"/></g><g s:type="constant" transform="translate(427,658)" s:width="30" s:height="20" id="cell_00"><text x="15" y="-4" class="nodelabel cell_00" s:attribute="ref">00</text><s:alias val="$_constant_"/><rect width="30" height="20" class="cell_00"/><g s:x="31" s:y="10" s:pid="Y"/></g><g s:type="constant" transform="translate(361,516)" s:width="30" s:height="20" id="cell_11"><text x="15" y="-4" class="nodelabel cell_11" s:attribute="ref">11</text><s:alias val="$_constant_"/><rect width="30" height="20" class="cell_11"/><g s:x="31" s:y="10" s:pid="Y"/></g><g s:type="constant" transform="translate(427,60)" s:width="30" s:height="20" id="cell_0"><text x="15" y="-4" class="nodelabel cell_0" s:attribute="ref">0</text><s:alias val="$_constant_"/><rect width="30" height="20" class="cell_0"/><g s:x="31" s:y="10" s:pid="Y"/></g><g s:type="constant" transform="translate(148,224.5)" s:width="30" s:height="20" id="cell_1"><text x="15" y="-4" class="nodelabel cell_1" s:attribute="ref">1</text><s:alias val="$_constant_"/><rect width="30" height="20" class="cell_1"/><g s:x="31" s:y="10" s:pid="Y"/></g><line x1="455" x2="528" y1="600.5" y2="600.5" class="net_9,10 width_2" style="stroke-width: 2"/><line x1="528" x2="528" y1="600.5" y2="617" class="net_9,10 width_2" style="stroke-width: 2"/><line x1="528" x2="562.3333333333334" y1="617" y2="617" class="net_9,10 width_2" style="stroke-width: 2"/><line x1="458" x2="468" y1="668" y2="668" class="net_42,43 width_2" style="stroke-width: 2"/><line x1="468" x2="468" y1="668" y2="637" class="net_42,43 width_2" style="stroke-width: 2"/><circle cx="468" cy="668" r="3" style="fill:#000" class="net_42,43 width_2"/><line x1="468" x2="562.3333333333334" y1="637" y2="637" class="net_42,43 width_2" style="stroke-width: 2"/><line x1="458" x2="846.5" y1="668" y2="668" class="net_42,43 width_2" style="stroke-width: 2"/><line x1="518" x2="538" y1="518.5" y2="518.5" class="net_11 width_1" style="stroke-width: 1"/><line x1="538" x2="538" y1="518.5" y2="657" class="net_11 width_1" style="stroke-width: 1"/><line x1="538" x2="575.3333333333334" y1="657" y2="657" class="net_11 width_1" style="stroke-width: 1"/><circle cx="538" cy="518.5" r="2" style="fill:#000" class="net_11 width_1"/><line x1="575.3333333333334" x2="575.3333333333334" y1="657" y2="645" class="net_11 width_1" style="stroke-width: 1"/><line x1="518" x2="538" y1="518.5" y2="518.5" class="net_11 width_1" style="stroke-width: 1"/><line x1="538" x2="538" y1="518.5" y2="393.5" class="net_11 width_1" style="stroke-width: 1"/><line x1="538" x2="574.6666666666666" y1="393.5" y2="393.5" class="net_11 width_1" style="stroke-width: 1"/><line x1="574.6666666666666" x2="574.6666666666666" y1="393.5" y2="229.5" class="net_11 width_1" style="stroke-width: 1"/><line x1="518" x2="646" y1="518.5" y2="518.5" class="net_11 width_1" style="stroke-width: 1"/><line x1="113" x2="123" y1="173.5" y2="173.5" class="net_14,15,16 width_3" style="stroke-width: 2"/><line x1="123" x2="123" y1="173.5" y2="341.5" class="net_14,15,16 width_3" style="stroke-width: 2"/><circle cx="123" cy="173.5" r="3" style="fill:#000" class="net_14,15,16 width_3"/><line x1="123" x2="719" y1="341.5" y2="341.5" class="net_14,15,16 width_3" style="stroke-width: 2"/><line x1="113" x2="225" y1="173.5" y2="173.5" class="net_14,15,16 width_3" style="stroke-width: 2"/><line x1="113" x2="123" y1="173.5" y2="173.5" class="net_14,15,16 width_3" style="stroke-width: 2"/><line x1="123" x2="123" y1="173.5" y2="106" class="net_14,15,16 width_3" style="stroke-width: 2"/><line x1="123" x2="363.5" y1="106" y2="106" class="net_14,15,16 width_3" style="stroke-width: 2"/><line x1="320" x2="468" y1="382.5" y2="382.5" class="net_5,6,7 width_3" style="stroke-width: 2"/><line x1="468" x2="468" y1="382.5" y2="361.5" class="net_5,6,7 width_3" style="stroke-width: 2"/><circle cx="468" cy="382.5" r="3" style="fill:#000" class="net_5,6,7 width_3"/><line x1="468" x2="719" y1="361.5" y2="361.5" class="net_5,6,7 width_3" style="stroke-width: 2"/><line x1="320" x2="336" y1="382.5" y2="382.5" class="net_5,6,7 width_3" style="stroke-width: 2"/><line x1="336" x2="336" y1="382.5" y2="398.5" class="net_5,6,7 width_3" style="stroke-width: 2"/><circle cx="336" cy="382.5" r="3" style="fill:#000" class="net_5,6,7 width_3"/><line x1="336" x2="429.5" y1="398.5" y2="398.5" class="net_5,6,7 width_3" style="stroke-width: 2"/><line x1="320" x2="846.5" y1="382.5" y2="382.5" class="net_5,6,7 width_3" style="stroke-width: 2"/><line x1="676" x2="732" y1="511" y2="511" class="net_17 width_1" style="stroke-width: 1"/><line x1="732" x2="732" y1="511" y2="369.5" class="net_17 width_1" style="stroke-width: 1"/><line x1="255" x2="265" y1="255.5" y2="255.5" class="net_21,22 width_2" style="stroke-width: 2"/><line x1="265" x2="265" y1="255.5" y2="547" class="net_21,22 width_2" style="stroke-width: 2"/><line x1="265" x2="336" y1="547" y2="547" class="net_21,22 width_2" style="stroke-width: 2"/><line x1="336" x2="336" y1="547" y2="465" class="net_21,22 width_2" style="stroke-width: 2"/><line x1="336" x2="468" y1="465" y2="465" class="net_21,22 width_2" style="stroke-width: 2"/><line x1="468" x2="468" y1="465" y2="511" class="net_21,22 width_2" style="stroke-width: 2"/><circle cx="265" cy="255.5" r="3" style="fill:#000" class="net_21,22 width_2"/><circle cx="265" cy="547" r="3" style="fill:#000" class="net_21,22 width_2"/><circle cx="336" cy="547" r="3" style="fill:#000" class="net_21,22 width_2"/><line x1="468" x2="495" y1="511" y2="511" class="net_21,22 width_2" style="stroke-width: 2"/><line x1="255" x2="265" y1="255.5" y2="255.5" class="net_21,22 width_2" style="stroke-width: 2"/><line x1="265" x2="265" y1="255.5" y2="161" class="net_21,22 width_2" style="stroke-width: 2"/><line x1="265" x2="336" y1="161" y2="161" class="net_21,22 width_2" style="stroke-width: 2"/><line x1="336" x2="336" y1="161" y2="166" class="net_21,22 width_2" style="stroke-width: 2"/><line x1="336" x2="365" y1="166" y2="166" class="net_21,22 width_2" style="stroke-width: 2"/><line x1="255" x2="265" y1="255.5" y2="255.5" class="net_21,22 width_2" style="stroke-width: 2"/><line x1="265" x2="265" y1="255.5" y2="547" class="net_21,22 width_2" style="stroke-width: 2"/><line x1="265" x2="694" y1="547" y2="547" class="net_21,22 width_2" style="stroke-width: 2"/><line x1="694" x2="694" y1="547" y2="607" class="net_21,22 width_2" style="stroke-width: 2"/><line x1="694" x2="719" y1="607" y2="607" class="net_21,22 width_2" style="stroke-width: 2"/><line x1="255" x2="265" y1="255.5" y2="255.5" class="net_21,22 width_2" style="stroke-width: 2"/><line x1="265" x2="265" y1="255.5" y2="592" class="net_21,22 width_2" style="stroke-width: 2"/><line x1="265" x2="402" y1="592" y2="592" class="net_21,22 width_2" style="stroke-width: 2"/><line x1="402" x2="402" y1="592" y2="593" class="net_21,22 width_2" style="stroke-width: 2"/><line x1="402" x2="431" y1="593" y2="593" class="net_21,22 width_2" style="stroke-width: 2"/><line x1="392" x2="495" y1="526" y2="526" class="net_44,45 width_2" style="stroke-width: 2"/><line x1="458" x2="468" y1="70" y2="70" class="net_46 width_1" style="stroke-width: 1"/><line x1="468" x2="468" y1="70" y2="214.5" class="net_46 width_1" style="stroke-width: 1"/><circle cx="468" cy="70" r="2" style="fill:#000" class="net_46 width_1"/><line x1="468" x2="494.6666666666667" y1="214.5" y2="214.5" class="net_46 width_1" style="stroke-width: 1"/><line x1="458" x2="494.6666666666667" y1="70" y2="70" class="net_46 width_1" style="stroke-width: 1"/><line x1="458" x2="468" y1="70" y2="70" class="net_46 width_1" style="stroke-width: 1"/><line x1="468" x2="468" y1="70" y2="49" class="net_46 width_1" style="stroke-width: 1"/><line x1="468" x2="694" y1="49" y2="49" class="net_46 width_1" style="stroke-width: 1"/><line x1="694" x2="694" y1="49" y2="224.5" class="net_46 width_1" style="stroke-width: 1"/><line x1="694" x2="721.1666666666666" y1="224.5" y2="224.5" class="net_46 width_1" style="stroke-width: 1"/><line x1="179" x2="494.6666666666667" y1="234.5" y2="234.5" class="net_47 width_1" style="stroke-width: 1"/><line x1="179" x2="199" y1="234.5" y2="234.5" class="net_47 width_1" style="stroke-width: 1"/><line x1="199" x2="199" y1="234.5" y2="188.5" class="net_47 width_1" style="stroke-width: 1"/><circle cx="199" cy="234.5" r="2" style="fill:#000" class="net_47 width_1"/><circle cx="199" cy="188.5" r="2" style="fill:#000" class="net_47 width_1"/><line x1="199" x2="225" y1="188.5" y2="188.5" class="net_47 width_1" style="stroke-width: 1"/><line x1="179" x2="199" y1="234.5" y2="234.5" class="net_47 width_1" style="stroke-width: 1"/><line x1="199" x2="199" y1="234.5" y2="90" class="net_47 width_1" style="stroke-width: 1"/><line x1="199" x2="494.6666666666667" y1="90" y2="90" class="net_47 width_1" style="stroke-width: 1"/><line x1="179" x2="199" y1="234.5" y2="234.5" class="net_47 width_1" style="stroke-width: 1"/><line x1="199" x2="199" y1="234.5" y2="608" class="net_47 width_1" style="stroke-width: 1"/><line x1="199" x2="431" y1="608" y2="608" class="net_47 width_1" style="stroke-width: 1"/><line x1="457.5" x2="504.6666666666667" y1="406" y2="406" class="net_23 width_1" style="stroke-width: 1"/><line x1="504.6666666666667" x2="504.6666666666667" y1="406" y2="239.5" class="net_23 width_1" style="stroke-width: 1"/><line x1="248" x2="365" y1="181" y2="181" class="net_25,26,27 width_3" style="stroke-width: 2"/><line x1="391.5" x2="402" y1="113.5" y2="113.5" class="net_29 width_1" style="stroke-width: 1"/><line x1="402" x2="402" y1="113.5" y2="158.5" class="net_29 width_1" style="stroke-width: 1"/><line x1="402" x2="427.3333333333333" y1="158.5" y2="158.5" class="net_29 width_1" style="stroke-width: 1"/><line x1="388" x2="427.3333333333333" y1="173.5" y2="173.5" class="net_28 width_1" style="stroke-width: 1"/><line x1="457.3333333333333" x2="504.6666666666667" y1="166" y2="166" class="net_30 width_1" style="stroke-width: 1"/><line x1="504.6666666666667" x2="504.6666666666667" y1="166" y2="95" class="net_30 width_1" style="stroke-width: 1"/><line x1="514.6666666666667" x2="528" y1="80" y2="80" class="net_31 width_1" style="stroke-width: 1"/><line x1="528" x2="528" y1="80" y2="204.5" class="net_31 width_1" style="stroke-width: 1"/><line x1="528" x2="564.6666666666666" y1="204.5" y2="204.5" class="net_31 width_1" style="stroke-width: 1"/><line x1="514.6666666666667" x2="564.6666666666666" y1="224.5" y2="224.5" class="net_24 width_1" style="stroke-width: 1"/><line x1="811.5" x2="821.5" y1="279.5" y2="279.5" class="net_8 width_1" style="stroke-width: 1"/><line x1="821.5" x2="821.5" y1="279.5" y2="320.5" class="net_8 width_1" style="stroke-width: 1"/><line x1="821.5" x2="617" y1="320.5" y2="320.5" class="net_8 width_1" style="stroke-width: 1"/><line x1="617" x2="617" y1="320.5" y2="194.5" class="net_8 width_1" style="stroke-width: 1"/><circle cx="821.5" cy="279.5" r="2" style="fill:#000" class="net_8 width_1"/><line x1="617" x2="652.6666666666666" y1="194.5" y2="194.5" class="net_8 width_1" style="stroke-width: 1"/><line x1="811.5" x2="846.5" y1="279.5" y2="279.5" class="net_8 width_1" style="stroke-width: 1"/><line x1="584.6666666666666" x2="652.6666666666666" y1="214.5" y2="214.5" class="net_32 width_1" style="stroke-width: 1"/><line x1="583" x2="662.6666666666666" y1="423.5" y2="423.5" class="net_3 width_1" style="stroke-width: 1"/><line x1="662.6666666666666" x2="662.6666666666666" y1="423.5" y2="219.5" class="net_3 width_1" style="stroke-width: 1"/><line x1="583" x2="617" y1="423.5" y2="423.5" class="net_3 width_1" style="stroke-width: 1"/><line x1="617" x2="617" y1="423.5" y2="647" class="net_3 width_1" style="stroke-width: 1"/><line x1="617" x2="732" y1="647" y2="647" class="net_3 width_1" style="stroke-width: 1"/><circle cx="617" cy="423.5" r="2" style="fill:#000" class="net_3 width_1"/><line x1="732" x2="732" y1="647" y2="635" class="net_3 width_1" style="stroke-width: 1"/><line x1="583" x2="617" y1="423.5" y2="423.5" class="net_3 width_1" style="stroke-width: 1"/><line x1="617" x2="617" y1="423.5" y2="503.5" class="net_3 width_1" style="stroke-width: 1"/><circle cx="617" cy="503.5" r="2" style="fill:#000" class="net_3 width_1"/><line x1="617" x2="646" y1="503.5" y2="503.5" class="net_3 width_1" style="stroke-width: 1"/><line x1="587.8333333333334" x2="719" y1="627" y2="627" class="net_12,13 width_2" style="stroke-width: 2"/><line x1="672.6666666666666" x2="721.1666666666666" y1="204.5" y2="204.5" class="net_33 width_1" style="stroke-width: 1"/><line x1="672" x2="704" y1="453.5" y2="453.5" class="net_4 width_1" style="stroke-width: 1"/><line x1="704" x2="704" y1="453.5" y2="310.5" class="net_4 width_1" style="stroke-width: 1"/><line x1="704" x2="731.1666666666666" y1="310.5" y2="310.5" class="net_4 width_1" style="stroke-width: 1"/><circle cx="704" cy="453.5" r="2" style="fill:#000" class="net_4 width_1"/><line x1="731.1666666666666" x2="731.1666666666666" y1="310.5" y2="229.5" class="net_4 width_1" style="stroke-width: 1"/><line x1="672" x2="704" y1="453.5" y2="453.5" class="net_4 width_1" style="stroke-width: 1"/><line x1="704" x2="704" y1="453.5" y2="688" class="net_4 width_1" style="stroke-width: 1"/><line x1="704" x2="859.5" y1="688" y2="688" class="net_4 width_1" style="stroke-width: 1"/><line x1="859.5" x2="859.5" y1="688" y2="676" class="net_4 width_1" style="stroke-width: 1"/><line x1="672" x2="859.5" y1="453.5" y2="453.5" class="net_4 width_1" style="stroke-width: 1"/><line x1="859.5" x2="859.5" y1="453.5" y2="390.5" class="net_4 width_1" style="stroke-width: 1"/><line x1="744.5" x2="821.5" y1="617" y2="617" class="net_34,35 width_2" style="stroke-width: 2"/><line x1="821.5" x2="821.5" y1="617" y2="648" class="net_34,35 width_2" style="stroke-width: 2"/><line x1="821.5" x2="846.5" y1="648" y2="648" class="net_34,35 width_2" style="stroke-width: 2"/><line x1="744.5" x2="821.5" y1="351.5" y2="351.5" class="net_18,19,20 width_3" style="stroke-width: 2"/><line x1="821.5" x2="821.5" y1="351.5" y2="362.5" class="net_18,19,20 width_3" style="stroke-width: 2"/><line x1="821.5" x2="846.5" y1="362.5" y2="362.5" class="net_18,19,20 width_3" style="stroke-width: 2"/><line x1="42" x2="209" y1="299.5" y2="299.5" class="net_2 width_1" style="stroke-width: 1"/><line x1="209" x2="209" y1="299.5" y2="275.5" class="net_2 width_1" style="stroke-width: 1"/><circle cx="209" cy="299.5" r="2" style="fill:#000" class="net_2 width_1"/><line x1="209" x2="219" y1="275.5" y2="275.5" class="net_2 width_1" style="stroke-width: 1"/><line x1="42" x2="52" y1="299.5" y2="299.5" class="net_2 width_1" style="stroke-width: 1"/><line x1="52" x2="52" y1="299.5" y2="193.5" class="net_2 width_1" style="stroke-width: 1"/><circle cx="52" cy="299.5" r="2" style="fill:#000" class="net_2 width_1"/><line x1="52" x2="77" y1="193.5" y2="193.5" class="net_2 width_1" style="stroke-width: 1"/><line x1="42" x2="779.5" y1="299.5" y2="299.5" class="net_2 width_1" style="stroke-width: 1"/><line x1="872" x2="886.5" y1="658" y2="658" class="net_37,38 width_2" style="stroke-width: 2"/><line x1="886.5" x2="886.5" y1="658" y2="33" class="net_37,38 width_2" style="stroke-width: 2"/><line x1="886.5" x2="189" y1="33" y2="33" class="net_37,38 width_2" style="stroke-width: 2"/><line x1="189" x2="189" y1="33" y2="255.5" class="net_37,38 width_2" style="stroke-width: 2"/><line x1="189" x2="219" y1="255.5" y2="255.5" class="net_37,38 width_2" style="stroke-width: 2"/><line x1="872" x2="896.5" y1="372.5" y2="372.5" class="net_39,40,41 width_3" style="stroke-width: 2"/><line x1="896.5" x2="896.5" y1="372.5" y2="16" class="net_39,40,41 width_3" style="stroke-width: 2"/><line x1="896.5" x2="52" y1="16" y2="16" class="net_39,40,41 width_3" style="stroke-width: 2"/><line x1="52" x2="52" y1="16" y2="173.5" class="net_39,40,41 width_3" style="stroke-width: 2"/><line x1="52" x2="77" y1="173.5" y2="173.5" class="net_39,40,41 width_3" style="stroke-width: 2"/><line x1="741.1666666666666" x2="754.5" y1="214.5" y2="214.5" class="net_36 width_1" style="stroke-width: 1"/><line x1="754.5" x2="754.5" y1="214.5" y2="279.5" class="net_36 width_1" style="stroke-width: 1"/><line x1="754.5" x2="779.5" y1="279.5" y2="279.5" class="net_36 width_1" style="stroke-width: 1"/><rect x="504.5" y="595.5" width="16" height="9" class="net_9,10 width_2 busLabel_2" style="fill: white; stroke: none"/><text x="503.5" y="603.5" class="net_9,10 width_2 busLabel_2">/2/</text><rect x="662" y="663" width="16" height="9" class="net_42,43 width_2 busLabel_2" style="fill: white; stroke: none"/><text x="661" y="671" class="net_42,43 width_2 busLabel_2">/2/</text><rect x="662" y="663" width="16" height="9" class="net_42,43 width_2 busLabel_2" style="fill: white; stroke: none"/><text x="661" y="671" class="net_42,43 width_2 busLabel_2">/2/</text><rect x="236" y="101" width="16" height="9" class="net_14,15,16 width_3 busLabel_3" style="fill: white; stroke: none"/><text x="235" y="109" class="net_14,15,16 width_3 busLabel_3">/3/</text><rect x="236" y="101" width="16" height="9" class="net_14,15,16 width_3 busLabel_3" style="fill: white; stroke: none"/><text x="235" y="109" class="net_14,15,16 width_3 busLabel_3">/3/</text><rect x="236" y="101" width="16" height="9" class="net_14,15,16 width_3 busLabel_3" style="fill: white; stroke: none"/><text x="235" y="109" class="net_14,15,16 width_3 busLabel_3">/3/</text><rect x="579" y="377.5" width="16" height="9" class="net_5,6,7 width_3 busLabel_3" style="fill: white; stroke: none"/><text x="578" y="385.5" class="net_5,6,7 width_3 busLabel_3">/3/</text><rect x="579" y="377.5" width="16" height="9" class="net_5,6,7 width_3 busLabel_3" style="fill: white; stroke: none"/><text x="578" y="385.5" class="net_5,6,7 width_3 busLabel_3">/3/</text><rect x="579" y="377.5" width="16" height="9" class="net_5,6,7 width_3 busLabel_3" style="fill: white; stroke: none"/><text x="578" y="385.5" class="net_5,6,7 width_3 busLabel_3">/3/</text><rect x="307" y="587" width="16" height="9" class="net_21,22 width_2 busLabel_2" style="fill: white; stroke: none"/><text x="306" y="595" class="net_21,22 width_2 busLabel_2">/2/</text><rect x="307" y="587" width="16" height="9" class="net_21,22 width_2 busLabel_2" style="fill: white; stroke: none"/><text x="306" y="595" class="net_21,22 width_2 busLabel_2">/2/</text><rect x="307" y="587" width="16" height="9" class="net_21,22 width_2 busLabel_2" style="fill: white; stroke: none"/><text x="306" y="595" class="net_21,22 width_2 busLabel_2">/2/</text><rect x="307" y="587" width="16" height="9" class="net_21,22 width_2 busLabel_2" style="fill: white; stroke: none"/><text x="306" y="595" class="net_21,22 width_2 busLabel_2">/2/</text><rect x="441.5" y="521" width="16" height="9" class="net_44,45 width_2 busLabel_2" style="fill: white; stroke: none"/><text x="440.5" y="529" class="net_44,45 width_2 busLabel_2">/2/</text><rect x="307" y="176" width="16" height="9" class="net_25,26,27 width_3 busLabel_3" style="fill: white; stroke: none"/><text x="306" y="184" class="net_25,26,27 width_3 busLabel_3">/3/</text><rect x="662" y="622" width="16" height="9" class="net_12,13 width_2 busLabel_2" style="fill: white; stroke: none"/><text x="661" y="630" class="net_12,13 width_2 busLabel_2">/2/</text><rect x="794.5" y="612" width="16" height="9" class="net_34,35 width_2 busLabel_2" style="fill: white; stroke: none"/><text x="793.5" y="620" class="net_34,35 width_2 busLabel_2">/2/</text><rect x="794.5" y="346.5" width="16" height="9" class="net_18,19,20 width_3 busLabel_3" style="fill: white; stroke: none"/><text x="793.5" y="354.5" class="net_18,19,20 width_3 busLabel_3">/3/</text><rect x="504.5" y="28" width="16" height="9" class="net_37,38 width_2 busLabel_2" style="fill: white; stroke: none"/><text x="503.5" y="36" class="net_37,38 width_2 busLabel_2">/2/</text><rect x="441.5" y="11" width="16" height="9" class="net_39,40,41 width_3 busLabel_3" style="fill: white; stroke: none"/><text x="440.5" y="19" class="net_39,40,41 width_3 busLabel_3">/3/</text></svg>