<svg xmlns="http://www.w3.org/2000/svg" xmlns:xlink="http://www.w3.org/1999/xlink" xmlns:s="https://github.com/nturley/netlistsvg" width="1296" height="779.5"><rect width="100%" height="100%" fill="white"/><style>svg {
  stroke:#000;
  fill:none;
}
text {
  fill:#000;
  stroke:none;
  font-size:10px;
  font-weight: bold;
  font-family: "Courier New", monospace;
}
line {
    stroke-linecap: round;
}
.nodelabel {
  text-anchor: middle;
}
.inputPortLabel {
  text-anchor: end;
}
.splitjoinBody {
  fill:#000;
}</style><g s:type="mux-bus" transform="translate(1039.6666666666667,36.5)" s:width="24" s:height="40" id="cell_\10"><s:alias val="$pmux-bus"/><s:alias val="$mux-bus"/><s:alias val="$_MUX_-bus"/><path d="M0,0 L20,10 L20,30 L0,40 Z" class="cell_\10"/><path d="M4,2 L4,0 L22,9 L22,31 L4,40 L4,38" class="cell_\10"/><path d="M8,2 L8,0 L24,8 L24,32 L8,40 L8,38" class="cell_\10"/><text x="5" y="32" class="nodelabel cell_\10" s:attribute="">1</text><text x="5" y="13" class="nodelabel cell_\10" s:attribute="">0</text><g s:x="-1" s:y="10" s:pid="A"/><g s:x="-1" s:y="30" s:pid="B"/><g s:x="12" s:y="38" s:pid="S"/><g s:x="24.5" s:y="20" s:pid="Y"/></g><g s:type="not" transform="translate(910,291)" s:width="30" s:height="20" id="cell_\16"><s:alias val="$_NOT_"/><s:alias val="$not"/><s:alias val="$logic_not"/><path d="M0,0 L0,20 L20,10 Z" class="cell_\16"/><circle cx="24" cy="10" r="3" class="cell_\16"/><g s:x="-1" s:y="10" s:pid="A"/><g s:x="27" s:y="10" s:pid="Y"/></g><g s:type="mux" transform="translate(976.6666666666666,250)" s:width="20" s:height="40" id="cell_\17"><s:alias val="$pmux"/><s:alias val="$mux"/><s:alias val="$_MUX_"/><path d="M0,0 L20,10 L20,30 L0,40 Z" class="cell_\17"/><text x="5" y="32" class="nodelabel cell_\17" s:attribute="">1</text><text x="5" y="13" class="nodelabel cell_\17" s:attribute="">0</text><g s:x="0" s:y="10" s:pid="A"/><g s:x="0" s:y="30" s:pid="B"/><g s:x="10" s:y="35" s:pid="S"/><g s:x="20" s:y="20" s:pid="Y"/></g><g s:type="eq" transform="translate(913.3333333333334,363)" s:width="25" s:height="25" id="cell_\21"><s:alias val="$eq"/><s:alias val="$eqx"/><circle r="12.5" cx="12.5" cy="12.5" class="cell_\21"/><line x1="7.5" x2="17.5" y1="10" y2="10" class="cell_\21"/><line x1="7.5" x2="17.5" y1="15" y2="15" class="cell_\21"/><g s:x="2" s:y="5" s:pid="A"/><g s:x="2" s:y="20" s:pid="B"/><g s:x="25" s:y="12.5" s:pid="Y"/></g><g s:type="mux" transform="translate(976.6666666666666,322)" s:width="20" s:height="40" id="cell_\22"><s:alias val="$pmux"/><s:alias val="$mux"/><s:alias val="$_MUX_"/><path d="M0,0 L20,10 L20,30 L0,40 Z" class="cell_\22"/><text x="5" y="32" class="nodelabel cell_\22" s:attribute="">1</text><text x="5" y="13" class="nodelabel cell_\22" s:attribute="">0</text><g s:x="0" s:y="10" s:pid="A"/><g s:x="0" s:y="30" s:pid="B"/><g s:x="10" s:y="35" s:pid="S"/><g s:x="20" s:y="20" s:pid="Y"/></g><g s:type="sub" transform="translate(476.5,529.5)" s:width="25" s:height="25" id="cell_\30"><s:alias val="$sub"/><circle r="12.5" cx="12.5" cy="12.5" class="cell_\30"/><line x1="7.5" x2="17.5" y1="12.5" y2="12.5" class="cell_\30"/><g s:x="2" s:y="5" s:pid="A"/><g s:x="2" s:y="20" s:pid="B"/><g s:x="25" s:y="12.5" s:pid="Y"/></g><g s:type="mux-bus" transform="translate(794.5,466.5)" s:width="24" s:height="40" id="cell_\38"><s:alias val="$pmux-bus"/><s:alias val="$mux-bus"/><s:alias val="$_MUX_-bus"/><path d="M0,0 L20,10 L20,30 L0,40 Z" class="cell_\38"/><path d="M4,2 L4,0 L22,9 L22,31 L4,40 L4,38" class="cell_\38"/><path d="M8,2 L8,0 L24,8 L24,32 L8,40 L8,38" class="cell_\38"/><text x="5" y="32" class="nodelabel cell_\38" s:attribute="">1</text><text x="5" y="13" class="nodelabel cell_\38" s:attribute="">0</text><g s:x="-1" s:y="10" s:pid="A"/><g s:x="-1" s:y="30" s:pid="B"/><g s:x="12" s:y="38" s:pid="S"/><g s:x="24.5" s:y="20" s:pid="Y"/></g><g s:type="mux" transform="translate(854,415.5)" s:width="20" s:height="40" id="cell_\48"><s:alias val="$pmux"/><s:alias val="$mux"/><s:alias val="$_MUX_"/><path d="M0,0 L20,10 L20,30 L0,40 Z" class="cell_\48"/><text x="5" y="32" class="nodelabel cell_\48" s:attribute="">1</text><text x="5" y="13" class="nodelabel cell_\48" s:attribute="">0</text><g s:x="0" s:y="10" s:pid="A"/><g s:x="0" s:y="30" s:pid="B"/><g s:x="10" s:y="35" s:pid="S"/><g s:x="20" s:y="20" s:pid="Y"/></g><g s:type="not" transform="translate(1036,435.5)" s:width="30" s:height="20" id="cell_\52"><s:alias val="$_NOT_"/><s:alias val="$not"/><s:alias val="$logic_not"/><path d="M0,0 L0,20 L20,10 Z" class="cell_\52"/><circle cx="24" cy="10" r="3" class="cell_\52"/><g s:x="-1" s:y="10" s:pid="A"/><g s:x="27" s:y="10" s:pid="Y"/></g><g s:type="mux-bus" transform="translate(1191,12)" s:width="24" s:height="40" id="cell_\53"><s:alias val="$pmux-bus"/><s:alias val="$mux-bus"/><s:alias val="$_MUX_-bus"/><path d="M0,0 L20,10 L20,30 L0,40 Z" class="cell_\53"/><path d="M4,2 L4,0 L22,9 L22,31 L4,40 L4,38" class="cell_\53"/><path d="M8,2 L8,0 L24,8 L24,32 L8,40 L8,38" class="cell_\53"/><text x="5" y="32" class="nodelabel cell_\53" s:attribute="">1</text><text x="5" y="13" class="nodelabel cell_\53" s:attribute="">0</text><g s:x="-1" s:y="10" s:pid="A"/><g s:x="-1" s:y="30" s:pid="B"/><g s:x="12" s:y="38" s:pid="S"/><g s:x="24.5" s:y="20" s:pid="Y"/></g><g s:type="dff-bus" transform="translate(96,145)" s:width="34" s:height="44" id="cell_\54"><s:alias val="$dff-bus"/><s:alias val="$_DFF_-bus"/><s:alias val="$_DFF_P_-bus"/><s:alias val="adff-bus"/><s:alias val="$adff-bus"/><s:alias val="$_DFF_-bus"/><s:alias val="$_DFF_P_-bus"/><s:alias val="sdff-bus"/><s:alias val="$sdff-bus"/><s:alias val="$_DFF_-bus"/><s:alias val="$_DFF_P_-bus"/><rect width="30" height="40" x="0" y="0" class="cell_\54"/><path d="M0,35 L5,30 L0,25" class="cell_\54"/><path d="M30,2 L32,2 L32,42 L2,42 L2,40" class="cell_\54"/><path d="M32,4 L34,4 L34,44 L4,44 L4,42" class="cell_\54"/><g s:x="35" s:y="10" s:pid="Q"/><g s:x="-1" s:y="30" s:pid="CLK"/><g s:x="-1" s:y="30" s:pid="C"/><g s:x="-1" s:y="10" s:pid="D"/><g s:x="17" s:y="44" s:pid="ARST"/><g s:x="17" s:y="44" s:pid="SRST"/></g><g s:type="generic" transform="translate(645.5,531.5)" s:width="30" s:height="40" id="cell_\57"><text x="15" y="-4" class="nodelabel cell_\57" s:attribute="ref">$mem_v2-bus</text><rect width="30" height="180" s:generic="body" class="cell_\57"/><g transform="translate(0,10)" s:x="0" s:y="10" s:pid="in0" id="port_\57~RD_ADDR"><text x="-3" y="-4" class="inputPortLabel cell_\57">RD_ADDR</text></g><g transform="translate(0,30)" s:x="0" s:y="10" s:pid="in0" id="port_\57~RD_ARST"><text x="-3" y="-4" class="inputPortLabel cell_\57">RD_ARST</text></g><g transform="translate(0,50)" s:x="0" s:y="10" s:pid="in0" id="port_\57~RD_CLK"><text x="-3" y="-4" class="inputPortLabel cell_\57">RD_CLK</text></g><g transform="translate(0,70)" s:x="0" s:y="10" s:pid="in0" id="port_\57~RD_EN"><text x="-3" y="-4" class="inputPortLabel cell_\57">RD_EN</text></g><g transform="translate(0,90)" s:x="0" s:y="10" s:pid="in0" id="port_\57~RD_SRST"><text x="-3" y="-4" class="inputPortLabel cell_\57">RD_SRST</text></g><g transform="translate(0,110)" s:x="0" s:y="10" s:pid="in0" id="port_\57~WR_ADDR"><text x="-3" y="-4" class="inputPortLabel cell_\57">WR_ADDR</text></g><g transform="translate(0,130)" s:x="0" s:y="10" s:pid="in0" id="port_\57~WR_CLK"><text x="-3" y="-4" class="inputPortLabel cell_\57">WR_CLK</text></g><g transform="translate(0,150)" s:x="0" s:y="10" s:pid="in0" id="port_\57~WR_DATA"><text x="-3" y="-4" class="inputPortLabel cell_\57">WR_DATA</text></g><g transform="translate(0,170)" s:x="0" s:y="10" s:pid="in0" id="port_\57~WR_EN"><text x="-3" y="-4" class="inputPortLabel cell_\57">WR_EN</text></g><g transform="translate(30,10)" s:x="30" s:y="10" s:pid="out0" id="port_\57~RD_DATA"><text x="5" y="-4" style="fill:#000; stroke:none" class="cell_\57">RD_DATA</text></g></g><g s:type="eq" transform="translate(975,150)" s:width="25" s:height="25" id="cell_\6"><s:alias val="$eq"/><s:alias val="$eqx"/><circle r="12.5" cx="12.5" cy="12.5" class="cell_\6"/><line x1="7.5" x2="17.5" y1="10" y2="10" class="cell_\6"/><line x1="7.5" x2="17.5" y1="15" y2="15" class="cell_\6"/><g s:x="2" s:y="5" s:pid="A"/><g s:x="2" s:y="20" s:pid="B"/><g s:x="25" s:y="12.5" s:pid="Y"/></g><g s:type="mux-bus" transform="translate(273,580)" s:width="24" s:height="40" id="cell_\61"><s:alias val="$pmux-bus"/><s:alias val="$mux-bus"/><s:alias val="$_MUX_-bus"/><path d="M0,0 L20,10 L20,30 L0,40 Z" class="cell_\61"/><path d="M4,2 L4,0 L22,9 L22,31 L4,40 L4,38" class="cell_\61"/><path d="M8,2 L8,0 L24,8 L24,32 L8,40 L8,38" class="cell_\61"/><text x="5" y="32" class="nodelabel cell_\61" s:attribute="">1</text><text x="5" y="13" class="nodelabel cell_\61" s:attribute="">0</text><g s:x="-1" s:y="10" s:pid="A"/><g s:x="-1" s:y="30" s:pid="B"/><g s:x="12" s:y="38" s:pid="S"/><g s:x="24.5" s:y="20" s:pid="Y"/></g><g s:type="add" transform="translate(913.3333333333334,34)" s:width="25" s:height="25" id="cell_\8"><s:alias val="$add"/><circle r="12.5" cx="12.5" cy="12.5" class="cell_\8"/><line x1="7.5" x2="17.5" y1="12.5" y2="12.5" class="cell_\8"/><line x1="12.5" x2="12.5" y1="7.5" y2="17.5" class="cell_\8"/><g s:x="2" s:y="5" s:pid="A"/><g s:x="2" s:y="20" s:pid="B"/><g s:x="26" s:y="12.5" s:pid="Y"/></g><g s:type="inputExt" transform="translate(12,165)" s:width="30" s:height="20" id="cell_i_clk"><text x="15" y="-4" class="nodelabel cell_i_clk" s:attribute="ref">i_clk</text><s:alias val="$_inputExt_"/><path d="M0,0 L0,20 L15,20 L30,10 L15,0 Z" class="cell_i_clk"/><g s:x="30" s:y="10" s:pid="Y"/></g><g s:type="inputExt" transform="translate(1101,156)" s:width="30" s:height="20" id="cell_i_clk_ena"><text x="15" y="-4" class="nodelabel cell_i_clk_ena" s:attribute="ref">i_clk_ena</text><s:alias val="$_inputExt_"/><path d="M0,0 L0,20 L15,20 L30,10 L15,0 Z" class="cell_i_clk_ena"/><g s:x="30" s:y="10" s:pid="Y"/></g><g s:type="inputExt" transform="translate(12,706)" s:width="30" s:height="20" id="cell_i_digits"><text x="15" y="-4" class="nodelabel cell_i_digits" s:attribute="ref">i_digits</text><s:alias val="$_inputExt_"/><path d="M0,0 L0,20 L15,20 L30,10 L15,0 Z" class="cell_i_digits"/><g s:x="30" s:y="10" s:pid="Y"/></g><g s:type="outputExt" transform="translate(1191,205)" s:width="30" s:height="20" id="cell_o_segments"><text x="15" y="-4" class="nodelabel cell_o_segments" s:attribute="ref">o_segments</text><s:alias val="$_outputExt_"/><path d="M30,0 L30,20 L15,20 L0,10 L15,0 Z" class="cell_o_segments"/><g s:x="0" s:y="10" s:pid="A"/></g><g s:type="outputExt" transform="translate(1190,270)" s:width="30" s:height="20" id="cell_o_digit_enable"><text x="15" y="-4" class="nodelabel cell_o_digit_enable" s:attribute="ref">o_digit_enable</text><s:alias val="$_outputExt_"/><path d="M30,0 L30,20 L15,20 L0,10 L15,0 Z" class="cell_o_digit_enable"/><g s:x="0" s:y="10" s:pid="A"/></g><g s:type="constant" transform="translate(909,104)" s:width="30" s:height="20" id="cell_00000000000000000000000000000000"><text x="15" y="-4" class="nodelabel cell_00000000000000000000000000000000" s:attribute="ref">0x0</text><s:alias val="$_constant_"/><rect width="30" height="20" class="cell_00000000000000000000000000000000"/><g s:x="31" s:y="10" s:pid="Y"/></g><g s:type="constant" transform="translate(536.5,322)" s:width="30" s:height="20" id="cell_1"><text x="15" y="-4" class="nodelabel cell_1" s:attribute="ref">1</text><s:alias val="$_constant_"/><rect width="30" height="20" class="cell_1"/><g s:x="31" s:y="10" s:pid="Y"/></g><g s:type="constant" transform="translate(536.5,415.5)" s:width="30" s:height="20" id="cell_0"><text x="15" y="-4" class="nodelabel cell_0" s:attribute="ref">0</text><s:alias val="$_constant_"/><rect width="30" height="20" class="cell_0"/><g s:x="31" s:y="10" s:pid="Y"/></g><g s:type="constant" transform="translate(371.5,524.5)" s:width="30" s:height="20" id="cell_1111"><text x="15" y="-4" class="nodelabel cell_1111" s:attribute="ref">0xf</text><s:alias val="$_constant_"/><rect width="30" height="20" class="cell_1111"/><g s:x="31" s:y="10" s:pid="Y"/></g><g s:type="constant" transform="translate(645.5,466.5)" s:width="30" s:height="20" id="cell_0000000"><text x="15" y="-4" class="nodelabel cell_0000000" s:attribute="ref">0x0</text><s:alias val="$_constant_"/><rect width="30" height="20" class="cell_0000000"/><g s:x="31" s:y="10" s:pid="Y"/></g><g s:type="join" transform="translate(920.3333333333334,425)" s:width="4" s:height="40" id="cell_$join$,149,141,142,143,144,145,146,147,"><rect width="5" height="40" class="splitjoinBody" s:generic="body"/><s:alias val="$_join_"/><g s:x="5" s:y="20" s:pid="out"/><g transform="translate(0,10)" s:x="0" s:y="10" s:pid="in0"><text x="-3" y="-4" class="inputPortLabel">0</text></g><g transform="translate(0,30)" s:x="0" s:y="10" s:pid="in0"><text x="-3" y="-4" class="inputPortLabel">1:7</text></g></g><g s:type="join" transform="translate(1046.3333333333333,259.5)" s:width="4" s:height="40" id="cell_$join$,24,25,"><rect width="5" height="40" class="splitjoinBody" s:generic="body"/><s:alias val="$_join_"/><g s:x="5" s:y="20" s:pid="out"/><g transform="translate(0,10)" s:x="0" s:y="10" s:pid="in0"><text x="-3" y="-4" class="inputPortLabel">0</text></g><g transform="translate(0,30)" s:x="0" s:y="10" s:pid="in0"><text x="-3" y="-4" class="inputPortLabel">1</text></g></g><g s:type="split" transform="translate(378.5,579.5)" s:width="5" s:height="40" id="cell_$split$,125,126,127,128,148,140,"><rect width="5" height="60" class="splitjoinBody" s:generic="body"/><s:alias val="$_split_"/><g s:x="0" s:y="20" s:pid="in"/><g transform="translate(4,10)" s:x="4" s:y="10" s:pid="out0"><text x="5" y="-4">0:3</text></g><g transform="translate(4,30)" s:x="4" s:y="10" s:pid="out0"><text x="5" y="-4">5</text></g><g transform="translate(4,50)" s:x="4" s:y="10" s:pid="out0"><text x="5" y="-4">4</text></g></g><g s:type="split" transform="translate(166,695.5)" s:width="5" s:height="40" id="cell_$split$,4,5,6,7,8,9,10,11,12,13,14,15,"><rect width="5" height="40" class="splitjoinBody" s:generic="body"/><s:alias val="$_split_"/><g s:x="0" s:y="20" s:pid="in"/><g transform="translate(4,10)" s:x="4" s:y="10" s:pid="out0"><text x="5" y="-4">0:5</text></g><g transform="translate(4,30)" s:x="4" s:y="10" s:pid="out0"><text x="5" y="-4">6:11</text></g></g><g s:type="split" transform="translate(225,619.5)" s:width="5" s:height="40" id="cell_$split$,91,92,93,94,95,96,97,98,99,100,101,102,103,104,105,106,107,108,109,110,111,112,113,114,115,116,117,118,119,120,121,122,"><rect width="5" height="20" class="splitjoinBody" s:generic="body"/><s:alias val="$_split_"/><g s:x="0" s:y="20" s:pid="in"/><g transform="translate(4,10)" s:x="4" s:y="10" s:pid="out0"><text x="5" y="-4">0</text></g></g><line x1="939.3333333333334" x2="1038.6666666666667" y1="46.5" y2="46.5" class="net_26,27,28,29,30,31,32,33,34,35,36,37,38,39,40,41,42,43,44,45,46,47,48,49,50,51,52,53,54,55,56,57 width_32" style="stroke-width: 2"/><line x1="940" x2="1010" y1="114" y2="114" class="net_182,183,184,185,186,187,188,189,190,191,192,193,194,195,196,197,198,199,200,201,202,203,204,205,206,207,208,209,210,211,212,213 width_32" style="stroke-width: 2"/><line x1="1010" x2="1010" y1="114" y2="66.5" class="net_182,183,184,185,186,187,188,189,190,191,192,193,194,195,196,197,198,199,200,201,202,203,204,205,206,207,208,209,210,211,212,213 width_32" style="stroke-width: 2"/><line x1="1010" x2="1038.6666666666667" y1="66.5" y2="66.5" class="net_182,183,184,185,186,187,188,189,190,191,192,193,194,195,196,197,198,199,200,201,202,203,204,205,206,207,208,209,210,211,212,213 width_32" style="stroke-width: 2"/><line x1="1000" x2="1051.6666666666667" y1="162.5" y2="162.5" class="net_58 width_1" style="stroke-width: 1"/><line x1="1051.6666666666667" x2="1051.6666666666667" y1="162.5" y2="74.5" class="net_58 width_1" style="stroke-width: 1"/><line x1="131" x2="412.5" y1="155" y2="155" class="net_91,92,93,94,95,96,97,98,99,100,101,102,103,104,105,106,107,108,109,110,111,112,113,114,115,116,117,118,119,120,121,122 width_32" style="stroke-width: 2"/><line x1="412.5" x2="412.5" y1="155" y2="301" class="net_91,92,93,94,95,96,97,98,99,100,101,102,103,104,105,106,107,108,109,110,111,112,113,114,115,116,117,118,119,120,121,122 width_32" style="stroke-width: 2"/><circle cx="412.5" cy="155" r="3" style="fill:#000" class="net_91,92,93,94,95,96,97,98,99,100,101,102,103,104,105,106,107,108,109,110,111,112,113,114,115,116,117,118,119,120,121,122 width_32"/><line x1="412.5" x2="909" y1="301" y2="301" class="net_91,92,93,94,95,96,97,98,99,100,101,102,103,104,105,106,107,108,109,110,111,112,113,114,115,116,117,118,119,120,121,122 width_32" style="stroke-width: 2"/><line x1="131" x2="141" y1="155" y2="155" class="net_91,92,93,94,95,96,97,98,99,100,101,102,103,104,105,106,107,108,109,110,111,112,113,114,115,116,117,118,119,120,121,122 width_32" style="stroke-width: 2"/><line x1="141" x2="141" y1="155" y2="746.5" class="net_91,92,93,94,95,96,97,98,99,100,101,102,103,104,105,106,107,108,109,110,111,112,113,114,115,116,117,118,119,120,121,122 width_32" style="stroke-width: 2"/><line x1="141" x2="884" y1="746.5" y2="746.5" class="net_91,92,93,94,95,96,97,98,99,100,101,102,103,104,105,106,107,108,109,110,111,112,113,114,115,116,117,118,119,120,121,122 width_32" style="stroke-width: 2"/><line x1="884" x2="884" y1="746.5" y2="383" class="net_91,92,93,94,95,96,97,98,99,100,101,102,103,104,105,106,107,108,109,110,111,112,113,114,115,116,117,118,119,120,121,122 width_32" style="stroke-width: 2"/><circle cx="141" cy="155" r="3" style="fill:#000" class="net_91,92,93,94,95,96,97,98,99,100,101,102,103,104,105,106,107,108,109,110,111,112,113,114,115,116,117,118,119,120,121,122 width_32"/><line x1="884" x2="915.3333333333334" y1="383" y2="383" class="net_91,92,93,94,95,96,97,98,99,100,101,102,103,104,105,106,107,108,109,110,111,112,113,114,115,116,117,118,119,120,121,122 width_32" style="stroke-width: 2"/><line x1="131" x2="141" y1="155" y2="155" class="net_91,92,93,94,95,96,97,98,99,100,101,102,103,104,105,106,107,108,109,110,111,112,113,114,115,116,117,118,119,120,121,122 width_32" style="stroke-width: 2"/><line x1="141" x2="141" y1="155" y2="22" class="net_91,92,93,94,95,96,97,98,99,100,101,102,103,104,105,106,107,108,109,110,111,112,113,114,115,116,117,118,119,120,121,122 width_32" style="stroke-width: 2"/><line x1="141" x2="1190" y1="22" y2="22" class="net_91,92,93,94,95,96,97,98,99,100,101,102,103,104,105,106,107,108,109,110,111,112,113,114,115,116,117,118,119,120,121,122 width_32" style="stroke-width: 2"/><line x1="131" x2="977" y1="155" y2="155" class="net_91,92,93,94,95,96,97,98,99,100,101,102,103,104,105,106,107,108,109,110,111,112,113,114,115,116,117,118,119,120,121,122 width_32" style="stroke-width: 2"/><line x1="131" x2="141" y1="155" y2="155" class="net_91,92,93,94,95,96,97,98,99,100,101,102,103,104,105,106,107,108,109,110,111,112,113,114,115,116,117,118,119,120,121,122 width_32" style="stroke-width: 2"/><line x1="141" x2="141" y1="155" y2="22" class="net_91,92,93,94,95,96,97,98,99,100,101,102,103,104,105,106,107,108,109,110,111,112,113,114,115,116,117,118,119,120,121,122 width_32" style="stroke-width: 2"/><line x1="141" x2="412.5" y1="22" y2="22" class="net_91,92,93,94,95,96,97,98,99,100,101,102,103,104,105,106,107,108,109,110,111,112,113,114,115,116,117,118,119,120,121,122 width_32" style="stroke-width: 2"/><line x1="412.5" x2="412.5" y1="22" y2="39" class="net_91,92,93,94,95,96,97,98,99,100,101,102,103,104,105,106,107,108,109,110,111,112,113,114,115,116,117,118,119,120,121,122 width_32" style="stroke-width: 2"/><circle cx="412.5" cy="22" r="3" style="fill:#000" class="net_91,92,93,94,95,96,97,98,99,100,101,102,103,104,105,106,107,108,109,110,111,112,113,114,115,116,117,118,119,120,121,122 width_32"/><line x1="412.5" x2="915.3333333333334" y1="39" y2="39" class="net_91,92,93,94,95,96,97,98,99,100,101,102,103,104,105,106,107,108,109,110,111,112,113,114,115,116,117,118,119,120,121,122 width_32" style="stroke-width: 2"/><line x1="131" x2="141" y1="155" y2="155" class="net_91,92,93,94,95,96,97,98,99,100,101,102,103,104,105,106,107,108,109,110,111,112,113,114,115,116,117,118,119,120,121,122 width_32" style="stroke-width: 2"/><line x1="141" x2="141" y1="155" y2="652.5" class="net_91,92,93,94,95,96,97,98,99,100,101,102,103,104,105,106,107,108,109,110,111,112,113,114,115,116,117,118,119,120,121,122 width_32" style="stroke-width: 2"/><line x1="141" x2="225.5" y1="652.5" y2="652.5" class="net_91,92,93,94,95,96,97,98,99,100,101,102,103,104,105,106,107,108,109,110,111,112,113,114,115,116,117,118,119,120,121,122 width_32" style="stroke-width: 2"/><circle cx="141" cy="652.5" r="3" style="fill:#000" class="net_91,92,93,94,95,96,97,98,99,100,101,102,103,104,105,106,107,108,109,110,111,112,113,114,115,116,117,118,119,120,121,122 width_32"/><line x1="225.5" x2="225.5" y1="652.5" y2="640.5" class="net_91,92,93,94,95,96,97,98,99,100,101,102,103,104,105,106,107,108,109,110,111,112,113,114,115,116,117,118,119,120,121,122 width_32" style="stroke-width: 2"/><line x1="567.5" x2="577.5" y1="332" y2="332" class="net_214 width_1" style="stroke-width: 1"/><line x1="577.5" x2="577.5" y1="332" y2="260" class="net_214 width_1" style="stroke-width: 1"/><circle cx="577.5" cy="332" r="2" style="fill:#000" class="net_214 width_1"/><circle cx="577.5" cy="260" r="2" style="fill:#000" class="net_214 width_1"/><line x1="577.5" x2="976.6666666666666" y1="260" y2="260" class="net_214 width_1" style="stroke-width: 1"/><line x1="567.5" x2="577.5" y1="332" y2="332" class="net_214 width_1" style="stroke-width: 1"/><line x1="577.5" x2="577.5" y1="332" y2="368" class="net_214 width_1" style="stroke-width: 1"/><circle cx="577.5" cy="368" r="2" style="fill:#000" class="net_214 width_1"/><line x1="577.5" x2="915.3333333333334" y1="368" y2="368" class="net_214 width_1" style="stroke-width: 1"/><line x1="567.5" x2="976.6666666666666" y1="332" y2="332" class="net_214 width_1" style="stroke-width: 1"/><line x1="567.5" x2="577.5" y1="332" y2="332" class="net_214 width_1" style="stroke-width: 1"/><line x1="577.5" x2="577.5" y1="332" y2="602" class="net_214 width_1" style="stroke-width: 1"/><line x1="577.5" x2="645.5" y1="602" y2="602" class="net_214 width_1" style="stroke-width: 1"/><line x1="567.5" x2="577.5" y1="332" y2="332" class="net_214 width_1" style="stroke-width: 1"/><line x1="577.5" x2="577.5" y1="332" y2="260" class="net_214 width_1" style="stroke-width: 1"/><line x1="577.5" x2="950" y1="260" y2="260" class="net_214 width_1" style="stroke-width: 1"/><line x1="950" x2="950" y1="260" y2="170" class="net_214 width_1" style="stroke-width: 1"/><circle cx="950" cy="260" r="2" style="fill:#000" class="net_214 width_1"/><line x1="950" x2="977" y1="170" y2="170" class="net_214 width_1" style="stroke-width: 1"/><line x1="567.5" x2="577.5" y1="332" y2="332" class="net_214 width_1" style="stroke-width: 1"/><line x1="577.5" x2="577.5" y1="332" y2="54" class="net_214 width_1" style="stroke-width: 1"/><line x1="577.5" x2="915.3333333333334" y1="54" y2="54" class="net_214 width_1" style="stroke-width: 1"/><line x1="567.5" x2="587.5" y1="425.5" y2="425.5" class="net_215 width_1" style="stroke-width: 1"/><line x1="587.5" x2="587.5" y1="425.5" y2="280" class="net_215 width_1" style="stroke-width: 1"/><circle cx="587.5" cy="425.5" r="2" style="fill:#000" class="net_215 width_1"/><line x1="587.5" x2="976.6666666666666" y1="280" y2="280" class="net_215 width_1" style="stroke-width: 1"/><line x1="567.5" x2="587.5" y1="425.5" y2="425.5" class="net_215 width_1" style="stroke-width: 1"/><line x1="587.5" x2="587.5" y1="425.5" y2="352" class="net_215 width_1" style="stroke-width: 1"/><circle cx="587.5" cy="352" r="2" style="fill:#000" class="net_215 width_1"/><line x1="587.5" x2="976.6666666666666" y1="352" y2="352" class="net_215 width_1" style="stroke-width: 1"/><line x1="567.5" x2="854" y1="425.5" y2="425.5" class="net_215 width_1" style="stroke-width: 1"/><line x1="567.5" x2="587.5" y1="425.5" y2="425.5" class="net_215 width_1" style="stroke-width: 1"/><line x1="587.5" x2="587.5" y1="425.5" y2="562" class="net_215 width_1" style="stroke-width: 1"/><circle cx="587.5" cy="562" r="2" style="fill:#000" class="net_215 width_1"/><line x1="587.5" x2="645.5" y1="562" y2="562" class="net_215 width_1" style="stroke-width: 1"/><line x1="567.5" x2="587.5" y1="425.5" y2="425.5" class="net_215 width_1" style="stroke-width: 1"/><line x1="587.5" x2="587.5" y1="425.5" y2="582" class="net_215 width_1" style="stroke-width: 1"/><circle cx="587.5" cy="582" r="2" style="fill:#000" class="net_215 width_1"/><line x1="587.5" x2="645.5" y1="582" y2="582" class="net_215 width_1" style="stroke-width: 1"/><line x1="567.5" x2="587.5" y1="425.5" y2="425.5" class="net_215 width_1" style="stroke-width: 1"/><line x1="587.5" x2="587.5" y1="425.5" y2="622" class="net_215 width_1" style="stroke-width: 1"/><line x1="587.5" x2="645.5" y1="622" y2="622" class="net_215 width_1" style="stroke-width: 1"/><line x1="937" x2="986.6666666666666" y1="301" y2="301" class="net_123 width_1" style="stroke-width: 1"/><line x1="986.6666666666666" x2="986.6666666666666" y1="301" y2="285" class="net_123 width_1" style="stroke-width: 1"/><line x1="938.3333333333334" x2="986.6666666666666" y1="375.5" y2="375.5" class="net_124 width_1" style="stroke-width: 1"/><line x1="986.6666666666666" x2="986.6666666666666" y1="375.5" y2="357" class="net_124 width_1" style="stroke-width: 1"/><line x1="402.5" x2="478.5" y1="534.5" y2="534.5" class="net_219,220,221,222 width_4" style="stroke-width: 2"/><line x1="383.5" x2="451.5" y1="590" y2="590" class="net_125,126,127,128 width_4" style="stroke-width: 2"/><line x1="451.5" x2="451.5" y1="590" y2="549.5" class="net_125,126,127,128 width_4" style="stroke-width: 2"/><line x1="451.5" x2="478.5" y1="549.5" y2="549.5" class="net_125,126,127,128 width_4" style="stroke-width: 2"/><line x1="676.5" x2="793.5" y1="476.5" y2="476.5" class="net_223,224,225,226,227,228,229 width_7" style="stroke-width: 2"/><line x1="676.5" x2="768.5" y1="542" y2="542" class="net_133,134,135,136,137,138,139 width_7" style="stroke-width: 2"/><line x1="768.5" x2="768.5" y1="542" y2="496.5" class="net_133,134,135,136,137,138,139 width_7" style="stroke-width: 2"/><line x1="768.5" x2="793.5" y1="496.5" y2="496.5" class="net_133,134,135,136,137,138,139 width_7" style="stroke-width: 2"/><line x1="383.5" x2="422.5" y1="610" y2="610" class="net_140 width_1" style="stroke-width: 1"/><line x1="422.5" x2="422.5" y1="610" y2="724.5" class="net_140 width_1" style="stroke-width: 1"/><line x1="422.5" x2="806.5" y1="724.5" y2="724.5" class="net_140 width_1" style="stroke-width: 1"/><line x1="806.5" x2="806.5" y1="724.5" y2="504.5" class="net_140 width_1" style="stroke-width: 1"/><line x1="383.5" x2="422.5" y1="610" y2="610" class="net_140 width_1" style="stroke-width: 1"/><line x1="422.5" x2="422.5" y1="610" y2="724.5" class="net_140 width_1" style="stroke-width: 1"/><line x1="422.5" x2="768.5" y1="724.5" y2="724.5" class="net_140 width_1" style="stroke-width: 1"/><line x1="768.5" x2="768.5" y1="724.5" y2="734.5" class="net_140 width_1" style="stroke-width: 1"/><line x1="768.5" x2="864" y1="734.5" y2="734.5" class="net_140 width_1" style="stroke-width: 1"/><circle cx="768.5" cy="724.5" r="2" style="fill:#000" class="net_140 width_1"/><line x1="864" x2="864" y1="734.5" y2="450.5" class="net_140 width_1" style="stroke-width: 1"/><line x1="383.5" x2="412.5" y1="630" y2="630" class="net_148 width_1" style="stroke-width: 1"/><line x1="412.5" x2="412.5" y1="630" y2="445.5" class="net_148 width_1" style="stroke-width: 1"/><line x1="412.5" x2="854" y1="445.5" y2="445.5" class="net_148 width_1" style="stroke-width: 1"/><line x1="926.3333333333334" x2="1035" y1="445.5" y2="445.5" class="net_149,141,142,143,144,145,146,147 width_8" style="stroke-width: 2"/><line x1="1064.1666666666667" x2="1165" y1="56.5" y2="56.5" class="net_59,60,61,62,63,64,65,66,67,68,69,70,71,72,73,74,75,76,77,78,79,80,81,82,83,84,85,86,87,88,89,90 width_32" style="stroke-width: 2"/><line x1="1165" x2="1165" y1="56.5" y2="42" class="net_59,60,61,62,63,64,65,66,67,68,69,70,71,72,73,74,75,76,77,78,79,80,81,82,83,84,85,86,87,88,89,90 width_32" style="stroke-width: 2"/><line x1="1165" x2="1190" y1="42" y2="42" class="net_59,60,61,62,63,64,65,66,67,68,69,70,71,72,73,74,75,76,77,78,79,80,81,82,83,84,85,86,87,88,89,90 width_32" style="stroke-width: 2"/><line x1="1131" x2="1203" y1="166" y2="166" class="net_3 width_1" style="stroke-width: 1"/><line x1="1203" x2="1203" y1="166" y2="50" class="net_3 width_1" style="stroke-width: 1"/><line x1="42" x2="95" y1="175" y2="175" class="net_2 width_1" style="stroke-width: 1"/><line x1="1215.5" x2="1284" y1="32" y2="32" class="net_150,151,152,153,154,155,156,157,158,159,160,161,162,163,164,165,166,167,168,169,170,171,172,173,174,175,176,177,178,179,180,181 width_32" style="stroke-width: 2"/><line x1="1284" x2="1284" y1="32" y2="135" class="net_150,151,152,153,154,155,156,157,158,159,160,161,162,163,164,165,166,167,168,169,170,171,172,173,174,175,176,177,178,179,180,181 width_32" style="stroke-width: 2"/><line x1="1284" x2="70" y1="135" y2="135" class="net_150,151,152,153,154,155,156,157,158,159,160,161,162,163,164,165,166,167,168,169,170,171,172,173,174,175,176,177,178,179,180,181 width_32" style="stroke-width: 2"/><line x1="70" x2="70" y1="135" y2="155" class="net_150,151,152,153,154,155,156,157,158,159,160,161,162,163,164,165,166,167,168,169,170,171,172,173,174,175,176,177,178,179,180,181 width_32" style="stroke-width: 2"/><line x1="70" x2="95" y1="155" y2="155" class="net_150,151,152,153,154,155,156,157,158,159,160,161,162,163,164,165,166,167,168,169,170,171,172,173,174,175,176,177,178,179,180,181 width_32" style="stroke-width: 2"/><line x1="501.5" x2="645.5" y1="542" y2="542" class="net_129,130,131,132 width_4" style="stroke-width: 2"/><line x1="577.5" x2="645.5" y1="642" y2="642" class="net_ width_1" style="stroke-width: 1"/><line x1="577.5" x2="577.5" y1="642" y2="662" class="net_ width_1" style="stroke-width: 1"/><circle cx="577.5" cy="662" r="2" style="fill:#000" class="net_ width_1"/><line x1="577.5" x2="645.5" y1="662" y2="662" class="net_ width_1" style="stroke-width: 1"/><line x1="577.5" x2="577.5" y1="642" y2="682" class="net_ width_1" style="stroke-width: 1"/><circle cx="577.5" cy="682" r="2" style="fill:#000" class="net_ width_1"/><line x1="577.5" x2="645.5" y1="682" y2="682" class="net_ width_1" style="stroke-width: 1"/><line x1="577.5" x2="577.5" y1="642" y2="702" class="net_ width_1" style="stroke-width: 1"/><line x1="577.5" x2="645.5" y1="702" y2="702" class="net_ width_1" style="stroke-width: 1"/><line x1="171" x2="247" y1="706" y2="706" class="net_4,5,6,7,8,9 width_6" style="stroke-width: 2"/><line x1="247" x2="247" y1="706" y2="590" class="net_4,5,6,7,8,9 width_6" style="stroke-width: 2"/><line x1="247" x2="272" y1="590" y2="590" class="net_4,5,6,7,8,9 width_6" style="stroke-width: 2"/><line x1="171" x2="257" y1="726" y2="726" class="net_10,11,12,13,14,15 width_6" style="stroke-width: 2"/><line x1="257" x2="257" y1="726" y2="610" class="net_10,11,12,13,14,15 width_6" style="stroke-width: 2"/><line x1="257" x2="272" y1="610" y2="610" class="net_10,11,12,13,14,15 width_6" style="stroke-width: 2"/><line x1="230" x2="285" y1="630" y2="630" class="net_91 width_1" style="stroke-width: 1"/><line x1="285" x2="285" y1="630" y2="618" class="net_91 width_1" style="stroke-width: 1"/><line x1="1063" x2="1076" y1="445.5" y2="445.5" class="net_16,17,18,19,20,21,22,23 width_8" style="stroke-width: 2"/><line x1="1076" x2="1076" y1="445.5" y2="215" class="net_16,17,18,19,20,21,22,23 width_8" style="stroke-width: 2"/><line x1="1076" x2="1191" y1="215" y2="215" class="net_16,17,18,19,20,21,22,23 width_8" style="stroke-width: 2"/><line x1="1052.3333333333333" x2="1190" y1="280" y2="280" class="net_24,25 width_2" style="stroke-width: 2"/><line x1="874" x2="920.3333333333334" y1="435.5" y2="435.5" class="net_149 width_1" style="stroke-width: 1"/><line x1="819" x2="829" y1="486.5" y2="486.5" class="net_141,142,143,144,145,146,147 width_7" style="stroke-width: 2"/><line x1="829" x2="829" y1="486.5" y2="761.5" class="net_141,142,143,144,145,146,147 width_7" style="stroke-width: 2"/><line x1="829" x2="894" y1="761.5" y2="761.5" class="net_141,142,143,144,145,146,147 width_7" style="stroke-width: 2"/><line x1="894" x2="894" y1="761.5" y2="455.5" class="net_141,142,143,144,145,146,147 width_7" style="stroke-width: 2"/><line x1="894" x2="920.3333333333334" y1="455.5" y2="455.5" class="net_141,142,143,144,145,146,147 width_7" style="stroke-width: 2"/><line x1="996.6666666666666" x2="1046.3333333333333" y1="270" y2="270" class="net_24 width_1" style="stroke-width: 1"/><line x1="996.6666666666666" x2="1010" y1="342" y2="342" class="net_25 width_1" style="stroke-width: 1"/><line x1="1010" x2="1010" y1="342" y2="290" class="net_25 width_1" style="stroke-width: 1"/><line x1="1010" x2="1046.3333333333333" y1="290" y2="290" class="net_25 width_1" style="stroke-width: 1"/><line x1="297.5" x2="378.5" y1="600" y2="600" class="net_125,126,127,128,148,140 width_6" style="stroke-width: 2"/><line x1="42" x2="166" y1="716" y2="716" class="net_4,5,6,7,8,9,10,11,12,13,14,15 width_12" style="stroke-width: 2"/><rect x="986.5" y="41.5" width="22" height="9" class="net_26,27,28,29,30,31,32,33,34,35,36,37,38,39,40,41,42,43,44,45,46,47,48,49,50,51,52,53,54,55,56,57 width_32 busLabel_32" style="fill: white; stroke: none"/><text x="985.5" y="49.5" class="net_26,27,28,29,30,31,32,33,34,35,36,37,38,39,40,41,42,43,44,45,46,47,48,49,50,51,52,53,54,55,56,57 width_32 busLabel_32">/32/</text><rect x="986.5" y="109" width="22" height="9" class="net_182,183,184,185,186,187,188,189,190,191,192,193,194,195,196,197,198,199,200,201,202,203,204,205,206,207,208,209,210,211,212,213 width_32 busLabel_32" style="fill: white; stroke: none"/><text x="985.5" y="117" class="net_182,183,184,185,186,187,188,189,190,191,192,193,194,195,196,197,198,199,200,201,202,203,204,205,206,207,208,209,210,211,212,213 width_32 busLabel_32">/32/</text><rect x="177" y="647.5" width="22" height="9" class="net_91,92,93,94,95,96,97,98,99,100,101,102,103,104,105,106,107,108,109,110,111,112,113,114,115,116,117,118,119,120,121,122 width_32 busLabel_32" style="fill: white; stroke: none"/><text x="176" y="655.5" class="net_91,92,93,94,95,96,97,98,99,100,101,102,103,104,105,106,107,108,109,110,111,112,113,114,115,116,117,118,119,120,121,122 width_32 busLabel_32">/32/</text><rect x="177" y="647.5" width="22" height="9" class="net_91,92,93,94,95,96,97,98,99,100,101,102,103,104,105,106,107,108,109,110,111,112,113,114,115,116,117,118,119,120,121,122 width_32 busLabel_32" style="fill: white; stroke: none"/><text x="176" y="655.5" class="net_91,92,93,94,95,96,97,98,99,100,101,102,103,104,105,106,107,108,109,110,111,112,113,114,115,116,117,118,119,120,121,122 width_32 busLabel_32">/32/</text><rect x="177" y="647.5" width="22" height="9" class="net_91,92,93,94,95,96,97,98,99,100,101,102,103,104,105,106,107,108,109,110,111,112,113,114,115,116,117,118,119,120,121,122 width_32 busLabel_32" style="fill: white; stroke: none"/><text x="176" y="655.5" class="net_91,92,93,94,95,96,97,98,99,100,101,102,103,104,105,106,107,108,109,110,111,112,113,114,115,116,117,118,119,120,121,122 width_32 busLabel_32">/32/</text><rect x="177" y="647.5" width="22" height="9" class="net_91,92,93,94,95,96,97,98,99,100,101,102,103,104,105,106,107,108,109,110,111,112,113,114,115,116,117,118,119,120,121,122 width_32 busLabel_32" style="fill: white; stroke: none"/><text x="176" y="655.5" class="net_91,92,93,94,95,96,97,98,99,100,101,102,103,104,105,106,107,108,109,110,111,112,113,114,115,116,117,118,119,120,121,122 width_32 busLabel_32">/32/</text><rect x="177" y="647.5" width="22" height="9" class="net_91,92,93,94,95,96,97,98,99,100,101,102,103,104,105,106,107,108,109,110,111,112,113,114,115,116,117,118,119,120,121,122 width_32 busLabel_32" style="fill: white; stroke: none"/><text x="176" y="655.5" class="net_91,92,93,94,95,96,97,98,99,100,101,102,103,104,105,106,107,108,109,110,111,112,113,114,115,116,117,118,119,120,121,122 width_32 busLabel_32">/32/</text><rect x="177" y="647.5" width="22" height="9" class="net_91,92,93,94,95,96,97,98,99,100,101,102,103,104,105,106,107,108,109,110,111,112,113,114,115,116,117,118,119,120,121,122 width_32 busLabel_32" style="fill: white; stroke: none"/><text x="176" y="655.5" class="net_91,92,93,94,95,96,97,98,99,100,101,102,103,104,105,106,107,108,109,110,111,112,113,114,115,116,117,118,119,120,121,122 width_32 busLabel_32">/32/</text><rect x="438.5" y="529.5" width="16" height="9" class="net_219,220,221,222 width_4 busLabel_4" style="fill: white; stroke: none"/><text x="437.5" y="537.5" class="net_219,220,221,222 width_4 busLabel_4">/4/</text><rect x="438.5" y="585" width="16" height="9" class="net_125,126,127,128 width_4 busLabel_4" style="fill: white; stroke: none"/><text x="437.5" y="593" class="net_125,126,127,128 width_4 busLabel_4">/4/</text><rect x="755.5" y="471.5" width="16" height="9" class="net_223,224,225,226,227,228,229 width_7 busLabel_7" style="fill: white; stroke: none"/><text x="754.5" y="479.5" class="net_223,224,225,226,227,228,229 width_7 busLabel_7">/7/</text><rect x="755.5" y="537" width="16" height="9" class="net_133,134,135,136,137,138,139 width_7 busLabel_7" style="fill: white; stroke: none"/><text x="754.5" y="545" class="net_133,134,135,136,137,138,139 width_7 busLabel_7">/7/</text><rect x="986.5" y="440.5" width="16" height="9" class="net_149,141,142,143,144,145,146,147 width_8 busLabel_8" style="fill: white; stroke: none"/><text x="985.5" y="448.5" class="net_149,141,142,143,144,145,146,147 width_8 busLabel_8">/8/</text><rect x="1127" y="51.5" width="22" height="9" class="net_59,60,61,62,63,64,65,66,67,68,69,70,71,72,73,74,75,76,77,78,79,80,81,82,83,84,85,86,87,88,89,90 width_32 busLabel_32" style="fill: white; stroke: none"/><text x="1126" y="59.5" class="net_59,60,61,62,63,64,65,66,67,68,69,70,71,72,73,74,75,76,77,78,79,80,81,82,83,84,85,86,87,88,89,90 width_32 busLabel_32">/32/</text><rect x="551" y="130" width="22" height="9" class="net_150,151,152,153,154,155,156,157,158,159,160,161,162,163,164,165,166,167,168,169,170,171,172,173,174,175,176,177,178,179,180,181 width_32 busLabel_32" style="fill: white; stroke: none"/><text x="550" y="138" class="net_150,151,152,153,154,155,156,157,158,159,160,161,162,163,164,165,166,167,168,169,170,171,172,173,174,175,176,177,178,179,180,181 width_32 busLabel_32">/32/</text><rect x="551" y="537" width="16" height="9" class="net_129,130,131,132 width_4 busLabel_4" style="fill: white; stroke: none"/><text x="550" y="545" class="net_129,130,131,132 width_4 busLabel_4">/4/</text><rect x="230" y="701" width="16" height="9" class="net_4,5,6,7,8,9 width_6 busLabel_6" style="fill: white; stroke: none"/><text x="229" y="709" class="net_4,5,6,7,8,9 width_6 busLabel_6">/6/</text><rect x="230" y="721" width="16" height="9" class="net_10,11,12,13,14,15 width_6 busLabel_6" style="fill: white; stroke: none"/><text x="229" y="729" class="net_10,11,12,13,14,15 width_6 busLabel_6">/6/</text><rect x="1127" y="210" width="16" height="9" class="net_16,17,18,19,20,21,22,23 width_8 busLabel_8" style="fill: white; stroke: none"/><text x="1126" y="218" class="net_16,17,18,19,20,21,22,23 width_8 busLabel_8">/8/</text><rect x="1127" y="275" width="16" height="9" class="net_24,25 width_2 busLabel_2" style="fill: white; stroke: none"/><text x="1126" y="283" class="net_24,25 width_2 busLabel_2">/2/</text><rect x="863" y="756.5" width="16" height="9" class="net_141,142,143,144,145,146,147 width_7 busLabel_7" style="fill: white; stroke: none"/><text x="862" y="764.5" class="net_141,142,143,144,145,146,147 width_7 busLabel_7">/7/</text><rect x="333.5" y="595" width="16" height="9" class="net_125,126,127,128,148,140 width_6 busLabel_6" style="fill: white; stroke: none"/><text x="332.5" y="603" class="net_125,126,127,128,148,140 width_6 busLabel_6">/6/</text><rect x="112" y="711" width="22" height="9" class="net_4,5,6,7,8,9,10,11,12,13,14,15 width_12 busLabel_12" style="fill: white; stroke: none"/><text x="111" y="719" class="net_4,5,6,7,8,9,10,11,12,13,14,15 width_12 busLabel_12">/12/</text></svg>