<svg xmlns="http://www.w3.org/2000/svg" xmlns:xlink="http://www.w3.org/1999/xlink" xmlns:s="https://github.com/nturley/netlistsvg" width="322" height="167.5"><rect width="100%" height="100%" fill="white"/><style>svg {
  stroke:#000;
  fill:none;
}
text {
  fill:#000;
  stroke:none;
  font-size:10px;
  font-weight: bold;
  font-family: "Courier New", monospace;
}
line {
    stroke-linecap: round;
}
.nodelabel {
  text-anchor: middle;
}
.inputPortLabel {
  text-anchor: end;
}
.splitjoinBody {
  fill:#000;
}</style><g s:type="dff-bus" transform="translate(78,111.5)" s:width="34" s:height="44" id="cell_\9"><s:alias val="$dff-bus"/><s:alias val="$_DFF_-bus"/><s:alias val="$_DFF_P_-bus"/><s:alias val="adff-bus"/><s:alias val="$adff-bus"/><s:alias val="$_DFF_-bus"/><s:alias val="$_DFF_P_-bus"/><s:alias val="sdff-bus"/><s:alias val="$sdff-bus"/><s:alias val="$_DFF_-bus"/><s:alias val="$_DFF_P_-bus"/><rect width="30" height="40" x="0" y="0" class="cell_\9"/><path d="M0,35 L5,30 L0,25" class="cell_\9"/><path d="M30,2 L32,2 L32,42 L2,42 L2,40" class="cell_\9"/><path d="M32,4 L34,4 L34,44 L4,44 L4,42" class="cell_\9"/><g s:x="35" s:y="10" s:pid="Q"/><g s:x="-1" s:y="30" s:pid="CLK"/><g s:x="-1" s:y="30" s:pid="C"/><g s:x="-1" s:y="10" s:pid="D"/><g s:x="17" s:y="44" s:pid="ARST"/><g s:x="17" s:y="44" s:pid="SRST"/></g><g s:type="inputExt" transform="translate(12,131.5)" s:width="30" s:height="20" id="cell_i_clk"><text x="15" y="-4" class="nodelabel cell_i_clk" s:attribute="ref">i_clk</text><s:alias val="$_inputExt_"/><path d="M0,0 L0,20 L15,20 L30,10 L15,0 Z" class="cell_i_clk"/><g s:x="30" s:y="10" s:pid="Y"/></g><g s:type="inputExt" transform="translate(187,37)" s:width="30" s:height="20" id="cell_i_async"><text x="15" y="-4" class="nodelabel cell_i_async" s:attribute="ref">i_async</text><s:alias val="$_inputExt_"/><path d="M0,0 L0,20 L15,20 L30,10 L15,0 Z" class="cell_i_async"/><g s:x="30" s:y="10" s:pid="Y"/></g><g s:type="outputExt" transform="translate(264,121.5)" s:width="30" s:height="20" id="cell_o_sync"><text x="15" y="-4" class="nodelabel cell_o_sync" s:attribute="ref">o_sync</text><s:alias val="$_outputExt_"/><path d="M30,0 L30,20 L15,20 L0,10 L15,0 Z" class="cell_o_sync"/><g s:x="0" s:y="10" s:pid="A"/></g><g s:type="join" transform="translate(271,36.5)" s:width="4" s:height="40" id="cell_$join$,3,5,"><rect width="5" height="40" class="splitjoinBody" s:generic="body"/><s:alias val="$_join_"/><g s:x="5" s:y="20" s:pid="out"/><g transform="translate(0,10)" s:x="0" s:y="10" s:pid="in0"><text x="-3" y="-4" class="inputPortLabel">0</text></g><g transform="translate(0,30)" s:x="0" s:y="10" s:pid="in0"><text x="-3" y="-4" class="inputPortLabel">1</text></g></g><g s:type="split" transform="translate(207.66666666666666,101)" s:width="5" s:height="40" id="cell_$split$,5,4,"><rect width="5" height="40" class="splitjoinBody" s:generic="body"/><s:alias val="$_split_"/><g s:x="0" s:y="20" s:pid="in"/><g transform="translate(4,10)" s:x="4" s:y="10" s:pid="out0"><text x="5" y="-4">0</text></g><g transform="translate(4,30)" s:x="4" s:y="10" s:pid="out0"><text x="5" y="-4">1</text></g></g><line x1="42" x2="77" y1="141.5" y2="141.5" class="net_2 width_1" style="stroke-width: 1"/><line x1="277" x2="310" y1="57" y2="57" class="net_3,5 width_2" style="stroke-width: 2"/><line x1="310" x2="310" y1="57" y2="16" class="net_3,5 width_2" style="stroke-width: 2"/><line x1="310" x2="52" y1="16" y2="16" class="net_3,5 width_2" style="stroke-width: 2"/><line x1="52" x2="52" y1="16" y2="121.5" class="net_3,5 width_2" style="stroke-width: 2"/><line x1="52" x2="77" y1="121.5" y2="121.5" class="net_3,5 width_2" style="stroke-width: 2"/><line x1="212.66666666666666" x2="264" y1="131.5" y2="131.5" class="net_4 width_1" style="stroke-width: 1"/><line x1="217" x2="271" y1="47" y2="47" class="net_3 width_1" style="stroke-width: 1"/><line x1="212.66666666666666" x2="239" y1="111.5" y2="111.5" class="net_5 width_1" style="stroke-width: 1"/><line x1="239" x2="239" y1="111.5" y2="67" class="net_5 width_1" style="stroke-width: 1"/><line x1="239" x2="271" y1="67" y2="67" class="net_5 width_1" style="stroke-width: 1"/><line x1="113" x2="207.66666666666666" y1="121.5" y2="121.5" class="net_5,4 width_2" style="stroke-width: 2"/><rect x="149" y="11" width="16" height="9" class="net_3,5 width_2 busLabel_2" style="fill: white; stroke: none"/><text x="148" y="19" class="net_3,5 width_2 busLabel_2">/2/</text><rect x="149" y="116.5" width="16" height="9" class="net_5,4 width_2 busLabel_2" style="fill: white; stroke: none"/><text x="148" y="124.5" class="net_5,4 width_2 busLabel_2">/2/</text></svg>