<svg xmlns="http://www.w3.org/2000/svg" xmlns:xlink="http://www.w3.org/1999/xlink" xmlns:s="https://github.com/nturley/netlistsvg" width="756" height="477"><rect width="100%" height="100%" fill="white"/><style>svg {
  stroke:#000;
  fill:none;
}
text {
  fill:#000;
  stroke:none;
  font-size:10px;
  font-weight: bold;
  font-family: "Courier New", monospace;
}
line {
    stroke-linecap: round;
}
.nodelabel {
  text-anchor: middle;
}
.inputPortLabel {
  text-anchor: end;
}
.splitjoinBody {
  fill:#000;
}</style><g s:type="eq" transform="translate(216.33333333333334,362.5)" s:width="25" s:height="25" id="cell_\10"><s:alias val="$eq"/><s:alias val="$eqx"/><circle r="12.5" cx="12.5" cy="12.5" class="cell_\10"/><line x1="7.5" x2="17.5" y1="10" y2="10" class="cell_\10"/><line x1="7.5" x2="17.5" y1="15" y2="15" class="cell_\10"/><g s:x="2" s:y="5" s:pid="A"/><g s:x="2" s:y="20" s:pid="B"/><g s:x="25" s:y="12.5" s:pid="Y"/></g><g s:type="mux" transform="translate(295.3333333333333,321.5)" s:width="20" s:height="40" id="cell_\11"><s:alias val="$pmux"/><s:alias val="$mux"/><s:alias val="$_MUX_"/><path d="M0,0 L20,10 L20,30 L0,40 Z" class="cell_\11"/><text x="5" y="32" class="nodelabel cell_\11" s:attribute="">1</text><text x="5" y="13" class="nodelabel cell_\11" s:attribute="">0</text><g s:x="0" s:y="10" s:pid="A"/><g s:x="0" s:y="30" s:pid="B"/><g s:x="10" s:y="35" s:pid="S"/><g s:x="20" s:y="20" s:pid="Y"/></g><g s:type="sub" transform="translate(216.33333333333334,74)" s:width="25" s:height="25" id="cell_\14"><s:alias val="$sub"/><circle r="12.5" cx="12.5" cy="12.5" class="cell_\14"/><line x1="7.5" x2="17.5" y1="12.5" y2="12.5" class="cell_\14"/><g s:x="2" s:y="5" s:pid="A"/><g s:x="2" s:y="20" s:pid="B"/><g s:x="25" s:y="12.5" s:pid="Y"/></g><g s:type="not" transform="translate(215,256.5)" s:width="30" s:height="20" id="cell_\17"><s:alias val="$_NOT_"/><s:alias val="$not"/><s:alias val="$logic_not"/><path d="M0,0 L0,20 L20,10 Z" class="cell_\17"/><circle cx="24" cy="10" r="3" class="cell_\17"/><g s:x="-1" s:y="10" s:pid="A"/><g s:x="27" s:y="10" s:pid="Y"/></g><g s:type="mux" transform="translate(295.3333333333333,187.5)" s:width="20" s:height="40" id="cell_\18"><s:alias val="$pmux"/><s:alias val="$mux"/><s:alias val="$_MUX_"/><path d="M0,0 L20,10 L20,30 L0,40 Z" class="cell_\18"/><text x="5" y="32" class="nodelabel cell_\18" s:attribute="">1</text><text x="5" y="13" class="nodelabel cell_\18" s:attribute="">0</text><g s:x="0" s:y="10" s:pid="A"/><g s:x="0" s:y="30" s:pid="B"/><g s:x="10" s:y="35" s:pid="S"/><g s:x="20" s:y="20" s:pid="Y"/></g><g s:type="mux-bus" transform="translate(389.3333333333333,116.5)" s:width="24" s:height="40" id="cell_\20"><s:alias val="$pmux-bus"/><s:alias val="$mux-bus"/><s:alias val="$_MUX_-bus"/><path d="M0,0 L20,10 L20,30 L0,40 Z" class="cell_\20"/><path d="M4,2 L4,0 L22,9 L22,31 L4,40 L4,38" class="cell_\20"/><path d="M8,2 L8,0 L24,8 L24,32 L8,40 L8,38" class="cell_\20"/><text x="5" y="32" class="nodelabel cell_\20" s:attribute="">1</text><text x="5" y="13" class="nodelabel cell_\20" s:attribute="">0</text><g s:x="-1" s:y="10" s:pid="A"/><g s:x="-1" s:y="30" s:pid="B"/><g s:x="12" s:y="38" s:pid="S"/><g s:x="24.5" s:y="20" s:pid="Y"/></g><g s:type="mux" transform="translate(390.6666666666667,311.5)" s:width="20" s:height="40" id="cell_\21"><s:alias val="$pmux"/><s:alias val="$mux"/><s:alias val="$_MUX_"/><path d="M0,0 L20,10 L20,30 L0,40 Z" class="cell_\21"/><text x="5" y="32" class="nodelabel cell_\21" s:attribute="">1</text><text x="5" y="13" class="nodelabel cell_\21" s:attribute="">0</text><g s:x="0" s:y="10" s:pid="A"/><g s:x="0" s:y="30" s:pid="B"/><g s:x="10" s:y="35" s:pid="S"/><g s:x="20" s:y="20" s:pid="Y"/></g><g s:type="mux-bus" transform="translate(543.6666666666666,106.5)" s:width="24" s:height="40" id="cell_\22"><s:alias val="$pmux-bus"/><s:alias val="$mux-bus"/><s:alias val="$_MUX_-bus"/><path d="M0,0 L20,10 L20,30 L0,40 Z" class="cell_\22"/><path d="M4,2 L4,0 L22,9 L22,31 L4,40 L4,38" class="cell_\22"/><path d="M8,2 L8,0 L24,8 L24,32 L8,40 L8,38" class="cell_\22"/><text x="5" y="32" class="nodelabel cell_\22" s:attribute="">1</text><text x="5" y="13" class="nodelabel cell_\22" s:attribute="">0</text><g s:x="-1" s:y="10" s:pid="A"/><g s:x="-1" s:y="30" s:pid="B"/><g s:x="12" s:y="38" s:pid="S"/><g s:x="24.5" s:y="20" s:pid="Y"/></g><g s:type="mux" transform="translate(474.6666666666667,301.5)" s:width="20" s:height="40" id="cell_\23"><s:alias val="$pmux"/><s:alias val="$mux"/><s:alias val="$_MUX_"/><path d="M0,0 L20,10 L20,30 L0,40 Z" class="cell_\23"/><text x="5" y="32" class="nodelabel cell_\23" s:attribute="">1</text><text x="5" y="13" class="nodelabel cell_\23" s:attribute="">0</text><g s:x="0" s:y="10" s:pid="A"/><g s:x="0" s:y="30" s:pid="B"/><g s:x="10" s:y="35" s:pid="S"/><g s:x="20" s:y="20" s:pid="Y"/></g><g s:type="mux-bus" transform="translate(675,230.5)" s:width="24" s:height="40" id="cell_\25"><s:alias val="$pmux-bus"/><s:alias val="$mux-bus"/><s:alias val="$_MUX_-bus"/><path d="M0,0 L20,10 L20,30 L0,40 Z" class="cell_\25"/><path d="M4,2 L4,0 L22,9 L22,31 L4,40 L4,38" class="cell_\25"/><path d="M8,2 L8,0 L24,8 L24,32 L8,40 L8,38" class="cell_\25"/><text x="5" y="32" class="nodelabel cell_\25" s:attribute="">1</text><text x="5" y="13" class="nodelabel cell_\25" s:attribute="">0</text><g s:x="-1" s:y="10" s:pid="A"/><g s:x="-1" s:y="30" s:pid="B"/><g s:x="12" s:y="38" s:pid="S"/><g s:x="24.5" s:y="20" s:pid="Y"/></g><g s:type="mux" transform="translate(545,395)" s:width="20" s:height="40" id="cell_\27"><s:alias val="$pmux"/><s:alias val="$mux"/><s:alias val="$_MUX_"/><path d="M0,0 L20,10 L20,30 L0,40 Z" class="cell_\27"/><text x="5" y="32" class="nodelabel cell_\27" s:attribute="">1</text><text x="5" y="13" class="nodelabel cell_\27" s:attribute="">0</text><g s:x="0" s:y="10" s:pid="A"/><g s:x="0" s:y="30" s:pid="B"/><g s:x="10" s:y="35" s:pid="S"/><g s:x="20" s:y="20" s:pid="Y"/></g><g s:type="dff-bus" transform="translate(78,129)" s:width="34" s:height="44" id="cell_\31"><s:alias val="$dff-bus"/><s:alias val="$_DFF_-bus"/><s:alias val="$_DFF_P_-bus"/><s:alias val="adff-bus"/><s:alias val="$adff-bus"/><s:alias val="$_DFF_-bus"/><s:alias val="$_DFF_P_-bus"/><s:alias val="sdff-bus"/><s:alias val="$sdff-bus"/><s:alias val="$_DFF_-bus"/><s:alias val="$_DFF_P_-bus"/><rect width="30" height="40" x="0" y="0" class="cell_\31"/><path d="M0,35 L5,30 L0,25" class="cell_\31"/><path d="M30,2 L32,2 L32,42 L2,42 L2,40" class="cell_\31"/><path d="M32,4 L34,4 L34,44 L4,44 L4,42" class="cell_\31"/><g s:x="35" s:y="10" s:pid="Q"/><g s:x="-1" s:y="30" s:pid="CLK"/><g s:x="-1" s:y="30" s:pid="C"/><g s:x="-1" s:y="10" s:pid="D"/><g s:x="17" s:y="44" s:pid="ARST"/><g s:x="17" s:y="44" s:pid="SRST"/></g><g s:type="dff" transform="translate(608,425)" s:width="30" s:height="40" id="cell_\32"><s:alias val="$dff"/><s:alias val="$_DFF_"/><s:alias val="$_DFF_P_"/><s:alias val="$adff"/><s:alias val="$_DFF_"/><s:alias val="$_DFF_P_"/><s:alias val="$sdff"/><s:alias val="$_DFF_"/><s:alias val="$_DFF_P_"/><rect width="30" height="40" x="0" y="0" class="cell_\32"/><path d="M0,35 L5,30 L0,25" class="cell_\32"/><g s:x="31" s:y="10" s:pid="Q"/><g s:x="-1" s:y="30" s:pid="CLK"/><g s:x="-1" s:y="30" s:pid="C"/><g s:x="-1" s:y="10" s:pid="D"/><g s:x="15" s:y="40" s:pid="ARST"/><g s:x="15" s:y="40" s:pid="SRST"/></g><g s:type="add" transform="translate(216.33333333333334,134)" s:width="25" s:height="25" id="cell_\7"><s:alias val="$add"/><circle r="12.5" cx="12.5" cy="12.5" class="cell_\7"/><line x1="7.5" x2="17.5" y1="12.5" y2="12.5" class="cell_\7"/><line x1="12.5" x2="12.5" y1="7.5" y2="17.5" class="cell_\7"/><g s:x="2" s:y="5" s:pid="A"/><g s:x="2" s:y="20" s:pid="B"/><g s:x="26" s:y="12.5" s:pid="Y"/></g><g s:type="inputExt" transform="translate(12,445)" s:width="30" s:height="20" id="cell_i_clk"><text x="15" y="-4" class="nodelabel cell_i_clk" s:attribute="ref">i_clk</text><s:alias val="$_inputExt_"/><path d="M0,0 L0,20 L15,20 L30,10 L15,0 Z" class="cell_i_clk"/><g s:x="30" s:y="10" s:pid="Y"/></g><g s:type="inputExt" transform="translate(381,220.5)" s:width="30" s:height="20" id="cell_i_enable"><text x="15" y="-4" class="nodelabel cell_i_enable" s:attribute="ref">i_enable</text><s:alias val="$_inputExt_"/><path d="M0,0 L0,20 L15,20 L30,10 L15,0 Z" class="cell_i_enable"/><g s:x="30" s:y="10" s:pid="Y"/></g><g s:type="inputExt" transform="translate(280,395)" s:width="30" s:height="20" id="cell_i_direction"><text x="15" y="-4" class="nodelabel cell_i_direction" s:attribute="ref">i_direction</text><s:alias val="$_inputExt_"/><path d="M0,0 L0,20 L15,20 L30,10 L15,0 Z" class="cell_i_direction"/><g s:x="30" s:y="10" s:pid="Y"/></g><g s:type="inputExt" transform="translate(464,395)" s:width="30" s:height="20" id="cell_i_reset"><text x="15" y="-4" class="nodelabel cell_i_reset" s:attribute="ref">i_reset</text><s:alias val="$_inputExt_"/><path d="M0,0 L0,20 L15,20 L30,10 L15,0 Z" class="cell_i_reset"/><g s:x="30" s:y="10" s:pid="Y"/></g><g s:type="outputExt" transform="translate(675,36)" s:width="30" s:height="20" id="cell_o_count"><text x="15" y="-4" class="nodelabel cell_o_count" s:attribute="ref">o_count</text><s:alias val="$_outputExt_"/><path d="M30,0 L30,20 L15,20 L0,10 L15,0 Z" class="cell_o_count"/><g s:x="0" s:y="10" s:pid="A"/></g><g s:type="outputExt" transform="translate(674,425)" s:width="30" s:height="20" id="cell_o_overflow"><text x="15" y="-4" class="nodelabel cell_o_overflow" s:attribute="ref">o_overflow</text><s:alias val="$_outputExt_"/><path d="M30,0 L30,20 L15,20 L0,10 L15,0 Z" class="cell_o_overflow"/><g s:x="0" s:y="10" s:pid="A"/></g><g s:type="constant" transform="translate(82,372.5)" s:width="30" s:height="20" id="cell_1111"><text x="15" y="-4" class="nodelabel cell_1111" s:attribute="ref">0xf</text><s:alias val="$_constant_"/><rect width="30" height="20" class="cell_1111"/><g s:x="31" s:y="10" s:pid="Y"/></g><g s:type="constant" transform="translate(214,321.5)" s:width="30" s:height="20" id="cell_0"><text x="15" y="-4" class="nodelabel cell_0" s:attribute="ref">0</text><s:alias val="$_constant_"/><rect width="30" height="20" class="cell_0"/><g s:x="31" s:y="10" s:pid="Y"/></g><g s:type="constant" transform="translate(148,207.5)" s:width="30" s:height="20" id="cell_1"><text x="15" y="-4" class="nodelabel cell_1" s:attribute="ref">1</text><s:alias val="$_constant_"/><rect width="30" height="20" class="cell_1"/><g s:x="31" s:y="10" s:pid="Y"/></g><g s:type="constant" transform="translate(541,250.5)" s:width="30" s:height="20" id="cell_0000"><text x="15" y="-4" class="nodelabel cell_0000" s:attribute="ref">0x0</text><s:alias val="$_constant_"/><rect width="30" height="20" class="cell_0000"/><g s:x="31" s:y="10" s:pid="Y"/></g><line x1="113" x2="123" y1="139" y2="139" class="net_6,7,8,9 width_4" style="stroke-width: 2"/><line x1="123" x2="123" y1="139" y2="362.5" class="net_6,7,8,9 width_4" style="stroke-width: 2"/><line x1="123" x2="189" y1="362.5" y2="362.5" class="net_6,7,8,9 width_4" style="stroke-width: 2"/><line x1="189" x2="189" y1="362.5" y2="367.5" class="net_6,7,8,9 width_4" style="stroke-width: 2"/><circle cx="123" cy="139" r="3" style="fill:#000" class="net_6,7,8,9 width_4"/><line x1="189" x2="218.33333333333334" y1="367.5" y2="367.5" class="net_6,7,8,9 width_4" style="stroke-width: 2"/><line x1="113" x2="123" y1="139" y2="139" class="net_6,7,8,9 width_4" style="stroke-width: 2"/><line x1="123" x2="123" y1="139" y2="79" class="net_6,7,8,9 width_4" style="stroke-width: 2"/><circle cx="123" cy="79" r="3" style="fill:#000" class="net_6,7,8,9 width_4"/><line x1="123" x2="218.33333333333334" y1="79" y2="79" class="net_6,7,8,9 width_4" style="stroke-width: 2"/><line x1="113" x2="123" y1="139" y2="139" class="net_6,7,8,9 width_4" style="stroke-width: 2"/><line x1="123" x2="123" y1="139" y2="266.5" class="net_6,7,8,9 width_4" style="stroke-width: 2"/><circle cx="123" cy="266.5" r="3" style="fill:#000" class="net_6,7,8,9 width_4"/><line x1="123" x2="214" y1="266.5" y2="266.5" class="net_6,7,8,9 width_4" style="stroke-width: 2"/><line x1="113" x2="123" y1="139" y2="139" class="net_6,7,8,9 width_4" style="stroke-width: 2"/><line x1="123" x2="123" y1="139" y2="63" class="net_6,7,8,9 width_4" style="stroke-width: 2"/><line x1="123" x2="516" y1="63" y2="63" class="net_6,7,8,9 width_4" style="stroke-width: 2"/><line x1="516" x2="516" y1="63" y2="116.5" class="net_6,7,8,9 width_4" style="stroke-width: 2"/><line x1="516" x2="542.6666666666666" y1="116.5" y2="116.5" class="net_6,7,8,9 width_4" style="stroke-width: 2"/><line x1="113" x2="218.33333333333334" y1="139" y2="139" class="net_6,7,8,9 width_4" style="stroke-width: 2"/><line x1="113" x2="123" y1="139" y2="139" class="net_6,7,8,9 width_4" style="stroke-width: 2"/><line x1="123" x2="123" y1="139" y2="63" class="net_6,7,8,9 width_4" style="stroke-width: 2"/><line x1="123" x2="255" y1="63" y2="63" class="net_6,7,8,9 width_4" style="stroke-width: 2"/><line x1="255" x2="255" y1="63" y2="46" class="net_6,7,8,9 width_4" style="stroke-width: 2"/><circle cx="255" cy="63" r="3" style="fill:#000" class="net_6,7,8,9 width_4"/><line x1="255" x2="675" y1="46" y2="46" class="net_6,7,8,9 width_4" style="stroke-width: 2"/><line x1="113" x2="218.33333333333334" y1="382.5" y2="382.5" class="net_38,39,40,41 width_4" style="stroke-width: 2"/><line x1="245" x2="295.3333333333333" y1="331.5" y2="331.5" class="net_42 width_1" style="stroke-width: 1"/><line x1="245" x2="255" y1="331.5" y2="331.5" class="net_42 width_1" style="stroke-width: 1"/><line x1="255" x2="255" y1="331.5" y2="197.5" class="net_42 width_1" style="stroke-width: 1"/><circle cx="255" cy="331.5" r="2" style="fill:#000" class="net_42 width_1"/><line x1="255" x2="295.3333333333333" y1="197.5" y2="197.5" class="net_42 width_1" style="stroke-width: 1"/><line x1="245" x2="255" y1="331.5" y2="331.5" class="net_42 width_1" style="stroke-width: 1"/><line x1="255" x2="255" y1="331.5" y2="425" class="net_42 width_1" style="stroke-width: 1"/><line x1="255" x2="545" y1="425" y2="425" class="net_42 width_1" style="stroke-width: 1"/><line x1="179" x2="189" y1="217.5" y2="217.5" class="net_43 width_1" style="stroke-width: 1"/><line x1="189" x2="189" y1="217.5" y2="351.5" class="net_43 width_1" style="stroke-width: 1"/><circle cx="189" cy="217.5" r="2" style="fill:#000" class="net_43 width_1"/><line x1="189" x2="295.3333333333333" y1="351.5" y2="351.5" class="net_43 width_1" style="stroke-width: 1"/><line x1="179" x2="189" y1="217.5" y2="217.5" class="net_43 width_1" style="stroke-width: 1"/><line x1="189" x2="189" y1="217.5" y2="94" class="net_43 width_1" style="stroke-width: 1"/><line x1="189" x2="218.33333333333334" y1="94" y2="94" class="net_43 width_1" style="stroke-width: 1"/><line x1="179" x2="295.3333333333333" y1="217.5" y2="217.5" class="net_43 width_1" style="stroke-width: 1"/><line x1="179" x2="189" y1="217.5" y2="217.5" class="net_43 width_1" style="stroke-width: 1"/><line x1="189" x2="189" y1="217.5" y2="154" class="net_43 width_1" style="stroke-width: 1"/><circle cx="189" cy="154" r="2" style="fill:#000" class="net_43 width_1"/><line x1="189" x2="218.33333333333334" y1="154" y2="154" class="net_43 width_1" style="stroke-width: 1"/><line x1="241.33333333333334" x2="305.3333333333333" y1="375" y2="375" class="net_11 width_1" style="stroke-width: 1"/><line x1="305.3333333333333" x2="305.3333333333333" y1="375" y2="356.5" class="net_11 width_1" style="stroke-width: 1"/><line x1="242" x2="305.3333333333333" y1="266.5" y2="266.5" class="net_17 width_1" style="stroke-width: 1"/><line x1="305.3333333333333" x2="305.3333333333333" y1="266.5" y2="222.5" class="net_17 width_1" style="stroke-width: 1"/><line x1="241.33333333333334" x2="356" y1="86.5" y2="86.5" class="net_13,14,15,16 width_4" style="stroke-width: 2"/><line x1="356" x2="356" y1="86.5" y2="126.5" class="net_13,14,15,16 width_4" style="stroke-width: 2"/><line x1="356" x2="388.3333333333333" y1="126.5" y2="126.5" class="net_13,14,15,16 width_4" style="stroke-width: 2"/><line x1="242.33333333333334" x2="388.3333333333333" y1="146.5" y2="146.5" class="net_19,20,21,22 width_4" style="stroke-width: 2"/><line x1="310" x2="356" y1="405" y2="405" class="net_4 width_1" style="stroke-width: 1"/><line x1="356" x2="356" y1="405" y2="200.5" class="net_4 width_1" style="stroke-width: 1"/><line x1="356" x2="401.3333333333333" y1="200.5" y2="200.5" class="net_4 width_1" style="stroke-width: 1"/><circle cx="356" cy="405" r="2" style="fill:#000" class="net_4 width_1"/><line x1="401.3333333333333" x2="401.3333333333333" y1="200.5" y2="154.5" class="net_4 width_1" style="stroke-width: 1"/><line x1="310" x2="400.6666666666667" y1="405" y2="405" class="net_4 width_1" style="stroke-width: 1"/><line x1="400.6666666666667" x2="400.6666666666667" y1="405" y2="346.5" class="net_4 width_1" style="stroke-width: 1"/><line x1="315.3333333333333" x2="366" y1="207.5" y2="207.5" class="net_18 width_1" style="stroke-width: 1"/><line x1="366" x2="366" y1="207.5" y2="321.5" class="net_18 width_1" style="stroke-width: 1"/><line x1="366" x2="390.6666666666667" y1="321.5" y2="321.5" class="net_18 width_1" style="stroke-width: 1"/><line x1="315.3333333333333" x2="390.6666666666667" y1="341.5" y2="341.5" class="net_12 width_1" style="stroke-width: 1"/><line x1="413.8333333333333" x2="542.6666666666666" y1="136.5" y2="136.5" class="net_23,24,25,26 width_4" style="stroke-width: 2"/><line x1="411" x2="555.6666666666666" y1="230.5" y2="230.5" class="net_3 width_1" style="stroke-width: 1"/><line x1="555.6666666666666" x2="555.6666666666666" y1="230.5" y2="144.5" class="net_3 width_1" style="stroke-width: 1"/><line x1="411" x2="439" y1="230.5" y2="230.5" class="net_3 width_1" style="stroke-width: 1"/><line x1="439" x2="439" y1="230.5" y2="351.5" class="net_3 width_1" style="stroke-width: 1"/><line x1="439" x2="484.6666666666667" y1="351.5" y2="351.5" class="net_3 width_1" style="stroke-width: 1"/><circle cx="439" cy="230.5" r="2" style="fill:#000" class="net_3 width_1"/><line x1="484.6666666666667" x2="484.6666666666667" y1="351.5" y2="336.5" class="net_3 width_1" style="stroke-width: 1"/><line x1="639" x2="649" y1="435" y2="435" class="net_10 width_1" style="stroke-width: 1"/><line x1="649" x2="649" y1="435" y2="291.5" class="net_10 width_1" style="stroke-width: 1"/><line x1="649" x2="449" y1="291.5" y2="291.5" class="net_10 width_1" style="stroke-width: 1"/><line x1="449" x2="449" y1="291.5" y2="311.5" class="net_10 width_1" style="stroke-width: 1"/><circle cx="649" cy="435" r="2" style="fill:#000" class="net_10 width_1"/><line x1="449" x2="474.6666666666667" y1="311.5" y2="311.5" class="net_10 width_1" style="stroke-width: 1"/><line x1="639" x2="674" y1="435" y2="435" class="net_10 width_1" style="stroke-width: 1"/><line x1="410.6666666666667" x2="474.6666666666667" y1="331.5" y2="331.5" class="net_27 width_1" style="stroke-width: 1"/><line x1="568.1666666666666" x2="649" y1="126.5" y2="126.5" class="net_28,29,30,31 width_4" style="stroke-width: 2"/><line x1="649" x2="649" y1="126.5" y2="240.5" class="net_28,29,30,31 width_4" style="stroke-width: 2"/><line x1="649" x2="674" y1="240.5" y2="240.5" class="net_28,29,30,31 width_4" style="stroke-width: 2"/><line x1="572" x2="674" y1="260.5" y2="260.5" class="net_47,48,49,50 width_4" style="stroke-width: 2"/><line x1="494" x2="516" y1="405" y2="405" class="net_5 width_1" style="stroke-width: 1"/><line x1="516" x2="516" y1="405" y2="280.5" class="net_5 width_1" style="stroke-width: 1"/><line x1="516" x2="687" y1="280.5" y2="280.5" class="net_5 width_1" style="stroke-width: 1"/><circle cx="516" cy="405" r="2" style="fill:#000" class="net_5 width_1"/><line x1="687" x2="687" y1="280.5" y2="268.5" class="net_5 width_1" style="stroke-width: 1"/><line x1="494" x2="516" y1="405" y2="405" class="net_5 width_1" style="stroke-width: 1"/><line x1="516" x2="516" y1="405" y2="445" class="net_5 width_1" style="stroke-width: 1"/><line x1="516" x2="555" y1="445" y2="445" class="net_5 width_1" style="stroke-width: 1"/><line x1="555" x2="555" y1="445" y2="430" class="net_5 width_1" style="stroke-width: 1"/><line x1="494.6666666666667" x2="526" y1="321.5" y2="321.5" class="net_32 width_1" style="stroke-width: 1"/><line x1="526" x2="526" y1="321.5" y2="405" class="net_32 width_1" style="stroke-width: 1"/><line x1="526" x2="545" y1="405" y2="405" class="net_32 width_1" style="stroke-width: 1"/><line x1="42" x2="52" y1="455" y2="455" class="net_2 width_1" style="stroke-width: 1"/><line x1="52" x2="52" y1="455" y2="159" class="net_2 width_1" style="stroke-width: 1"/><circle cx="52" cy="455" r="2" style="fill:#000" class="net_2 width_1"/><line x1="52" x2="77" y1="159" y2="159" class="net_2 width_1" style="stroke-width: 1"/><line x1="42" x2="607" y1="455" y2="455" class="net_2 width_1" style="stroke-width: 1"/><line x1="699.5" x2="744" y1="250.5" y2="250.5" class="net_33,34,35,36 width_4" style="stroke-width: 2"/><line x1="744" x2="744" y1="250.5" y2="16" class="net_33,34,35,36 width_4" style="stroke-width: 2"/><line x1="744" x2="52" y1="16" y2="16" class="net_33,34,35,36 width_4" style="stroke-width: 2"/><line x1="52" x2="52" y1="16" y2="139" class="net_33,34,35,36 width_4" style="stroke-width: 2"/><line x1="52" x2="77" y1="139" y2="139" class="net_33,34,35,36 width_4" style="stroke-width: 2"/><line x1="565" x2="582" y1="415" y2="415" class="net_37 width_1" style="stroke-width: 1"/><line x1="582" x2="582" y1="415" y2="435" class="net_37 width_1" style="stroke-width: 1"/><line x1="582" x2="607" y1="435" y2="435" class="net_37 width_1" style="stroke-width: 1"/><rect x="404" y="41" width="16" height="9" class="net_6,7,8,9 width_4 busLabel_4" style="fill: white; stroke: none"/><text x="403" y="49" class="net_6,7,8,9 width_4 busLabel_4">/4/</text><rect x="404" y="41" width="16" height="9" class="net_6,7,8,9 width_4 busLabel_4" style="fill: white; stroke: none"/><text x="403" y="49" class="net_6,7,8,9 width_4 busLabel_4">/4/</text><rect x="404" y="41" width="16" height="9" class="net_6,7,8,9 width_4 busLabel_4" style="fill: white; stroke: none"/><text x="403" y="49" class="net_6,7,8,9 width_4 busLabel_4">/4/</text><rect x="404" y="41" width="16" height="9" class="net_6,7,8,9 width_4 busLabel_4" style="fill: white; stroke: none"/><text x="403" y="49" class="net_6,7,8,9 width_4 busLabel_4">/4/</text><rect x="404" y="41" width="16" height="9" class="net_6,7,8,9 width_4 busLabel_4" style="fill: white; stroke: none"/><text x="403" y="49" class="net_6,7,8,9 width_4 busLabel_4">/4/</text><rect x="404" y="41" width="16" height="9" class="net_6,7,8,9 width_4 busLabel_4" style="fill: white; stroke: none"/><text x="403" y="49" class="net_6,7,8,9 width_4 busLabel_4">/4/</text><rect x="162.5" y="377.5" width="16" height="9" class="net_38,39,40,41 width_4 busLabel_4" style="fill: white; stroke: none"/><text x="161.5" y="385.5" class="net_38,39,40,41 width_4 busLabel_4">/4/</text><rect x="312" y="81.5" width="16" height="9" class="net_13,14,15,16 width_4 busLabel_4" style="fill: white; stroke: none"/><text x="311" y="89.5" class="net_13,14,15,16 width_4 busLabel_4">/4/</text><rect x="312" y="141.5" width="16" height="9" class="net_19,20,21,22 width_4 busLabel_4" style="fill: white; stroke: none"/><text x="311" y="149.5" class="net_19,20,21,22 width_4 busLabel_4">/4/</text><rect x="484" y="131.5" width="16" height="9" class="net_23,24,25,26 width_4 busLabel_4" style="fill: white; stroke: none"/><text x="483" y="139.5" class="net_23,24,25,26 width_4 busLabel_4">/4/</text><rect x="622" y="121.5" width="16" height="9" class="net_28,29,30,31 width_4 busLabel_4" style="fill: white; stroke: none"/><text x="621" y="129.5" class="net_28,29,30,31 width_4 busLabel_4">/4/</text><rect x="622" y="255.5" width="16" height="9" class="net_47,48,49,50 width_4 busLabel_4" style="fill: white; stroke: none"/><text x="621" y="263.5" class="net_47,48,49,50 width_4 busLabel_4">/4/</text><rect x="404" y="11" width="16" height="9" class="net_33,34,35,36 width_4 busLabel_4" style="fill: white; stroke: none"/><text x="403" y="19" class="net_33,34,35,36 width_4 busLabel_4">/4/</text></svg>