<svg xmlns="http://www.w3.org/2000/svg" xmlns:xlink="http://www.w3.org/1999/xlink" xmlns:s="https://github.com/nturley/netlistsvg" width="734" height="573"><rect width="100%" height="100%" fill="white"/><style>svg {
  stroke:#000;
  fill:none;
}
text {
  fill:#000;
  stroke:none;
  font-size:10px;
  font-weight: bold;
  font-family: "Courier New", monospace;
}
line {
    stroke-linecap: round;
}
.nodelabel {
  text-anchor: middle;
}
.inputPortLabel {
  text-anchor: end;
}
.splitjoinBody {
  fill:#000;
}</style><g s:type="eq" transform="translate(189.33333333333334,470.5)" s:width="25" s:height="25" id="cell_\10"><s:alias val="$eq"/><s:alias val="$eqx"/><circle r="12.5" cx="12.5" cy="12.5" class="cell_\10"/><line x1="7.5" x2="17.5" y1="10" y2="10" class="cell_\10"/><line x1="7.5" x2="17.5" y1="15" y2="15" class="cell_\10"/><g s:x="2" s:y="5" s:pid="A"/><g s:x="2" s:y="20" s:pid="B"/><g s:x="25" s:y="12.5" s:pid="Y"/></g><g s:type="mux" transform="translate(273.3333333333333,403)" s:width="20" s:height="40" id="cell_\11"><s:alias val="$pmux"/><s:alias val="$mux"/><s:alias val="$_MUX_"/><path d="M0,0 L20,10 L20,30 L0,40 Z" class="cell_\11"/><text x="5" y="32" class="nodelabel cell_\11" s:attribute="">1</text><text x="5" y="13" class="nodelabel cell_\11" s:attribute="">0</text><g s:x="0" s:y="10" s:pid="A"/><g s:x="0" s:y="30" s:pid="B"/><g s:x="10" s:y="35" s:pid="S"/><g s:x="20" s:y="20" s:pid="Y"/></g><g s:type="sub" transform="translate(189.33333333333334,64)" s:width="25" s:height="25" id="cell_\14"><s:alias val="$sub"/><circle r="12.5" cx="12.5" cy="12.5" class="cell_\14"/><line x1="7.5" x2="17.5" y1="12.5" y2="12.5" class="cell_\14"/><g s:x="2" s:y="5" s:pid="A"/><g s:x="2" s:y="20" s:pid="B"/><g s:x="25" s:y="12.5" s:pid="Y"/></g><g s:type="not" transform="translate(188,233)" s:width="30" s:height="20" id="cell_\17"><s:alias val="$_NOT_"/><s:alias val="$not"/><s:alias val="$logic_not"/><path d="M0,0 L0,20 L20,10 Z" class="cell_\17"/><circle cx="24" cy="10" r="3" class="cell_\17"/><g s:x="-1" s:y="10" s:pid="A"/><g s:x="27" s:y="10" s:pid="Y"/></g><g s:type="mux" transform="translate(273.3333333333333,278)" s:width="20" s:height="40" id="cell_\18"><s:alias val="$pmux"/><s:alias val="$mux"/><s:alias val="$_MUX_"/><path d="M0,0 L20,10 L20,30 L0,40 Z" class="cell_\18"/><text x="5" y="32" class="nodelabel cell_\18" s:attribute="">1</text><text x="5" y="13" class="nodelabel cell_\18" s:attribute="">0</text><g s:x="0" s:y="10" s:pid="A"/><g s:x="0" s:y="30" s:pid="B"/><g s:x="10" s:y="35" s:pid="S"/><g s:x="20" s:y="20" s:pid="Y"/></g><g s:type="mux-bus" transform="translate(367.3333333333333,155.5)" s:width="24" s:height="40" id="cell_\20"><s:alias val="$pmux-bus"/><s:alias val="$mux-bus"/><s:alias val="$_MUX_-bus"/><path d="M0,0 L20,10 L20,30 L0,40 Z" class="cell_\20"/><path d="M4,2 L4,0 L22,9 L22,31 L4,40 L4,38" class="cell_\20"/><path d="M8,2 L8,0 L24,8 L24,32 L8,40 L8,38" class="cell_\20"/><text x="5" y="32" class="nodelabel cell_\20" s:attribute="">1</text><text x="5" y="13" class="nodelabel cell_\20" s:attribute="">0</text><g s:x="-1" s:y="10" s:pid="A"/><g s:x="-1" s:y="30" s:pid="B"/><g s:x="12" s:y="38" s:pid="S"/><g s:x="24.5" s:y="20" s:pid="Y"/></g><g s:type="mux" transform="translate(368.6666666666667,393)" s:width="20" s:height="40" id="cell_\21"><s:alias val="$pmux"/><s:alias val="$mux"/><s:alias val="$_MUX_"/><path d="M0,0 L20,10 L20,30 L0,40 Z" class="cell_\21"/><text x="5" y="32" class="nodelabel cell_\21" s:attribute="">1</text><text x="5" y="13" class="nodelabel cell_\21" s:attribute="">0</text><g s:x="0" s:y="10" s:pid="A"/><g s:x="0" s:y="30" s:pid="B"/><g s:x="10" s:y="35" s:pid="S"/><g s:x="20" s:y="20" s:pid="Y"/></g><g s:type="mux-bus" transform="translate(521.6666666666667,145.5)" s:width="24" s:height="40" id="cell_\22"><s:alias val="$pmux-bus"/><s:alias val="$mux-bus"/><s:alias val="$_MUX_-bus"/><path d="M0,0 L20,10 L20,30 L0,40 Z" class="cell_\22"/><path d="M4,2 L4,0 L22,9 L22,31 L4,40 L4,38" class="cell_\22"/><path d="M8,2 L8,0 L24,8 L24,32 L8,40 L8,38" class="cell_\22"/><text x="5" y="32" class="nodelabel cell_\22" s:attribute="">1</text><text x="5" y="13" class="nodelabel cell_\22" s:attribute="">0</text><g s:x="-1" s:y="10" s:pid="A"/><g s:x="-1" s:y="30" s:pid="B"/><g s:x="12" s:y="38" s:pid="S"/><g s:x="24.5" s:y="20" s:pid="Y"/></g><g s:type="mux" transform="translate(452.6666666666667,383)" s:width="20" s:height="40" id="cell_\23"><s:alias val="$pmux"/><s:alias val="$mux"/><s:alias val="$_MUX_"/><path d="M0,0 L20,10 L20,30 L0,40 Z" class="cell_\23"/><text x="5" y="32" class="nodelabel cell_\23" s:attribute="">1</text><text x="5" y="13" class="nodelabel cell_\23" s:attribute="">0</text><g s:x="0" s:y="10" s:pid="A"/><g s:x="0" s:y="30" s:pid="B"/><g s:x="10" s:y="35" s:pid="S"/><g s:x="20" s:y="20" s:pid="Y"/></g><g s:type="mux-bus" transform="translate(653,288)" s:width="24" s:height="40" id="cell_\25"><s:alias val="$pmux-bus"/><s:alias val="$mux-bus"/><s:alias val="$_MUX_-bus"/><path d="M0,0 L20,10 L20,30 L0,40 Z" class="cell_\25"/><path d="M4,2 L4,0 L22,9 L22,31 L4,40 L4,38" class="cell_\25"/><path d="M8,2 L8,0 L24,8 L24,32 L8,40 L8,38" class="cell_\25"/><text x="5" y="32" class="nodelabel cell_\25" s:attribute="">1</text><text x="5" y="13" class="nodelabel cell_\25" s:attribute="">0</text><g s:x="-1" s:y="10" s:pid="A"/><g s:x="-1" s:y="30" s:pid="B"/><g s:x="12" s:y="38" s:pid="S"/><g s:x="24.5" s:y="20" s:pid="Y"/></g><g s:type="mux" transform="translate(523,463)" s:width="20" s:height="40" id="cell_\27"><s:alias val="$pmux"/><s:alias val="$mux"/><s:alias val="$_MUX_"/><path d="M0,0 L20,10 L20,30 L0,40 Z" class="cell_\27"/><text x="5" y="32" class="nodelabel cell_\27" s:attribute="">1</text><text x="5" y="13" class="nodelabel cell_\27" s:attribute="">0</text><g s:x="0" s:y="10" s:pid="A"/><g s:x="0" s:y="30" s:pid="B"/><g s:x="10" s:y="35" s:pid="S"/><g s:x="20" s:y="20" s:pid="Y"/></g><g s:type="dff-bus" transform="translate(78,94)" s:width="34" s:height="44" id="cell_\31"><s:alias val="$dff-bus"/><s:alias val="$_DFF_-bus"/><s:alias val="$_DFF_P_-bus"/><s:alias val="adff-bus"/><s:alias val="$adff-bus"/><s:alias val="$_DFF_-bus"/><s:alias val="$_DFF_P_-bus"/><s:alias val="sdff-bus"/><s:alias val="$sdff-bus"/><s:alias val="$_DFF_-bus"/><s:alias val="$_DFF_P_-bus"/><rect width="30" height="40" x="0" y="0" class="cell_\31"/><path d="M0,35 L5,30 L0,25" class="cell_\31"/><path d="M30,2 L32,2 L32,42 L2,42 L2,40" class="cell_\31"/><path d="M32,4 L34,4 L34,44 L4,44 L4,42" class="cell_\31"/><g s:x="35" s:y="10" s:pid="Q"/><g s:x="-1" s:y="30" s:pid="CLK"/><g s:x="-1" s:y="30" s:pid="C"/><g s:x="-1" s:y="10" s:pid="D"/><g s:x="17" s:y="44" s:pid="ARST"/><g s:x="17" s:y="44" s:pid="SRST"/></g><g s:type="dff" transform="translate(586,493)" s:width="30" s:height="40" id="cell_\32"><s:alias val="$dff"/><s:alias val="$_DFF_"/><s:alias val="$_DFF_P_"/><s:alias val="$adff"/><s:alias val="$_DFF_"/><s:alias val="$_DFF_P_"/><s:alias val="$sdff"/><s:alias val="$_DFF_"/><s:alias val="$_DFF_P_"/><rect width="30" height="40" x="0" y="0" class="cell_\32"/><path d="M0,35 L5,30 L0,25" class="cell_\32"/><g s:x="31" s:y="10" s:pid="Q"/><g s:x="-1" s:y="30" s:pid="CLK"/><g s:x="-1" s:y="30" s:pid="C"/><g s:x="-1" s:y="10" s:pid="D"/><g s:x="15" s:y="40" s:pid="ARST"/><g s:x="15" s:y="40" s:pid="SRST"/></g><g s:type="add" transform="translate(189.33333333333334,173)" s:width="25" s:height="25" id="cell_\7"><s:alias val="$add"/><circle r="12.5" cx="12.5" cy="12.5" class="cell_\7"/><line x1="7.5" x2="17.5" y1="12.5" y2="12.5" class="cell_\7"/><line x1="12.5" x2="12.5" y1="7.5" y2="17.5" class="cell_\7"/><g s:x="2" s:y="5" s:pid="A"/><g s:x="2" s:y="20" s:pid="B"/><g s:x="26" s:y="12.5" s:pid="Y"/></g><g s:type="inputExt" transform="translate(12,513)" s:width="30" s:height="20" id="cell_i_clk"><text x="15" y="-4" class="nodelabel cell_i_clk" s:attribute="ref">i_clk</text><s:alias val="$_inputExt_"/><path d="M0,0 L0,20 L15,20 L30,10 L15,0 Z" class="cell_i_clk"/><g s:x="30" s:y="10" s:pid="Y"/></g><g s:type="inputExt" transform="translate(359,463)" s:width="30" s:height="20" id="cell_i_enable"><text x="15" y="-4" class="nodelabel cell_i_enable" s:attribute="ref">i_enable</text><s:alias val="$_inputExt_"/><path d="M0,0 L0,20 L15,20 L30,10 L15,0 Z" class="cell_i_enable"/><g s:x="30" s:y="10" s:pid="Y"/></g><g s:type="inputExt" transform="translate(258,348)" s:width="30" s:height="20" id="cell_i_direction"><text x="15" y="-4" class="nodelabel cell_i_direction" s:attribute="ref">i_direction</text><s:alias val="$_inputExt_"/><path d="M0,0 L0,20 L15,20 L30,10 L15,0 Z" class="cell_i_direction"/><g s:x="30" s:y="10" s:pid="Y"/></g><g s:type="inputExt" transform="translate(442,328)" s:width="30" s:height="20" id="cell_i_reset"><text x="15" y="-4" class="nodelabel cell_i_reset" s:attribute="ref">i_reset</text><s:alias val="$_inputExt_"/><path d="M0,0 L0,20 L15,20 L30,10 L15,0 Z" class="cell_i_reset"/><g s:x="30" s:y="10" s:pid="Y"/></g><g s:type="outputExt" transform="translate(653,22)" s:width="30" s:height="20" id="cell_o_count"><text x="15" y="-4" class="nodelabel cell_o_count" s:attribute="ref">o_count</text><s:alias val="$_outputExt_"/><path d="M30,0 L30,20 L15,20 L0,10 L15,0 Z" class="cell_o_count"/><g s:x="0" s:y="10" s:pid="A"/></g><g s:type="outputExt" transform="translate(652,493)" s:width="30" s:height="20" id="cell_o_overflow"><text x="15" y="-4" class="nodelabel cell_o_overflow" s:attribute="ref">o_overflow</text><s:alias val="$_outputExt_"/><path d="M30,0 L30,20 L15,20 L0,10 L15,0 Z" class="cell_o_overflow"/><g s:x="0" s:y="10" s:pid="A"/></g><g s:type="constant" transform="translate(82,480.5)" s:width="30" s:height="20" id="cell_1111"><text x="15" y="-4" class="nodelabel cell_1111" s:attribute="ref">0xf</text><s:alias val="$_constant_"/><rect width="30" height="20" class="cell_1111"/><g s:x="31" s:y="10" s:pid="Y"/></g><g s:type="constant" transform="translate(187,403)" s:width="30" s:height="20" id="cell_0"><text x="15" y="-4" class="nodelabel cell_0" s:attribute="ref">0</text><s:alias val="$_constant_"/><rect width="30" height="20" class="cell_0"/><g s:x="31" s:y="10" s:pid="Y"/></g><g s:type="constant" transform="translate(187,298)" s:width="30" s:height="20" id="cell_1"><text x="15" y="-4" class="nodelabel cell_1" s:attribute="ref">1</text><s:alias val="$_constant_"/><rect width="30" height="20" class="cell_1"/><g s:x="31" s:y="10" s:pid="Y"/></g><g s:type="constant" transform="translate(82,183)" s:width="30" s:height="20" id="cell_0001"><text x="15" y="-4" class="nodelabel cell_0001" s:attribute="ref">0x1</text><s:alias val="$_constant_"/><rect width="30" height="20" class="cell_0001"/><g s:x="31" s:y="10" s:pid="Y"/></g><g s:type="constant" transform="translate(519,308)" s:width="30" s:height="20" id="cell_0000"><text x="15" y="-4" class="nodelabel cell_0000" s:attribute="ref">0x0</text><s:alias val="$_constant_"/><rect width="30" height="20" class="cell_0000"/><g s:x="31" s:y="10" s:pid="Y"/></g><line x1="113" x2="123" y1="104" y2="104" class="net_6,7,8,9 width_4" style="stroke-width: 2"/><line x1="123" x2="123" y1="104" y2="470.5" class="net_6,7,8,9 width_4" style="stroke-width: 2"/><line x1="123" x2="162" y1="470.5" y2="470.5" class="net_6,7,8,9 width_4" style="stroke-width: 2"/><line x1="162" x2="162" y1="470.5" y2="475.5" class="net_6,7,8,9 width_4" style="stroke-width: 2"/><circle cx="123" cy="104" r="3" style="fill:#000" class="net_6,7,8,9 width_4"/><line x1="162" x2="191.33333333333334" y1="475.5" y2="475.5" class="net_6,7,8,9 width_4" style="stroke-width: 2"/><line x1="113" x2="123" y1="104" y2="104" class="net_6,7,8,9 width_4" style="stroke-width: 2"/><line x1="123" x2="123" y1="104" y2="64" class="net_6,7,8,9 width_4" style="stroke-width: 2"/><line x1="123" x2="162" y1="64" y2="64" class="net_6,7,8,9 width_4" style="stroke-width: 2"/><line x1="162" x2="162" y1="64" y2="69" class="net_6,7,8,9 width_4" style="stroke-width: 2"/><circle cx="123" cy="64" r="3" style="fill:#000" class="net_6,7,8,9 width_4"/><line x1="162" x2="191.33333333333334" y1="69" y2="69" class="net_6,7,8,9 width_4" style="stroke-width: 2"/><line x1="113" x2="123" y1="104" y2="104" class="net_6,7,8,9 width_4" style="stroke-width: 2"/><line x1="123" x2="123" y1="104" y2="243" class="net_6,7,8,9 width_4" style="stroke-width: 2"/><circle cx="123" cy="243" r="3" style="fill:#000" class="net_6,7,8,9 width_4"/><line x1="123" x2="187" y1="243" y2="243" class="net_6,7,8,9 width_4" style="stroke-width: 2"/><line x1="113" x2="123" y1="104" y2="104" class="net_6,7,8,9 width_4" style="stroke-width: 2"/><line x1="123" x2="123" y1="104" y2="49" class="net_6,7,8,9 width_4" style="stroke-width: 2"/><line x1="123" x2="494" y1="49" y2="49" class="net_6,7,8,9 width_4" style="stroke-width: 2"/><line x1="494" x2="494" y1="49" y2="155.5" class="net_6,7,8,9 width_4" style="stroke-width: 2"/><line x1="494" x2="520.6666666666667" y1="155.5" y2="155.5" class="net_6,7,8,9 width_4" style="stroke-width: 2"/><line x1="113" x2="162" y1="104" y2="104" class="net_6,7,8,9 width_4" style="stroke-width: 2"/><line x1="162" x2="162" y1="104" y2="178" class="net_6,7,8,9 width_4" style="stroke-width: 2"/><line x1="162" x2="191.33333333333334" y1="178" y2="178" class="net_6,7,8,9 width_4" style="stroke-width: 2"/><line x1="113" x2="123" y1="104" y2="104" class="net_6,7,8,9 width_4" style="stroke-width: 2"/><line x1="123" x2="123" y1="104" y2="49" class="net_6,7,8,9 width_4" style="stroke-width: 2"/><line x1="123" x2="228" y1="49" y2="49" class="net_6,7,8,9 width_4" style="stroke-width: 2"/><line x1="228" x2="228" y1="49" y2="32" class="net_6,7,8,9 width_4" style="stroke-width: 2"/><circle cx="228" cy="49" r="3" style="fill:#000" class="net_6,7,8,9 width_4"/><line x1="228" x2="653" y1="32" y2="32" class="net_6,7,8,9 width_4" style="stroke-width: 2"/><line x1="113" x2="191.33333333333334" y1="490.5" y2="490.5" class="net_38,39,40,41 width_4" style="stroke-width: 2"/><line x1="218" x2="273.3333333333333" y1="413" y2="413" class="net_42 width_1" style="stroke-width: 1"/><line x1="218" x2="228" y1="413" y2="413" class="net_42 width_1" style="stroke-width: 1"/><line x1="228" x2="228" y1="413" y2="288" class="net_42 width_1" style="stroke-width: 1"/><circle cx="228" cy="413" r="2" style="fill:#000" class="net_42 width_1"/><line x1="228" x2="273.3333333333333" y1="288" y2="288" class="net_42 width_1" style="stroke-width: 1"/><line x1="218" x2="228" y1="413" y2="413" class="net_42 width_1" style="stroke-width: 1"/><line x1="228" x2="228" y1="413" y2="493" class="net_42 width_1" style="stroke-width: 1"/><line x1="228" x2="523" y1="493" y2="493" class="net_42 width_1" style="stroke-width: 1"/><line x1="218" x2="238" y1="308" y2="308" class="net_43 width_1" style="stroke-width: 1"/><line x1="238" x2="238" y1="308" y2="433" class="net_43 width_1" style="stroke-width: 1"/><circle cx="238" cy="308" r="2" style="fill:#000" class="net_43 width_1"/><line x1="238" x2="273.3333333333333" y1="433" y2="433" class="net_43 width_1" style="stroke-width: 1"/><line x1="218" x2="273.3333333333333" y1="308" y2="308" class="net_43 width_1" style="stroke-width: 1"/><line x1="214.33333333333334" x2="283.3333333333333" y1="483" y2="483" class="net_11 width_1" style="stroke-width: 1"/><line x1="283.3333333333333" x2="283.3333333333333" y1="483" y2="438" class="net_11 width_1" style="stroke-width: 1"/><line x1="113" x2="133" y1="193" y2="193" class="net_44,45,46,47 width_4" style="stroke-width: 2"/><line x1="133" x2="133" y1="193" y2="84" class="net_44,45,46,47 width_4" style="stroke-width: 2"/><circle cx="133" cy="193" r="3" style="fill:#000" class="net_44,45,46,47 width_4"/><line x1="133" x2="191.33333333333334" y1="84" y2="84" class="net_44,45,46,47 width_4" style="stroke-width: 2"/><line x1="113" x2="191.33333333333334" y1="193" y2="193" class="net_44,45,46,47 width_4" style="stroke-width: 2"/><line x1="215" x2="248" y1="243" y2="243" class="net_17 width_1" style="stroke-width: 1"/><line x1="248" x2="248" y1="243" y2="328" class="net_17 width_1" style="stroke-width: 1"/><line x1="248" x2="283.3333333333333" y1="328" y2="328" class="net_17 width_1" style="stroke-width: 1"/><line x1="283.3333333333333" x2="283.3333333333333" y1="328" y2="313" class="net_17 width_1" style="stroke-width: 1"/><line x1="214.33333333333334" x2="334" y1="76.5" y2="76.5" class="net_13,14,15,16 width_4" style="stroke-width: 2"/><line x1="334" x2="334" y1="76.5" y2="165.5" class="net_13,14,15,16 width_4" style="stroke-width: 2"/><line x1="334" x2="366.3333333333333" y1="165.5" y2="165.5" class="net_13,14,15,16 width_4" style="stroke-width: 2"/><line x1="215.33333333333334" x2="366.3333333333333" y1="185.5" y2="185.5" class="net_19,20,21,22 width_4" style="stroke-width: 2"/><line x1="288" x2="379.3333333333333" y1="358" y2="358" class="net_4 width_1" style="stroke-width: 1"/><line x1="379.3333333333333" x2="379.3333333333333" y1="358" y2="193.5" class="net_4 width_1" style="stroke-width: 1"/><line x1="288" x2="334" y1="358" y2="358" class="net_4 width_1" style="stroke-width: 1"/><line x1="334" x2="334" y1="358" y2="443" class="net_4 width_1" style="stroke-width: 1"/><line x1="334" x2="378.6666666666667" y1="443" y2="443" class="net_4 width_1" style="stroke-width: 1"/><circle cx="334" cy="358" r="2" style="fill:#000" class="net_4 width_1"/><line x1="378.6666666666667" x2="378.6666666666667" y1="443" y2="428" class="net_4 width_1" style="stroke-width: 1"/><line x1="293.3333333333333" x2="344" y1="298" y2="298" class="net_18 width_1" style="stroke-width: 1"/><line x1="344" x2="344" y1="298" y2="403" class="net_18 width_1" style="stroke-width: 1"/><line x1="344" x2="368.6666666666667" y1="403" y2="403" class="net_18 width_1" style="stroke-width: 1"/><line x1="293.3333333333333" x2="368.6666666666667" y1="423" y2="423" class="net_12 width_1" style="stroke-width: 1"/><line x1="391.8333333333333" x2="520.6666666666667" y1="175.5" y2="175.5" class="net_23,24,25,26 width_4" style="stroke-width: 2"/><line x1="389" x2="417" y1="473" y2="473" class="net_3 width_1" style="stroke-width: 1"/><line x1="417" x2="417" y1="473" y2="288" class="net_3 width_1" style="stroke-width: 1"/><line x1="417" x2="533.6666666666667" y1="288" y2="288" class="net_3 width_1" style="stroke-width: 1"/><circle cx="417" cy="473" r="2" style="fill:#000" class="net_3 width_1"/><line x1="533.6666666666667" x2="533.6666666666667" y1="288" y2="183.5" class="net_3 width_1" style="stroke-width: 1"/><line x1="389" x2="462.6666666666667" y1="473" y2="473" class="net_3 width_1" style="stroke-width: 1"/><line x1="462.6666666666667" x2="462.6666666666667" y1="473" y2="418" class="net_3 width_1" style="stroke-width: 1"/><line x1="617" x2="627" y1="503" y2="503" class="net_10 width_1" style="stroke-width: 1"/><line x1="627" x2="627" y1="503" y2="543" class="net_10 width_1" style="stroke-width: 1"/><line x1="627" x2="427" y1="543" y2="543" class="net_10 width_1" style="stroke-width: 1"/><line x1="427" x2="427" y1="543" y2="393" class="net_10 width_1" style="stroke-width: 1"/><circle cx="627" cy="503" r="2" style="fill:#000" class="net_10 width_1"/><line x1="427" x2="452.6666666666667" y1="393" y2="393" class="net_10 width_1" style="stroke-width: 1"/><line x1="617" x2="652" y1="503" y2="503" class="net_10 width_1" style="stroke-width: 1"/><line x1="388.6666666666667" x2="452.6666666666667" y1="413" y2="413" class="net_27 width_1" style="stroke-width: 1"/><line x1="546.1666666666667" x2="627" y1="165.5" y2="165.5" class="net_28,29,30,31 width_4" style="stroke-width: 2"/><line x1="627" x2="627" y1="165.5" y2="298" class="net_28,29,30,31 width_4" style="stroke-width: 2"/><line x1="627" x2="652" y1="298" y2="298" class="net_28,29,30,31 width_4" style="stroke-width: 2"/><line x1="550" x2="652" y1="318" y2="318" class="net_50,51,52,53 width_4" style="stroke-width: 2"/><line x1="472" x2="665" y1="338" y2="338" class="net_5 width_1" style="stroke-width: 1"/><line x1="665" x2="665" y1="338" y2="326" class="net_5 width_1" style="stroke-width: 1"/><line x1="472" x2="504" y1="338" y2="338" class="net_5 width_1" style="stroke-width: 1"/><line x1="504" x2="504" y1="338" y2="513" class="net_5 width_1" style="stroke-width: 1"/><line x1="504" x2="533" y1="513" y2="513" class="net_5 width_1" style="stroke-width: 1"/><circle cx="504" cy="338" r="2" style="fill:#000" class="net_5 width_1"/><line x1="533" x2="533" y1="513" y2="498" class="net_5 width_1" style="stroke-width: 1"/><line x1="472.6666666666667" x2="494" y1="403" y2="403" class="net_32 width_1" style="stroke-width: 1"/><line x1="494" x2="494" y1="403" y2="473" class="net_32 width_1" style="stroke-width: 1"/><line x1="494" x2="523" y1="473" y2="473" class="net_32 width_1" style="stroke-width: 1"/><line x1="42" x2="62" y1="523" y2="523" class="net_2 width_1" style="stroke-width: 1"/><line x1="62" x2="62" y1="523" y2="124" class="net_2 width_1" style="stroke-width: 1"/><circle cx="62" cy="523" r="2" style="fill:#000" class="net_2 width_1"/><line x1="62" x2="77" y1="124" y2="124" class="net_2 width_1" style="stroke-width: 1"/><line x1="42" x2="585" y1="523" y2="523" class="net_2 width_1" style="stroke-width: 1"/><line x1="677.5" x2="722" y1="308" y2="308" class="net_33,34,35,36 width_4" style="stroke-width: 2"/><line x1="722" x2="722" y1="308" y2="555" class="net_33,34,35,36 width_4" style="stroke-width: 2"/><line x1="722" x2="52" y1="555" y2="555" class="net_33,34,35,36 width_4" style="stroke-width: 2"/><line x1="52" x2="52" y1="555" y2="104" class="net_33,34,35,36 width_4" style="stroke-width: 2"/><line x1="52" x2="77" y1="104" y2="104" class="net_33,34,35,36 width_4" style="stroke-width: 2"/><line x1="543" x2="560" y1="483" y2="483" class="net_37 width_1" style="stroke-width: 1"/><line x1="560" x2="560" y1="483" y2="503" class="net_37 width_1" style="stroke-width: 1"/><line x1="560" x2="585" y1="503" y2="503" class="net_37 width_1" style="stroke-width: 1"/><rect x="382" y="27" width="16" height="9" class="net_6,7,8,9 width_4 busLabel_4" style="fill: white; stroke: none"/><text x="381" y="35" class="net_6,7,8,9 width_4 busLabel_4">/4/</text><rect x="382" y="27" width="16" height="9" class="net_6,7,8,9 width_4 busLabel_4" style="fill: white; stroke: none"/><text x="381" y="35" class="net_6,7,8,9 width_4 busLabel_4">/4/</text><rect x="382" y="27" width="16" height="9" class="net_6,7,8,9 width_4 busLabel_4" style="fill: white; stroke: none"/><text x="381" y="35" class="net_6,7,8,9 width_4 busLabel_4">/4/</text><rect x="382" y="27" width="16" height="9" class="net_6,7,8,9 width_4 busLabel_4" style="fill: white; stroke: none"/><text x="381" y="35" class="net_6,7,8,9 width_4 busLabel_4">/4/</text><rect x="382" y="27" width="16" height="9" class="net_6,7,8,9 width_4 busLabel_4" style="fill: white; stroke: none"/><text x="381" y="35" class="net_6,7,8,9 width_4 busLabel_4">/4/</text><rect x="382" y="27" width="16" height="9" class="net_6,7,8,9 width_4 busLabel_4" style="fill: white; stroke: none"/><text x="381" y="35" class="net_6,7,8,9 width_4 busLabel_4">/4/</text><rect x="149" y="485.5" width="16" height="9" class="net_38,39,40,41 width_4 busLabel_4" style="fill: white; stroke: none"/><text x="148" y="493.5" class="net_38,39,40,41 width_4 busLabel_4">/4/</text><rect x="149" y="188" width="16" height="9" class="net_44,45,46,47 width_4 busLabel_4" style="fill: white; stroke: none"/><text x="148" y="196" class="net_44,45,46,47 width_4 busLabel_4">/4/</text><rect x="149" y="188" width="16" height="9" class="net_44,45,46,47 width_4 busLabel_4" style="fill: white; stroke: none"/><text x="148" y="196" class="net_44,45,46,47 width_4 busLabel_4">/4/</text><rect x="290" y="71.5" width="16" height="9" class="net_13,14,15,16 width_4 busLabel_4" style="fill: white; stroke: none"/><text x="289" y="79.5" class="net_13,14,15,16 width_4 busLabel_4">/4/</text><rect x="290" y="180.5" width="16" height="9" class="net_19,20,21,22 width_4 busLabel_4" style="fill: white; stroke: none"/><text x="289" y="188.5" class="net_19,20,21,22 width_4 busLabel_4">/4/</text><rect x="462" y="170.5" width="16" height="9" class="net_23,24,25,26 width_4 busLabel_4" style="fill: white; stroke: none"/><text x="461" y="178.5" class="net_23,24,25,26 width_4 busLabel_4">/4/</text><rect x="600" y="160.5" width="16" height="9" class="net_28,29,30,31 width_4 busLabel_4" style="fill: white; stroke: none"/><text x="599" y="168.5" class="net_28,29,30,31 width_4 busLabel_4">/4/</text><rect x="600" y="313" width="16" height="9" class="net_50,51,52,53 width_4 busLabel_4" style="fill: white; stroke: none"/><text x="599" y="321" class="net_50,51,52,53 width_4 busLabel_4">/4/</text><rect x="382" y="550" width="16" height="9" class="net_33,34,35,36 width_4 busLabel_4" style="fill: white; stroke: none"/><text x="381" y="558" class="net_33,34,35,36 width_4 busLabel_4">/4/</text></svg>