<svg xmlns="http://www.w3.org/2000/svg" xmlns:xlink="http://www.w3.org/1999/xlink" xmlns:s="https://github.com/nturley/netlistsvg" width="805.5" height="414.5"><rect width="100%" height="100%" fill="white"/><style>svg {
  stroke:#000;
  fill:none;
}
text {
  fill:#000;
  stroke:none;
  font-size:10px;
  font-weight: bold;
  font-family: "Courier New", monospace;
}
line {
    stroke-linecap: round;
}
.nodelabel {
  text-anchor: middle;
}
.inputPortLabel {
  text-anchor: end;
}
.splitjoinBody {
  fill:#000;
}</style><g s:type="add" transform="translate(219.66666666666666,48)" s:width="25" s:height="25" id="cell_\11"><s:alias val="$add"/><circle r="12.5" cx="12.5" cy="12.5" class="cell_\11"/><line x1="7.5" x2="17.5" y1="12.5" y2="12.5" class="cell_\11"/><line x1="12.5" x2="12.5" y1="7.5" y2="17.5" class="cell_\11"/><g s:x="2" s:y="5" s:pid="A"/><g s:x="2" s:y="20" s:pid="B"/><g s:x="26" s:y="12.5" s:pid="Y"/></g><g s:type="mux" transform="translate(546.3333333333334,178)" s:width="20" s:height="40" id="cell_\12"><s:alias val="$pmux"/><s:alias val="$mux"/><s:alias val="$_MUX_"/><path d="M0,0 L20,10 L20,30 L0,40 Z" class="cell_\12"/><text x="5" y="32" class="nodelabel cell_\12" s:attribute="">1</text><text x="5" y="13" class="nodelabel cell_\12" s:attribute="">0</text><g s:x="0" s:y="10" s:pid="A"/><g s:x="0" s:y="30" s:pid="B"/><g s:x="10" s:y="35" s:pid="S"/><g s:x="20" s:y="20" s:pid="Y"/></g><g s:type="mux-bus" transform="translate(479,50.5)" s:width="24" s:height="40" id="cell_\14"><s:alias val="$pmux-bus"/><s:alias val="$mux-bus"/><s:alias val="$_MUX_-bus"/><path d="M0,0 L20,10 L20,30 L0,40 Z" class="cell_\14"/><path d="M4,2 L4,0 L22,9 L22,31 L4,40 L4,38" class="cell_\14"/><path d="M8,2 L8,0 L24,8 L24,32 L8,40 L8,38" class="cell_\14"/><text x="5" y="32" class="nodelabel cell_\14" s:attribute="">1</text><text x="5" y="13" class="nodelabel cell_\14" s:attribute="">0</text><g s:x="-1" s:y="10" s:pid="A"/><g s:x="-1" s:y="30" s:pid="B"/><g s:x="12" s:y="38" s:pid="S"/><g s:x="24.5" s:y="20" s:pid="Y"/></g><g s:type="and" transform="translate(477,219)" s:width="30" s:height="25" id="cell_\15"><s:alias val="$and"/><s:alias val="$logic_and"/><s:alias val="$_AND_"/><s:alias val="$reduce_and"/><path d="M0,0 L0,25 L15,25 A15 12.5 0 0 0 15,0 Z" class="cell_\15"/><g s:x="0" s:y="5" s:pid="A"/><g s:x="0" s:y="20" s:pid="B"/><g s:x="30" s:y="12.5" s:pid="Y"/></g><g s:type="mux-bus" transform="translate(609,27)" s:width="24" s:height="40" id="cell_\16"><s:alias val="$pmux-bus"/><s:alias val="$mux-bus"/><s:alias val="$_MUX_-bus"/><path d="M0,0 L20,10 L20,30 L0,40 Z" class="cell_\16"/><path d="M4,2 L4,0 L22,9 L22,31 L4,40 L4,38" class="cell_\16"/><path d="M8,2 L8,0 L24,8 L24,32 L8,40 L8,38" class="cell_\16"/><text x="5" y="32" class="nodelabel cell_\16" s:attribute="">1</text><text x="5" y="13" class="nodelabel cell_\16" s:attribute="">0</text><g s:x="-1" s:y="10" s:pid="A"/><g s:x="-1" s:y="30" s:pid="B"/><g s:x="12" s:y="38" s:pid="S"/><g s:x="24.5" s:y="20" s:pid="Y"/></g><g s:type="mux" transform="translate(611.5,188)" s:width="20" s:height="40" id="cell_\17"><s:alias val="$pmux"/><s:alias val="$mux"/><s:alias val="$_MUX_"/><path d="M0,0 L20,10 L20,30 L0,40 Z" class="cell_\17"/><text x="5" y="32" class="nodelabel cell_\17" s:attribute="">1</text><text x="5" y="13" class="nodelabel cell_\17" s:attribute="">0</text><g s:x="0" s:y="10" s:pid="A"/><g s:x="0" s:y="30" s:pid="B"/><g s:x="10" s:y="35" s:pid="S"/><g s:x="20" s:y="20" s:pid="Y"/></g><g s:type="mux-bus" transform="translate(736.5,37)" s:width="24" s:height="40" id="cell_\19"><s:alias val="$pmux-bus"/><s:alias val="$mux-bus"/><s:alias val="$_MUX_-bus"/><path d="M0,0 L20,10 L20,30 L0,40 Z" class="cell_\19"/><path d="M4,2 L4,0 L22,9 L22,31 L4,40 L4,38" class="cell_\19"/><path d="M8,2 L8,0 L24,8 L24,32 L8,40 L8,38" class="cell_\19"/><text x="5" y="32" class="nodelabel cell_\19" s:attribute="">1</text><text x="5" y="13" class="nodelabel cell_\19" s:attribute="">0</text><g s:x="-1" s:y="10" s:pid="A"/><g s:x="-1" s:y="30" s:pid="B"/><g s:x="12" s:y="38" s:pid="S"/><g s:x="24.5" s:y="20" s:pid="Y"/></g><g s:type="dff-bus" transform="translate(78,43)" s:width="34" s:height="44" id="cell_\24"><s:alias val="$dff-bus"/><s:alias val="$_DFF_-bus"/><s:alias val="$_DFF_P_-bus"/><s:alias val="adff-bus"/><s:alias val="$adff-bus"/><s:alias val="$_DFF_-bus"/><s:alias val="$_DFF_P_-bus"/><s:alias val="sdff-bus"/><s:alias val="$sdff-bus"/><s:alias val="$_DFF_-bus"/><s:alias val="$_DFF_P_-bus"/><rect width="30" height="40" x="0" y="0" class="cell_\24"/><path d="M0,35 L5,30 L0,25" class="cell_\24"/><path d="M30,2 L32,2 L32,42 L2,42 L2,40" class="cell_\24"/><path d="M32,4 L34,4 L34,44 L4,44 L4,42" class="cell_\24"/><g s:x="35" s:y="10" s:pid="Q"/><g s:x="-1" s:y="30" s:pid="CLK"/><g s:x="-1" s:y="30" s:pid="C"/><g s:x="-1" s:y="10" s:pid="D"/><g s:x="17" s:y="44" s:pid="ARST"/><g s:x="17" s:y="44" s:pid="SRST"/></g><g s:type="dff" transform="translate(477,295)" s:width="30" s:height="40" id="cell_\25"><s:alias val="$dff"/><s:alias val="$_DFF_"/><s:alias val="$_DFF_P_"/><s:alias val="$adff"/><s:alias val="$_DFF_"/><s:alias val="$_DFF_P_"/><s:alias val="$sdff"/><s:alias val="$_DFF_"/><s:alias val="$_DFF_P_"/><rect width="30" height="40" x="0" y="0" class="cell_\25"/><path d="M0,35 L5,30 L0,25" class="cell_\25"/><g s:x="31" s:y="10" s:pid="Q"/><g s:x="-1" s:y="30" s:pid="CLK"/><g s:x="-1" s:y="30" s:pid="C"/><g s:x="-1" s:y="10" s:pid="D"/><g s:x="15" s:y="40" s:pid="ARST"/><g s:x="15" s:y="40" s:pid="SRST"/></g><g s:type="dff" transform="translate(669.5,198)" s:width="30" s:height="40" id="cell_\26"><s:alias val="$dff"/><s:alias val="$_DFF_"/><s:alias val="$_DFF_P_"/><s:alias val="$adff"/><s:alias val="$_DFF_"/><s:alias val="$_DFF_P_"/><s:alias val="$sdff"/><s:alias val="$_DFF_"/><s:alias val="$_DFF_P_"/><rect width="30" height="40" x="0" y="0" class="cell_\26"/><path d="M0,35 L5,30 L0,25" class="cell_\26"/><g s:x="31" s:y="10" s:pid="Q"/><g s:x="-1" s:y="30" s:pid="CLK"/><g s:x="-1" s:y="30" s:pid="C"/><g s:x="-1" s:y="10" s:pid="D"/><g s:x="15" s:y="40" s:pid="ARST"/><g s:x="15" s:y="40" s:pid="SRST"/></g><g s:type="ne" transform="translate(543,279)" s:width="25" s:height="25" id="cell_\7"><s:alias val="$ne"/><s:alias val="$nex"/><circle r="12.5" cx="12.5" cy="12.5" class="cell_\7"/><line x1="7.5" x2="17.5" y1="10" y2="10" class="cell_\7"/><line x1="7.5" x2="17.5" y1="15" y2="15" class="cell_\7"/><line x1="9" x2="16" y1="18" y2="7" class="cell_\7"/><g s:x="2" s:y="5" s:pid="A"/><g s:x="2" s:y="20" s:pid="B"/><g s:x="25" s:y="12.5" s:pid="Y"/></g><g s:type="eq" transform="translate(345.3333333333333,157)" s:width="25" s:height="25" id="cell_\9"><s:alias val="$eq"/><s:alias val="$eqx"/><circle r="12.5" cx="12.5" cy="12.5" class="cell_\9"/><line x1="7.5" x2="17.5" y1="10" y2="10" class="cell_\9"/><line x1="7.5" x2="17.5" y1="15" y2="15" class="cell_\9"/><g s:x="2" s:y="5" s:pid="A"/><g s:x="2" s:y="20" s:pid="B"/><g s:x="25" s:y="12.5" s:pid="Y"/></g><g s:type="generic" transform="translate(334,273.5)" s:width="30" s:height="40" id="cell_inst_synchronizer"><text x="15" y="-4" class="nodelabel cell_inst_synchronizer" s:attribute="ref">flip_flop_synchronizer_2</text><rect width="30" height="40" s:generic="body" class="cell_inst_synchronizer"/><g transform="translate(0,10)" s:x="0" s:y="10" s:pid="in0" id="port_inst_synchronizer~i_async"><text x="-3" y="-4" class="inputPortLabel cell_inst_synchronizer">i_async</text></g><g transform="translate(0,30)" s:x="0" s:y="10" s:pid="in0" id="port_inst_synchronizer~i_clk"><text x="-3" y="-4" class="inputPortLabel cell_inst_synchronizer">i_clk</text></g><g transform="translate(30,10)" s:x="30" s:y="10" s:pid="out0" id="port_inst_synchronizer~o_sync"><text x="5" y="-4" style="fill:#000; stroke:none" class="cell_inst_synchronizer">o_sync</text></g></g><g s:type="inputExt" transform="translate(214,274)" s:width="30" s:height="20" id="cell_i_input"><text x="15" y="-4" class="nodelabel cell_i_input" s:attribute="ref">i_input</text><s:alias val="$_inputExt_"/><path d="M0,0 L0,20 L15,20 L30,10 L15,0 Z" class="cell_i_input"/><g s:x="30" s:y="10" s:pid="Y"/></g><g s:type="inputExt" transform="translate(12,381.5)" s:width="30" s:height="20" id="cell_i_clk"><text x="15" y="-4" class="nodelabel cell_i_clk" s:attribute="ref">i_clk</text><s:alias val="$_inputExt_"/><path d="M0,0 L0,20 L15,20 L30,10 L15,0 Z" class="cell_i_clk"/><g s:x="30" s:y="10" s:pid="Y"/></g><g s:type="inputExt" transform="translate(334,361.5)" s:width="30" s:height="20" id="cell_i_clk_ena"><text x="15" y="-4" class="nodelabel cell_i_clk_ena" s:attribute="ref">i_clk_ena</text><s:alias val="$_inputExt_"/><path d="M0,0 L0,20 L15,20 L30,10 L15,0 Z" class="cell_i_clk_ena"/><g s:x="30" s:y="10" s:pid="Y"/></g><g s:type="outputExt" transform="translate(735.5,198)" s:width="30" s:height="20" id="cell_o_output"><text x="15" y="-4" class="nodelabel cell_o_output" s:attribute="ref">o_output</text><s:alias val="$_outputExt_"/><path d="M30,0 L30,20 L15,20 L0,10 L15,0 Z" class="cell_o_output"/><g s:x="0" s:y="10" s:pid="A"/></g><g s:type="constant" transform="translate(82,132)" s:width="30" s:height="20" id="cell_0001"><text x="15" y="-4" class="nodelabel cell_0001" s:attribute="ref">0x1</text><s:alias val="$_constant_"/><rect width="30" height="20" class="cell_0001"/><g s:x="31" s:y="10" s:pid="Y"/></g><g s:type="constant" transform="translate(214,118)" s:width="30" s:height="20" id="cell_0000"><text x="15" y="-4" class="nodelabel cell_0000" s:attribute="ref">0x0</text><s:alias val="$_constant_"/><rect width="30" height="20" class="cell_0000"/><g s:x="31" s:y="10" s:pid="Y"/></g><g s:type="constant" transform="translate(148,213)" s:width="30" s:height="20" id="cell_1010"><text x="15" y="-4" class="nodelabel cell_1010" s:attribute="ref">0xa</text><s:alias val="$_constant_"/><rect width="30" height="20" class="cell_1010"/><g s:x="31" s:y="10" s:pid="Y"/></g><line x1="113" x2="221.66666666666666" y1="53" y2="53" class="net_6,7,8,9 width_4" style="stroke-width: 2"/><line x1="113" x2="123" y1="53" y2="53" class="net_6,7,8,9 width_4" style="stroke-width: 2"/><line x1="123" x2="123" y1="53" y2="37" class="net_6,7,8,9 width_4" style="stroke-width: 2"/><circle cx="123" cy="53" r="3" style="fill:#000" class="net_6,7,8,9 width_4"/><line x1="123" x2="608" y1="37" y2="37" class="net_6,7,8,9 width_4" style="stroke-width: 2"/><line x1="113" x2="123" y1="53" y2="53" class="net_6,7,8,9 width_4" style="stroke-width: 2"/><line x1="123" x2="123" y1="53" y2="162" class="net_6,7,8,9 width_4" style="stroke-width: 2"/><line x1="123" x2="347.3333333333333" y1="162" y2="162" class="net_6,7,8,9 width_4" style="stroke-width: 2"/><line x1="113" x2="189" y1="142" y2="142" class="net_33,34,35,36 width_4" style="stroke-width: 2"/><line x1="189" x2="189" y1="142" y2="68" class="net_33,34,35,36 width_4" style="stroke-width: 2"/><line x1="189" x2="221.66666666666666" y1="68" y2="68" class="net_33,34,35,36 width_4" style="stroke-width: 2"/><line x1="700.5" x2="710.5" y1="208" y2="208" class="net_5 width_1" style="stroke-width: 1"/><line x1="710.5" x2="710.5" y1="208" y2="167" class="net_5 width_1" style="stroke-width: 1"/><line x1="710.5" x2="518" y1="167" y2="167" class="net_5 width_1" style="stroke-width: 1"/><line x1="518" x2="518" y1="167" y2="188" class="net_5 width_1" style="stroke-width: 1"/><circle cx="710.5" cy="208" r="2" style="fill:#000" class="net_5 width_1"/><line x1="518" x2="546.3333333333334" y1="188" y2="188" class="net_5 width_1" style="stroke-width: 1"/><line x1="700.5" x2="710.5" y1="208" y2="208" class="net_5 width_1" style="stroke-width: 1"/><line x1="710.5" x2="710.5" y1="208" y2="402.5" class="net_5 width_1" style="stroke-width: 1"/><line x1="710.5" x2="598" y1="402.5" y2="402.5" class="net_5 width_1" style="stroke-width: 1"/><line x1="598" x2="598" y1="402.5" y2="218" class="net_5 width_1" style="stroke-width: 1"/><line x1="598" x2="611.5" y1="218" y2="218" class="net_5 width_1" style="stroke-width: 1"/><line x1="700.5" x2="735.5" y1="208" y2="208" class="net_5 width_1" style="stroke-width: 1"/><line x1="365" x2="456" y1="284" y2="284" class="net_14 width_1" style="stroke-width: 1"/><line x1="456" x2="456" y1="284" y2="208" class="net_14 width_1" style="stroke-width: 1"/><circle cx="456" cy="284" r="2" style="fill:#000" class="net_14 width_1"/><line x1="456" x2="546.3333333333334" y1="208" y2="208" class="net_14 width_1" style="stroke-width: 1"/><line x1="365" x2="456" y1="284" y2="284" class="net_14 width_1" style="stroke-width: 1"/><line x1="456" x2="456" y1="284" y2="305" class="net_14 width_1" style="stroke-width: 1"/><line x1="456" x2="476" y1="305" y2="305" class="net_14 width_1" style="stroke-width: 1"/><line x1="365" x2="545" y1="284" y2="284" class="net_14 width_1" style="stroke-width: 1"/><line x1="507" x2="556.3333333333334" y1="231.5" y2="231.5" class="net_15 width_1" style="stroke-width: 1"/><line x1="556.3333333333334" x2="556.3333333333334" y1="231.5" y2="213" class="net_15 width_1" style="stroke-width: 1"/><line x1="245.66666666666666" x2="478" y1="60.5" y2="60.5" class="net_10,11,12,13 width_4" style="stroke-width: 2"/><line x1="245" x2="446" y1="128" y2="128" class="net_37,38,39,40 width_4" style="stroke-width: 2"/><line x1="446" x2="446" y1="128" y2="80.5" class="net_37,38,39,40 width_4" style="stroke-width: 2"/><line x1="446" x2="478" y1="80.5" y2="80.5" class="net_37,38,39,40 width_4" style="stroke-width: 2"/><line x1="245" x2="266" y1="128" y2="128" class="net_37,38,39,40 width_4" style="stroke-width: 2"/><line x1="266" x2="266" y1="128" y2="145" class="net_37,38,39,40 width_4" style="stroke-width: 2"/><line x1="266" x2="710.5" y1="145" y2="145" class="net_37,38,39,40 width_4" style="stroke-width: 2"/><line x1="710.5" x2="710.5" y1="145" y2="67" class="net_37,38,39,40 width_4" style="stroke-width: 2"/><circle cx="266" cy="128" r="3" style="fill:#000" class="net_37,38,39,40 width_4"/><line x1="710.5" x2="735.5" y1="67" y2="67" class="net_37,38,39,40 width_4" style="stroke-width: 2"/><line x1="370.3333333333333" x2="491" y1="169.5" y2="169.5" class="net_17 width_1" style="stroke-width: 1"/><line x1="491" x2="491" y1="169.5" y2="88.5" class="net_17 width_1" style="stroke-width: 1"/><line x1="370.3333333333333" x2="466" y1="169.5" y2="169.5" class="net_17 width_1" style="stroke-width: 1"/><line x1="466" x2="466" y1="169.5" y2="239" class="net_17 width_1" style="stroke-width: 1"/><circle cx="466" cy="169.5" r="2" style="fill:#000" class="net_17 width_1"/><line x1="466" x2="477" y1="239" y2="239" class="net_17 width_1" style="stroke-width: 1"/><line x1="364" x2="446" y1="371.5" y2="371.5" class="net_4 width_1" style="stroke-width: 1"/><line x1="446" x2="446" y1="371.5" y2="224" class="net_4 width_1" style="stroke-width: 1"/><circle cx="446" cy="371.5" r="2" style="fill:#000" class="net_4 width_1"/><line x1="446" x2="477" y1="224" y2="224" class="net_4 width_1" style="stroke-width: 1"/><line x1="364" x2="588" y1="371.5" y2="371.5" class="net_4 width_1" style="stroke-width: 1"/><line x1="588" x2="588" y1="371.5" y2="178" class="net_4 width_1" style="stroke-width: 1"/><line x1="588" x2="621" y1="178" y2="178" class="net_4 width_1" style="stroke-width: 1"/><line x1="621" x2="621" y1="178" y2="65" class="net_4 width_1" style="stroke-width: 1"/><line x1="503.5" x2="578" y1="70.5" y2="70.5" class="net_18,19,20,21 width_4" style="stroke-width: 2"/><line x1="578" x2="578" y1="70.5" y2="57" class="net_18,19,20,21 width_4" style="stroke-width: 2"/><line x1="578" x2="608" y1="57" y2="57" class="net_18,19,20,21 width_4" style="stroke-width: 2"/><line x1="566.3333333333334" x2="611.5" y1="198" y2="198" class="net_16 width_1" style="stroke-width: 1"/><line x1="568" x2="621.5" y1="291.5" y2="291.5" class="net_26 width_1" style="stroke-width: 1"/><line x1="621.5" x2="621.5" y1="291.5" y2="223" class="net_26 width_1" style="stroke-width: 1"/><line x1="568" x2="578" y1="291.5" y2="291.5" class="net_26 width_1" style="stroke-width: 1"/><line x1="578" x2="578" y1="291.5" y2="156" class="net_26 width_1" style="stroke-width: 1"/><line x1="578" x2="748.5" y1="156" y2="156" class="net_26 width_1" style="stroke-width: 1"/><circle cx="578" cy="291.5" r="2" style="fill:#000" class="net_26 width_1"/><line x1="748.5" x2="748.5" y1="156" y2="75" class="net_26 width_1" style="stroke-width: 1"/><line x1="633.5" x2="735.5" y1="47" y2="47" class="net_22,23,24,25 width_4" style="stroke-width: 2"/><line x1="42" x2="52" y1="391.5" y2="391.5" class="net_3 width_1" style="stroke-width: 1"/><line x1="52" x2="52" y1="391.5" y2="73" class="net_3 width_1" style="stroke-width: 1"/><circle cx="52" cy="391.5" r="2" style="fill:#000" class="net_3 width_1"/><line x1="52" x2="77" y1="73" y2="73" class="net_3 width_1" style="stroke-width: 1"/><line x1="42" x2="456" y1="391.5" y2="391.5" class="net_3 width_1" style="stroke-width: 1"/><line x1="456" x2="456" y1="391.5" y2="325" class="net_3 width_1" style="stroke-width: 1"/><circle cx="456" cy="391.5" r="2" style="fill:#000" class="net_3 width_1"/><line x1="456" x2="476" y1="325" y2="325" class="net_3 width_1" style="stroke-width: 1"/><line x1="42" x2="643.5" y1="391.5" y2="391.5" class="net_3 width_1" style="stroke-width: 1"/><line x1="643.5" x2="643.5" y1="391.5" y2="228" class="net_3 width_1" style="stroke-width: 1"/><line x1="643.5" x2="668.5" y1="228" y2="228" class="net_3 width_1" style="stroke-width: 1"/><line x1="42" x2="266" y1="391.5" y2="391.5" class="net_3 width_1" style="stroke-width: 1"/><line x1="266" x2="266" y1="391.5" y2="304" class="net_3 width_1" style="stroke-width: 1"/><circle cx="266" cy="391.5" r="2" style="fill:#000" class="net_3 width_1"/><line x1="266" x2="334" y1="304" y2="304" class="net_3 width_1" style="stroke-width: 1"/><line x1="761" x2="793.5" y1="57" y2="57" class="net_28,29,30,31 width_4" style="stroke-width: 2"/><line x1="793.5" x2="793.5" y1="57" y2="16" class="net_28,29,30,31 width_4" style="stroke-width: 2"/><line x1="793.5" x2="52" y1="16" y2="16" class="net_28,29,30,31 width_4" style="stroke-width: 2"/><line x1="52" x2="52" y1="16" y2="53" class="net_28,29,30,31 width_4" style="stroke-width: 2"/><line x1="52" x2="77" y1="53" y2="53" class="net_28,29,30,31 width_4" style="stroke-width: 2"/><line x1="631.5" x2="668.5" y1="208" y2="208" class="net_27 width_1" style="stroke-width: 1"/><line x1="508" x2="518" y1="305" y2="305" class="net_32 width_1" style="stroke-width: 1"/><line x1="518" x2="518" y1="305" y2="299" class="net_32 width_1" style="stroke-width: 1"/><line x1="518" x2="545" y1="299" y2="299" class="net_32 width_1" style="stroke-width: 1"/><line x1="179" x2="266" y1="223" y2="223" class="net_45,46,47,48 width_4" style="stroke-width: 2"/><line x1="266" x2="266" y1="223" y2="177" class="net_45,46,47,48 width_4" style="stroke-width: 2"/><line x1="266" x2="347.3333333333333" y1="177" y2="177" class="net_45,46,47,48 width_4" style="stroke-width: 2"/><line x1="244" x2="334" y1="284" y2="284" class="net_2 width_1" style="stroke-width: 1"/><rect x="162.5" y="157" width="16" height="9" class="net_6,7,8,9 width_4 busLabel_4" style="fill: white; stroke: none"/><text x="161.5" y="165" class="net_6,7,8,9 width_4 busLabel_4">/4/</text><rect x="162.5" y="157" width="16" height="9" class="net_6,7,8,9 width_4 busLabel_4" style="fill: white; stroke: none"/><text x="161.5" y="165" class="net_6,7,8,9 width_4 busLabel_4">/4/</text><rect x="162.5" y="157" width="16" height="9" class="net_6,7,8,9 width_4 busLabel_4" style="fill: white; stroke: none"/><text x="161.5" y="165" class="net_6,7,8,9 width_4 busLabel_4">/4/</text><rect x="162.5" y="137" width="16" height="9" class="net_33,34,35,36 width_4 busLabel_4" style="fill: white; stroke: none"/><text x="161.5" y="145" class="net_33,34,35,36 width_4 busLabel_4">/4/</text><rect x="362.5" y="55.5" width="16" height="9" class="net_10,11,12,13 width_4 busLabel_4" style="fill: white; stroke: none"/><text x="361.5" y="63.5" class="net_10,11,12,13 width_4 busLabel_4">/4/</text><rect x="554.5" y="140" width="16" height="9" class="net_37,38,39,40 width_4 busLabel_4" style="fill: white; stroke: none"/><text x="553.5" y="148" class="net_37,38,39,40 width_4 busLabel_4">/4/</text><rect x="554.5" y="140" width="16" height="9" class="net_37,38,39,40 width_4 busLabel_4" style="fill: white; stroke: none"/><text x="553.5" y="148" class="net_37,38,39,40 width_4 busLabel_4">/4/</text><rect x="554.5" y="65.5" width="16" height="9" class="net_18,19,20,21 width_4 busLabel_4" style="fill: white; stroke: none"/><text x="553.5" y="73.5" class="net_18,19,20,21 width_4 busLabel_4">/4/</text><rect x="683.5" y="42" width="16" height="9" class="net_22,23,24,25 width_4 busLabel_4" style="fill: white; stroke: none"/><text x="682.5" y="50" class="net_22,23,24,25 width_4 busLabel_4">/4/</text><rect x="491" y="11" width="16" height="9" class="net_28,29,30,31 width_4 busLabel_4" style="fill: white; stroke: none"/><text x="490" y="19" class="net_28,29,30,31 width_4 busLabel_4">/4/</text><rect x="234" y="218" width="16" height="9" class="net_45,46,47,48 width_4 busLabel_4" style="fill: white; stroke: none"/><text x="233" y="226" class="net_45,46,47,48 width_4 busLabel_4">/4/</text></svg>