<svg xmlns="http://www.w3.org/2000/svg" xmlns:xlink="http://www.w3.org/1999/xlink" xmlns:s="https://github.com/nturley/netlistsvg" width="805.5" height="406.5"><rect width="100%" height="100%" fill="white"/><style>svg {
  stroke:#000;
  fill:none;
}
text {
  fill:#000;
  stroke:none;
  font-size:10px;
  font-weight: bold;
  font-family: "Courier New", monospace;
}
line {
    stroke-linecap: round;
}
.nodelabel {
  text-anchor: middle;
}
.inputPortLabel {
  text-anchor: end;
}
.splitjoinBody {
  fill:#000;
}</style><g s:type="add" transform="translate(219.66666666666666,33)" s:width="25" s:height="25" id="cell_\11"><s:alias val="$add"/><circle r="12.5" cx="12.5" cy="12.5" class="cell_\11"/><line x1="7.5" x2="17.5" y1="12.5" y2="12.5" class="cell_\11"/><line x1="12.5" x2="12.5" y1="7.5" y2="17.5" class="cell_\11"/><g s:x="2" s:y="5" s:pid="A"/><g s:x="2" s:y="20" s:pid="B"/><g s:x="26" s:y="12.5" s:pid="Y"/></g><g s:type="mux" transform="translate(546.3333333333334,215)" s:width="20" s:height="40" id="cell_\12"><s:alias val="$pmux"/><s:alias val="$mux"/><s:alias val="$_MUX_"/><path d="M0,0 L20,10 L20,30 L0,40 Z" class="cell_\12"/><text x="5" y="32" class="nodelabel cell_\12" s:attribute="">1</text><text x="5" y="13" class="nodelabel cell_\12" s:attribute="">0</text><g s:x="0" s:y="10" s:pid="A"/><g s:x="0" s:y="30" s:pid="B"/><g s:x="10" s:y="35" s:pid="S"/><g s:x="20" s:y="20" s:pid="Y"/></g><g s:type="mux-bus" transform="translate(479,35.5)" s:width="24" s:height="40" id="cell_\14"><s:alias val="$pmux-bus"/><s:alias val="$mux-bus"/><s:alias val="$_MUX_-bus"/><path d="M0,0 L20,10 L20,30 L0,40 Z" class="cell_\14"/><path d="M4,2 L4,0 L22,9 L22,31 L4,40 L4,38" class="cell_\14"/><path d="M8,2 L8,0 L24,8 L24,32 L8,40 L8,38" class="cell_\14"/><text x="5" y="32" class="nodelabel cell_\14" s:attribute="">1</text><text x="5" y="13" class="nodelabel cell_\14" s:attribute="">0</text><g s:x="-1" s:y="10" s:pid="A"/><g s:x="-1" s:y="30" s:pid="B"/><g s:x="12" s:y="38" s:pid="S"/><g s:x="24.5" s:y="20" s:pid="Y"/></g><g s:type="and" transform="translate(477,276)" s:width="30" s:height="25" id="cell_\15"><s:alias val="$and"/><s:alias val="$logic_and"/><s:alias val="$_AND_"/><s:alias val="$reduce_and"/><path d="M0,0 L0,25 L15,25 A15 12.5 0 0 0 15,0 Z" class="cell_\15"/><g s:x="0" s:y="5" s:pid="A"/><g s:x="0" s:y="20" s:pid="B"/><g s:x="30" s:y="12.5" s:pid="Y"/></g><g s:type="mux-bus" transform="translate(609,12)" s:width="24" s:height="40" id="cell_\16"><s:alias val="$pmux-bus"/><s:alias val="$mux-bus"/><s:alias val="$_MUX_-bus"/><path d="M0,0 L20,10 L20,30 L0,40 Z" class="cell_\16"/><path d="M4,2 L4,0 L22,9 L22,31 L4,40 L4,38" class="cell_\16"/><path d="M8,2 L8,0 L24,8 L24,32 L8,40 L8,38" class="cell_\16"/><text x="5" y="32" class="nodelabel cell_\16" s:attribute="">1</text><text x="5" y="13" class="nodelabel cell_\16" s:attribute="">0</text><g s:x="-1" s:y="10" s:pid="A"/><g s:x="-1" s:y="30" s:pid="B"/><g s:x="12" s:y="38" s:pid="S"/><g s:x="24.5" s:y="20" s:pid="Y"/></g><g s:type="mux" transform="translate(611.5,225)" s:width="20" s:height="40" id="cell_\17"><s:alias val="$pmux"/><s:alias val="$mux"/><s:alias val="$_MUX_"/><path d="M0,0 L20,10 L20,30 L0,40 Z" class="cell_\17"/><text x="5" y="32" class="nodelabel cell_\17" s:attribute="">1</text><text x="5" y="13" class="nodelabel cell_\17" s:attribute="">0</text><g s:x="0" s:y="10" s:pid="A"/><g s:x="0" s:y="30" s:pid="B"/><g s:x="10" s:y="35" s:pid="S"/><g s:x="20" s:y="20" s:pid="Y"/></g><g s:type="mux-bus" transform="translate(736.5,22)" s:width="24" s:height="40" id="cell_\19"><s:alias val="$pmux-bus"/><s:alias val="$mux-bus"/><s:alias val="$_MUX_-bus"/><path d="M0,0 L20,10 L20,30 L0,40 Z" class="cell_\19"/><path d="M4,2 L4,0 L22,9 L22,31 L4,40 L4,38" class="cell_\19"/><path d="M8,2 L8,0 L24,8 L24,32 L8,40 L8,38" class="cell_\19"/><text x="5" y="32" class="nodelabel cell_\19" s:attribute="">1</text><text x="5" y="13" class="nodelabel cell_\19" s:attribute="">0</text><g s:x="-1" s:y="10" s:pid="A"/><g s:x="-1" s:y="30" s:pid="B"/><g s:x="12" s:y="38" s:pid="S"/><g s:x="24.5" s:y="20" s:pid="Y"/></g><g s:type="dff-bus" transform="translate(78,28)" s:width="34" s:height="44" id="cell_\24"><s:alias val="$dff-bus"/><s:alias val="$_DFF_-bus"/><s:alias val="$_DFF_P_-bus"/><s:alias val="adff-bus"/><s:alias val="$adff-bus"/><s:alias val="$_DFF_-bus"/><s:alias val="$_DFF_P_-bus"/><s:alias val="sdff-bus"/><s:alias val="$sdff-bus"/><s:alias val="$_DFF_-bus"/><s:alias val="$_DFF_P_-bus"/><rect width="30" height="40" x="0" y="0" class="cell_\24"/><path d="M0,35 L5,30 L0,25" class="cell_\24"/><path d="M30,2 L32,2 L32,42 L2,42 L2,40" class="cell_\24"/><path d="M32,4 L34,4 L34,44 L4,44 L4,42" class="cell_\24"/><g s:x="35" s:y="10" s:pid="Q"/><g s:x="-1" s:y="30" s:pid="CLK"/><g s:x="-1" s:y="30" s:pid="C"/><g s:x="-1" s:y="10" s:pid="D"/><g s:x="17" s:y="44" s:pid="ARST"/><g s:x="17" s:y="44" s:pid="SRST"/></g><g s:type="dff" transform="translate(477,185)" s:width="30" s:height="40" id="cell_\25"><s:alias val="$dff"/><s:alias val="$_DFF_"/><s:alias val="$_DFF_P_"/><s:alias val="$adff"/><s:alias val="$_DFF_"/><s:alias val="$_DFF_P_"/><s:alias val="$sdff"/><s:alias val="$_DFF_"/><s:alias val="$_DFF_P_"/><rect width="30" height="40" x="0" y="0" class="cell_\25"/><path d="M0,35 L5,30 L0,25" class="cell_\25"/><g s:x="31" s:y="10" s:pid="Q"/><g s:x="-1" s:y="30" s:pid="CLK"/><g s:x="-1" s:y="30" s:pid="C"/><g s:x="-1" s:y="10" s:pid="D"/><g s:x="15" s:y="40" s:pid="ARST"/><g s:x="15" s:y="40" s:pid="SRST"/></g><g s:type="dff" transform="translate(669.5,235)" s:width="30" s:height="40" id="cell_\26"><s:alias val="$dff"/><s:alias val="$_DFF_"/><s:alias val="$_DFF_P_"/><s:alias val="$adff"/><s:alias val="$_DFF_"/><s:alias val="$_DFF_P_"/><s:alias val="$sdff"/><s:alias val="$_DFF_"/><s:alias val="$_DFF_P_"/><rect width="30" height="40" x="0" y="0" class="cell_\26"/><path d="M0,35 L5,30 L0,25" class="cell_\26"/><g s:x="31" s:y="10" s:pid="Q"/><g s:x="-1" s:y="30" s:pid="CLK"/><g s:x="-1" s:y="30" s:pid="C"/><g s:x="-1" s:y="10" s:pid="D"/><g s:x="15" s:y="40" s:pid="ARST"/><g s:x="15" s:y="40" s:pid="SRST"/></g><g s:type="ne" transform="translate(543,169)" s:width="25" s:height="25" id="cell_\7"><s:alias val="$ne"/><s:alias val="$nex"/><circle r="12.5" cx="12.5" cy="12.5" class="cell_\7"/><line x1="7.5" x2="17.5" y1="10" y2="10" class="cell_\7"/><line x1="7.5" x2="17.5" y1="15" y2="15" class="cell_\7"/><line x1="9" x2="16" y1="18" y2="7" class="cell_\7"/><g s:x="2" s:y="5" s:pid="A"/><g s:x="2" s:y="20" s:pid="B"/><g s:x="25" s:y="12.5" s:pid="Y"/></g><g s:type="eq" transform="translate(345.3333333333333,283.5)" s:width="25" s:height="25" id="cell_\9"><s:alias val="$eq"/><s:alias val="$eqx"/><circle r="12.5" cx="12.5" cy="12.5" class="cell_\9"/><line x1="7.5" x2="17.5" y1="10" y2="10" class="cell_\9"/><line x1="7.5" x2="17.5" y1="15" y2="15" class="cell_\9"/><g s:x="2" s:y="5" s:pid="A"/><g s:x="2" s:y="20" s:pid="B"/><g s:x="25" s:y="12.5" s:pid="Y"/></g><g s:type="generic" transform="translate(334,184.5)" s:width="30" s:height="40" id="cell_inst_synchronizer"><text x="15" y="-4" class="nodelabel cell_inst_synchronizer" s:attribute="ref">flip_flop_synchronizer_2</text><rect width="30" height="40" s:generic="body" class="cell_inst_synchronizer"/><g transform="translate(0,10)" s:x="0" s:y="10" s:pid="in0" id="port_inst_synchronizer~i_async"><text x="-3" y="-4" class="inputPortLabel cell_inst_synchronizer">i_async</text></g><g transform="translate(0,30)" s:x="0" s:y="10" s:pid="in0" id="port_inst_synchronizer~i_clk"><text x="-3" y="-4" class="inputPortLabel cell_inst_synchronizer">i_clk</text></g><g transform="translate(30,10)" s:x="30" s:y="10" s:pid="out0" id="port_inst_synchronizer~o_sync"><text x="5" y="-4" style="fill:#000; stroke:none" class="cell_inst_synchronizer">o_sync</text></g></g><g s:type="inputExt" transform="translate(214,185)" s:width="30" s:height="20" id="cell_i_input"><text x="15" y="-4" class="nodelabel cell_i_input" s:attribute="ref">i_input</text><s:alias val="$_inputExt_"/><path d="M0,0 L0,20 L15,20 L30,10 L15,0 Z" class="cell_i_input"/><g s:x="30" s:y="10" s:pid="Y"/></g><g s:type="inputExt" transform="translate(12,227.5)" s:width="30" s:height="20" id="cell_i_clk"><text x="15" y="-4" class="nodelabel cell_i_clk" s:attribute="ref">i_clk</text><s:alias val="$_inputExt_"/><path d="M0,0 L0,20 L15,20 L30,10 L15,0 Z" class="cell_i_clk"/><g s:x="30" s:y="10" s:pid="Y"/></g><g s:type="inputExt" transform="translate(334,353.5)" s:width="30" s:height="20" id="cell_i_clk_ena"><text x="15" y="-4" class="nodelabel cell_i_clk_ena" s:attribute="ref">i_clk_ena</text><s:alias val="$_inputExt_"/><path d="M0,0 L0,20 L15,20 L30,10 L15,0 Z" class="cell_i_clk_ena"/><g s:x="30" s:y="10" s:pid="Y"/></g><g s:type="outputExt" transform="translate(735.5,235)" s:width="30" s:height="20" id="cell_o_output"><text x="15" y="-4" class="nodelabel cell_o_output" s:attribute="ref">o_output</text><s:alias val="$_outputExt_"/><path d="M30,0 L30,20 L15,20 L0,10 L15,0 Z" class="cell_o_output"/><g s:x="0" s:y="10" s:pid="A"/></g><g s:type="constant" transform="translate(148,89)" s:width="30" s:height="20" id="cell_1"><text x="15" y="-4" class="nodelabel cell_1" s:attribute="ref">1</text><s:alias val="$_constant_"/><rect width="30" height="20" class="cell_1"/><g s:x="31" s:y="10" s:pid="Y"/></g><g s:type="constant" transform="translate(214,103)" s:width="30" s:height="20" id="cell_00000"><text x="15" y="-4" class="nodelabel cell_00000" s:attribute="ref">0x0</text><s:alias val="$_constant_"/><rect width="30" height="20" class="cell_00000"/><g s:x="31" s:y="10" s:pid="Y"/></g><g s:type="constant" transform="translate(148,339.5)" s:width="30" s:height="20" id="cell_1010"><text x="15" y="-4" class="nodelabel cell_1010" s:attribute="ref">0xa</text><s:alias val="$_constant_"/><rect width="30" height="20" class="cell_1010"/><g s:x="31" s:y="10" s:pid="Y"/></g><line x1="113" x2="221.66666666666666" y1="38" y2="38" class="net_6,7,8,9,10 width_5" style="stroke-width: 2"/><line x1="113" x2="133" y1="38" y2="38" class="net_6,7,8,9,10 width_5" style="stroke-width: 2"/><line x1="133" x2="133" y1="38" y2="22" class="net_6,7,8,9,10 width_5" style="stroke-width: 2"/><circle cx="133" cy="38" r="3" style="fill:#000" class="net_6,7,8,9,10 width_5"/><line x1="133" x2="608" y1="22" y2="22" class="net_6,7,8,9,10 width_5" style="stroke-width: 2"/><line x1="113" x2="133" y1="38" y2="38" class="net_6,7,8,9,10 width_5" style="stroke-width: 2"/><line x1="133" x2="133" y1="38" y2="288.5" class="net_6,7,8,9,10 width_5" style="stroke-width: 2"/><line x1="133" x2="347.3333333333333" y1="288.5" y2="288.5" class="net_6,7,8,9,10 width_5" style="stroke-width: 2"/><line x1="179" x2="189" y1="99" y2="99" class="net_38 width_1" style="stroke-width: 1"/><line x1="189" x2="189" y1="99" y2="53" class="net_38 width_1" style="stroke-width: 1"/><line x1="189" x2="221.66666666666666" y1="53" y2="53" class="net_38 width_1" style="stroke-width: 1"/><line x1="700.5" x2="710.5" y1="245" y2="245" class="net_5 width_1" style="stroke-width: 1"/><line x1="710.5" x2="710.5" y1="245" y2="204" class="net_5 width_1" style="stroke-width: 1"/><line x1="710.5" x2="518" y1="204" y2="204" class="net_5 width_1" style="stroke-width: 1"/><line x1="518" x2="518" y1="204" y2="225" class="net_5 width_1" style="stroke-width: 1"/><circle cx="710.5" cy="245" r="2" style="fill:#000" class="net_5 width_1"/><line x1="518" x2="546.3333333333334" y1="225" y2="225" class="net_5 width_1" style="stroke-width: 1"/><line x1="700.5" x2="710.5" y1="245" y2="245" class="net_5 width_1" style="stroke-width: 1"/><line x1="710.5" x2="710.5" y1="245" y2="394.5" class="net_5 width_1" style="stroke-width: 1"/><line x1="710.5" x2="588" y1="394.5" y2="394.5" class="net_5 width_1" style="stroke-width: 1"/><line x1="588" x2="588" y1="394.5" y2="255" class="net_5 width_1" style="stroke-width: 1"/><line x1="588" x2="611.5" y1="255" y2="255" class="net_5 width_1" style="stroke-width: 1"/><line x1="700.5" x2="735.5" y1="245" y2="245" class="net_5 width_1" style="stroke-width: 1"/><line x1="365" x2="466" y1="195" y2="195" class="net_16 width_1" style="stroke-width: 1"/><line x1="466" x2="466" y1="195" y2="245" class="net_16 width_1" style="stroke-width: 1"/><circle cx="466" cy="195" r="2" style="fill:#000" class="net_16 width_1"/><line x1="466" x2="546.3333333333334" y1="245" y2="245" class="net_16 width_1" style="stroke-width: 1"/><line x1="365" x2="476" y1="195" y2="195" class="net_16 width_1" style="stroke-width: 1"/><line x1="365" x2="466" y1="195" y2="195" class="net_16 width_1" style="stroke-width: 1"/><line x1="466" x2="466" y1="195" y2="174" class="net_16 width_1" style="stroke-width: 1"/><line x1="466" x2="545" y1="174" y2="174" class="net_16 width_1" style="stroke-width: 1"/><line x1="507" x2="556.3333333333334" y1="288.5" y2="288.5" class="net_17 width_1" style="stroke-width: 1"/><line x1="556.3333333333334" x2="556.3333333333334" y1="288.5" y2="250" class="net_17 width_1" style="stroke-width: 1"/><line x1="245.66666666666666" x2="478" y1="45.5" y2="45.5" class="net_11,12,13,14,15 width_5" style="stroke-width: 2"/><line x1="245" x2="446" y1="113" y2="113" class="net_39,40,41,42,43 width_5" style="stroke-width: 2"/><line x1="446" x2="446" y1="113" y2="65.5" class="net_39,40,41,42,43 width_5" style="stroke-width: 2"/><line x1="446" x2="478" y1="65.5" y2="65.5" class="net_39,40,41,42,43 width_5" style="stroke-width: 2"/><line x1="245" x2="266" y1="113" y2="113" class="net_39,40,41,42,43 width_5" style="stroke-width: 2"/><line x1="266" x2="266" y1="113" y2="130" class="net_39,40,41,42,43 width_5" style="stroke-width: 2"/><line x1="266" x2="710.5" y1="130" y2="130" class="net_39,40,41,42,43 width_5" style="stroke-width: 2"/><line x1="710.5" x2="710.5" y1="130" y2="52" class="net_39,40,41,42,43 width_5" style="stroke-width: 2"/><circle cx="266" cy="113" r="3" style="fill:#000" class="net_39,40,41,42,43 width_5"/><line x1="710.5" x2="735.5" y1="52" y2="52" class="net_39,40,41,42,43 width_5" style="stroke-width: 2"/><line x1="370.3333333333333" x2="446" y1="296" y2="296" class="net_19 width_1" style="stroke-width: 1"/><line x1="446" x2="446" y1="296" y2="164" class="net_19 width_1" style="stroke-width: 1"/><line x1="446" x2="491" y1="164" y2="164" class="net_19 width_1" style="stroke-width: 1"/><circle cx="446" cy="296" r="2" style="fill:#000" class="net_19 width_1"/><line x1="491" x2="491" y1="164" y2="73.5" class="net_19 width_1" style="stroke-width: 1"/><line x1="370.3333333333333" x2="477" y1="296" y2="296" class="net_19 width_1" style="stroke-width: 1"/><line x1="364" x2="456" y1="363.5" y2="363.5" class="net_4 width_1" style="stroke-width: 1"/><line x1="456" x2="456" y1="363.5" y2="281" class="net_4 width_1" style="stroke-width: 1"/><circle cx="456" cy="281" r="2" style="fill:#000" class="net_4 width_1"/><line x1="456" x2="477" y1="281" y2="281" class="net_4 width_1" style="stroke-width: 1"/><line x1="364" x2="456" y1="363.5" y2="363.5" class="net_4 width_1" style="stroke-width: 1"/><line x1="456" x2="456" y1="363.5" y2="265" class="net_4 width_1" style="stroke-width: 1"/><line x1="456" x2="578" y1="265" y2="265" class="net_4 width_1" style="stroke-width: 1"/><line x1="578" x2="578" y1="265" y2="215" class="net_4 width_1" style="stroke-width: 1"/><line x1="578" x2="621" y1="215" y2="215" class="net_4 width_1" style="stroke-width: 1"/><line x1="621" x2="621" y1="215" y2="50" class="net_4 width_1" style="stroke-width: 1"/><line x1="503.5" x2="578" y1="55.5" y2="55.5" class="net_20,21,22,23,24 width_5" style="stroke-width: 2"/><line x1="578" x2="578" y1="55.5" y2="42" class="net_20,21,22,23,24 width_5" style="stroke-width: 2"/><line x1="578" x2="608" y1="42" y2="42" class="net_20,21,22,23,24 width_5" style="stroke-width: 2"/><line x1="566.3333333333334" x2="611.5" y1="235" y2="235" class="net_18 width_1" style="stroke-width: 1"/><line x1="568" x2="598" y1="181.5" y2="181.5" class="net_30 width_1" style="stroke-width: 1"/><line x1="598" x2="598" y1="181.5" y2="275" class="net_30 width_1" style="stroke-width: 1"/><line x1="598" x2="621.5" y1="275" y2="275" class="net_30 width_1" style="stroke-width: 1"/><circle cx="598" cy="181.5" r="2" style="fill:#000" class="net_30 width_1"/><line x1="621.5" x2="621.5" y1="275" y2="260" class="net_30 width_1" style="stroke-width: 1"/><line x1="568" x2="598" y1="181.5" y2="181.5" class="net_30 width_1" style="stroke-width: 1"/><line x1="598" x2="598" y1="181.5" y2="141" class="net_30 width_1" style="stroke-width: 1"/><line x1="598" x2="748.5" y1="141" y2="141" class="net_30 width_1" style="stroke-width: 1"/><line x1="748.5" x2="748.5" y1="141" y2="60" class="net_30 width_1" style="stroke-width: 1"/><line x1="633.5" x2="735.5" y1="32" y2="32" class="net_25,26,27,28,29 width_5" style="stroke-width: 2"/><line x1="42" x2="62" y1="237.5" y2="237.5" class="net_3 width_1" style="stroke-width: 1"/><line x1="62" x2="62" y1="237.5" y2="58" class="net_3 width_1" style="stroke-width: 1"/><circle cx="62" cy="237.5" r="2" style="fill:#000" class="net_3 width_1"/><line x1="62" x2="77" y1="58" y2="58" class="net_3 width_1" style="stroke-width: 1"/><line x1="42" x2="456" y1="237.5" y2="237.5" class="net_3 width_1" style="stroke-width: 1"/><line x1="456" x2="456" y1="237.5" y2="215" class="net_3 width_1" style="stroke-width: 1"/><line x1="456" x2="476" y1="215" y2="215" class="net_3 width_1" style="stroke-width: 1"/><line x1="42" x2="123" y1="237.5" y2="237.5" class="net_3 width_1" style="stroke-width: 1"/><line x1="123" x2="123" y1="237.5" y2="383.5" class="net_3 width_1" style="stroke-width: 1"/><line x1="123" x2="643.5" y1="383.5" y2="383.5" class="net_3 width_1" style="stroke-width: 1"/><line x1="643.5" x2="643.5" y1="383.5" y2="265" class="net_3 width_1" style="stroke-width: 1"/><circle cx="123" cy="237.5" r="2" style="fill:#000" class="net_3 width_1"/><line x1="643.5" x2="668.5" y1="265" y2="265" class="net_3 width_1" style="stroke-width: 1"/><line x1="42" x2="266" y1="237.5" y2="237.5" class="net_3 width_1" style="stroke-width: 1"/><line x1="266" x2="266" y1="237.5" y2="215" class="net_3 width_1" style="stroke-width: 1"/><circle cx="266" cy="237.5" r="2" style="fill:#000" class="net_3 width_1"/><line x1="266" x2="334" y1="215" y2="215" class="net_3 width_1" style="stroke-width: 1"/><line x1="761" x2="793.5" y1="42" y2="42" class="net_32,33,34,35,36 width_5" style="stroke-width: 2"/><line x1="793.5" x2="793.5" y1="42" y2="153" class="net_32,33,34,35,36 width_5" style="stroke-width: 2"/><line x1="793.5" x2="52" y1="153" y2="153" class="net_32,33,34,35,36 width_5" style="stroke-width: 2"/><line x1="52" x2="52" y1="153" y2="38" class="net_32,33,34,35,36 width_5" style="stroke-width: 2"/><line x1="52" x2="77" y1="38" y2="38" class="net_32,33,34,35,36 width_5" style="stroke-width: 2"/><line x1="631.5" x2="668.5" y1="245" y2="245" class="net_31 width_1" style="stroke-width: 1"/><line x1="508" x2="518" y1="195" y2="195" class="net_37 width_1" style="stroke-width: 1"/><line x1="518" x2="518" y1="195" y2="189" class="net_37 width_1" style="stroke-width: 1"/><line x1="518" x2="545" y1="189" y2="189" class="net_37 width_1" style="stroke-width: 1"/><line x1="179" x2="266" y1="349.5" y2="349.5" class="net_49,50,51,52 width_4" style="stroke-width: 2"/><line x1="266" x2="266" y1="349.5" y2="303.5" class="net_49,50,51,52 width_4" style="stroke-width: 2"/><line x1="266" x2="347.3333333333333" y1="303.5" y2="303.5" class="net_49,50,51,52 width_4" style="stroke-width: 2"/><line x1="244" x2="334" y1="195" y2="195" class="net_2 width_1" style="stroke-width: 1"/><rect x="162.5" y="283.5" width="16" height="9" class="net_6,7,8,9,10 width_5 busLabel_5" style="fill: white; stroke: none"/><text x="161.5" y="291.5" class="net_6,7,8,9,10 width_5 busLabel_5">/5/</text><rect x="162.5" y="283.5" width="16" height="9" class="net_6,7,8,9,10 width_5 busLabel_5" style="fill: white; stroke: none"/><text x="161.5" y="291.5" class="net_6,7,8,9,10 width_5 busLabel_5">/5/</text><rect x="162.5" y="283.5" width="16" height="9" class="net_6,7,8,9,10 width_5 busLabel_5" style="fill: white; stroke: none"/><text x="161.5" y="291.5" class="net_6,7,8,9,10 width_5 busLabel_5">/5/</text><rect x="362.5" y="40.5" width="16" height="9" class="net_11,12,13,14,15 width_5 busLabel_5" style="fill: white; stroke: none"/><text x="361.5" y="48.5" class="net_11,12,13,14,15 width_5 busLabel_5">/5/</text><rect x="554.5" y="125" width="16" height="9" class="net_39,40,41,42,43 width_5 busLabel_5" style="fill: white; stroke: none"/><text x="553.5" y="133" class="net_39,40,41,42,43 width_5 busLabel_5">/5/</text><rect x="554.5" y="125" width="16" height="9" class="net_39,40,41,42,43 width_5 busLabel_5" style="fill: white; stroke: none"/><text x="553.5" y="133" class="net_39,40,41,42,43 width_5 busLabel_5">/5/</text><rect x="554.5" y="50.5" width="16" height="9" class="net_20,21,22,23,24 width_5 busLabel_5" style="fill: white; stroke: none"/><text x="553.5" y="58.5" class="net_20,21,22,23,24 width_5 busLabel_5">/5/</text><rect x="683.5" y="27" width="16" height="9" class="net_25,26,27,28,29 width_5 busLabel_5" style="fill: white; stroke: none"/><text x="682.5" y="35" class="net_25,26,27,28,29 width_5 busLabel_5">/5/</text><rect x="491" y="148" width="16" height="9" class="net_32,33,34,35,36 width_5 busLabel_5" style="fill: white; stroke: none"/><text x="490" y="156" class="net_32,33,34,35,36 width_5 busLabel_5">/5/</text><rect x="234" y="344.5" width="16" height="9" class="net_49,50,51,52 width_4 busLabel_4" style="fill: white; stroke: none"/><text x="233" y="352.5" class="net_49,50,51,52 width_4 busLabel_4">/4/</text></svg>