<svg xmlns="http://www.w3.org/2000/svg" xmlns:xlink="http://www.w3.org/1999/xlink" xmlns:s="https://github.com/nturley/netlistsvg" width="889" height="560"><rect width="100%" height="100%" fill="white"/><style>svg {
  stroke:#000;
  fill:none;
}
text {
  fill:#000;
  stroke:none;
  font-size:10px;
  font-weight: bold;
  font-family: "Courier New", monospace;
}
line {
    stroke-linecap: round;
}
.nodelabel {
  text-anchor: middle;
}
.inputPortLabel {
  text-anchor: end;
}
.splitjoinBody {
  fill:#000;
}</style><g s:type="eq" transform="translate(279.3333333333333,231.5)" s:width="25" s:height="25" id="cell_\10"><s:alias val="$eq"/><s:alias val="$eqx"/><circle r="12.5" cx="12.5" cy="12.5" class="cell_\10"/><line x1="7.5" x2="17.5" y1="10" y2="10" class="cell_\10"/><line x1="7.5" x2="17.5" y1="15" y2="15" class="cell_\10"/><g s:x="2" s:y="5" s:pid="A"/><g s:x="2" s:y="20" s:pid="B"/><g s:x="25" s:y="12.5" s:pid="Y"/></g><g s:type="add" transform="translate(420,89)" s:width="25" s:height="25" id="cell_\12"><s:alias val="$add"/><circle r="12.5" cx="12.5" cy="12.5" class="cell_\12"/><line x1="7.5" x2="17.5" y1="12.5" y2="12.5" class="cell_\12"/><line x1="12.5" x2="12.5" y1="7.5" y2="17.5" class="cell_\12"/><g s:x="2" s:y="5" s:pid="A"/><g s:x="2" s:y="20" s:pid="B"/><g s:x="26" s:y="12.5" s:pid="Y"/></g><g s:type="mux-bus" transform="translate(565,173)" s:width="24" s:height="40" id="cell_\14"><s:alias val="$pmux-bus"/><s:alias val="$mux-bus"/><s:alias val="$_MUX_-bus"/><path d="M0,0 L20,10 L20,30 L0,40 Z" class="cell_\14"/><path d="M4,2 L4,0 L22,9 L22,31 L4,40 L4,38" class="cell_\14"/><path d="M8,2 L8,0 L24,8 L24,32 L8,40 L8,38" class="cell_\14"/><text x="5" y="32" class="nodelabel cell_\14" s:attribute="">1</text><text x="5" y="13" class="nodelabel cell_\14" s:attribute="">0</text><g s:x="-1" s:y="10" s:pid="A"/><g s:x="-1" s:y="30" s:pid="B"/><g s:x="12" s:y="38" s:pid="S"/><g s:x="24.5" s:y="20" s:pid="Y"/></g><g s:type="mux" transform="translate(421.6666666666667,468)" s:width="20" s:height="40" id="cell_\17"><s:alias val="$pmux"/><s:alias val="$mux"/><s:alias val="$_MUX_"/><path d="M0,0 L20,10 L20,30 L0,40 Z" class="cell_\17"/><text x="5" y="32" class="nodelabel cell_\17" s:attribute="">1</text><text x="5" y="13" class="nodelabel cell_\17" s:attribute="">0</text><g s:x="0" s:y="10" s:pid="A"/><g s:x="0" s:y="30" s:pid="B"/><g s:x="10" s:y="35" s:pid="S"/><g s:x="20" s:y="20" s:pid="Y"/></g><g s:type="mux-bus" transform="translate(692.5,163)" s:width="24" s:height="40" id="cell_\18"><s:alias val="$pmux-bus"/><s:alias val="$mux-bus"/><s:alias val="$_MUX_-bus"/><path d="M0,0 L20,10 L20,30 L0,40 Z" class="cell_\18"/><path d="M4,2 L4,0 L22,9 L22,31 L4,40 L4,38" class="cell_\18"/><path d="M8,2 L8,0 L24,8 L24,32 L8,40 L8,38" class="cell_\18"/><text x="5" y="32" class="nodelabel cell_\18" s:attribute="">1</text><text x="5" y="13" class="nodelabel cell_\18" s:attribute="">0</text><g s:x="-1" s:y="10" s:pid="A"/><g s:x="-1" s:y="30" s:pid="B"/><g s:x="12" s:y="38" s:pid="S"/><g s:x="24.5" s:y="20" s:pid="Y"/></g><g s:type="mux" transform="translate(500.6666666666667,458)" s:width="20" s:height="40" id="cell_\20"><s:alias val="$pmux"/><s:alias val="$mux"/><s:alias val="$_MUX_"/><path d="M0,0 L20,10 L20,30 L0,40 Z" class="cell_\20"/><text x="5" y="32" class="nodelabel cell_\20" s:attribute="">1</text><text x="5" y="13" class="nodelabel cell_\20" s:attribute="">0</text><g s:x="0" s:y="10" s:pid="A"/><g s:x="0" s:y="30" s:pid="B"/><g s:x="10" s:y="35" s:pid="S"/><g s:x="20" s:y="20" s:pid="Y"/></g><g s:type="mux-bus" transform="translate(820,194)" s:width="24" s:height="40" id="cell_\23"><s:alias val="$pmux-bus"/><s:alias val="$mux-bus"/><s:alias val="$_MUX_-bus"/><path d="M0,0 L20,10 L20,30 L0,40 Z" class="cell_\23"/><path d="M4,2 L4,0 L22,9 L22,31 L4,40 L4,38" class="cell_\23"/><path d="M8,2 L8,0 L24,8 L24,32 L8,40 L8,38" class="cell_\23"/><text x="5" y="32" class="nodelabel cell_\23" s:attribute="">1</text><text x="5" y="13" class="nodelabel cell_\23" s:attribute="">0</text><g s:x="-1" s:y="10" s:pid="A"/><g s:x="-1" s:y="30" s:pid="B"/><g s:x="12" s:y="38" s:pid="S"/><g s:x="24.5" s:y="20" s:pid="Y"/></g><g s:type="mux" transform="translate(567.5,468)" s:width="20" s:height="40" id="cell_\24"><s:alias val="$pmux"/><s:alias val="$mux"/><s:alias val="$_MUX_"/><path d="M0,0 L20,10 L20,30 L0,40 Z" class="cell_\24"/><text x="5" y="32" class="nodelabel cell_\24" s:attribute="">1</text><text x="5" y="13" class="nodelabel cell_\24" s:attribute="">0</text><g s:x="0" s:y="10" s:pid="A"/><g s:x="0" s:y="30" s:pid="B"/><g s:x="10" s:y="35" s:pid="S"/><g s:x="20" s:y="20" s:pid="Y"/></g><g s:type="dff-bus" transform="translate(78,38)" s:width="34" s:height="44" id="cell_\31"><s:alias val="$dff-bus"/><s:alias val="$_DFF_-bus"/><s:alias val="$_DFF_P_-bus"/><s:alias val="adff-bus"/><s:alias val="$adff-bus"/><s:alias val="$_DFF_-bus"/><s:alias val="$_DFF_P_-bus"/><s:alias val="sdff-bus"/><s:alias val="$sdff-bus"/><s:alias val="$_DFF_-bus"/><s:alias val="$_DFF_P_-bus"/><rect width="30" height="40" x="0" y="0" class="cell_\31"/><path d="M0,35 L5,30 L0,25" class="cell_\31"/><path d="M30,2 L32,2 L32,42 L2,42 L2,40" class="cell_\31"/><path d="M32,4 L34,4 L34,44 L4,44 L4,42" class="cell_\31"/><g s:x="35" s:y="10" s:pid="Q"/><g s:x="-1" s:y="30" s:pid="CLK"/><g s:x="-1" s:y="30" s:pid="C"/><g s:x="-1" s:y="10" s:pid="D"/><g s:x="17" s:y="44" s:pid="ARST"/><g s:x="17" s:y="44" s:pid="SRST"/></g><g s:type="dff" transform="translate(418.3333333333333,383)" s:width="30" s:height="40" id="cell_\32"><s:alias val="$dff"/><s:alias val="$_DFF_"/><s:alias val="$_DFF_P_"/><s:alias val="$adff"/><s:alias val="$_DFF_"/><s:alias val="$_DFF_P_"/><s:alias val="$sdff"/><s:alias val="$_DFF_"/><s:alias val="$_DFF_P_"/><rect width="30" height="40" x="0" y="0" class="cell_\32"/><path d="M0,35 L5,30 L0,25" class="cell_\32"/><g s:x="31" s:y="10" s:pid="Q"/><g s:x="-1" s:y="30" s:pid="CLK"/><g s:x="-1" s:y="30" s:pid="C"/><g s:x="-1" s:y="10" s:pid="D"/><g s:x="15" s:y="40" s:pid="ARST"/><g s:x="15" s:y="40" s:pid="SRST"/></g><g s:type="dff" transform="translate(625.5,478)" s:width="30" s:height="40" id="cell_\33"><s:alias val="$dff"/><s:alias val="$_DFF_"/><s:alias val="$_DFF_P_"/><s:alias val="$adff"/><s:alias val="$_DFF_"/><s:alias val="$_DFF_P_"/><s:alias val="$sdff"/><s:alias val="$_DFF_"/><s:alias val="$_DFF_P_"/><rect width="30" height="40" x="0" y="0" class="cell_\33"/><path d="M0,35 L5,30 L0,25" class="cell_\33"/><g s:x="31" s:y="10" s:pid="Q"/><g s:x="-1" s:y="30" s:pid="CLK"/><g s:x="-1" s:y="30" s:pid="C"/><g s:x="-1" s:y="10" s:pid="D"/><g s:x="15" s:y="40" s:pid="ARST"/><g s:x="15" s:y="40" s:pid="SRST"/></g><g s:type="mux" transform="translate(695,277)" s:width="20" s:height="40" id="cell_\34"><s:alias val="$pmux"/><s:alias val="$mux"/><s:alias val="$_MUX_"/><path d="M0,0 L20,10 L20,30 L0,40 Z" class="cell_\34"/><text x="5" y="32" class="nodelabel cell_\34" s:attribute="">1</text><text x="5" y="13" class="nodelabel cell_\34" s:attribute="">0</text><g s:x="0" s:y="10" s:pid="A"/><g s:x="0" s:y="30" s:pid="B"/><g s:x="10" s:y="35" s:pid="S"/><g s:x="20" s:y="20" s:pid="Y"/></g><g s:type="dff" transform="translate(753,508)" s:width="30" s:height="40" id="cell_\35"><s:alias val="$dff"/><s:alias val="$_DFF_"/><s:alias val="$_DFF_P_"/><s:alias val="$adff"/><s:alias val="$_DFF_"/><s:alias val="$_DFF_P_"/><s:alias val="$sdff"/><s:alias val="$_DFF_"/><s:alias val="$_DFF_P_"/><rect width="30" height="40" x="0" y="0" class="cell_\35"/><path d="M0,35 L5,30 L0,25" class="cell_\35"/><g s:x="31" s:y="10" s:pid="Q"/><g s:x="-1" s:y="30" s:pid="CLK"/><g s:x="-1" s:y="30" s:pid="C"/><g s:x="-1" s:y="10" s:pid="D"/><g s:x="15" s:y="40" s:pid="ARST"/><g s:x="15" s:y="40" s:pid="SRST"/></g><g s:type="ne" transform="translate(499,373)" s:width="25" s:height="25" id="cell_\8"><s:alias val="$ne"/><s:alias val="$nex"/><circle r="12.5" cx="12.5" cy="12.5" class="cell_\8"/><line x1="7.5" x2="17.5" y1="10" y2="10" class="cell_\8"/><line x1="7.5" x2="17.5" y1="15" y2="15" class="cell_\8"/><line x1="9" x2="16" y1="18" y2="7" class="cell_\8"/><g s:x="2" s:y="5" s:pid="A"/><g s:x="2" s:y="20" s:pid="B"/><g s:x="25" s:y="12.5" s:pid="Y"/></g><g s:type="generic" transform="translate(268,163.5)" s:width="30" s:height="40" id="cell_inst_synchronizer"><text x="15" y="-4" class="nodelabel cell_inst_synchronizer" s:attribute="ref">flip_flop_synchronizer_2</text><rect width="30" height="40" s:generic="body" class="cell_inst_synchronizer"/><g transform="translate(0,10)" s:x="0" s:y="10" s:pid="in0" id="port_inst_synchronizer~i_async"><text x="-3" y="-4" class="inputPortLabel cell_inst_synchronizer">i_async</text></g><g transform="translate(0,30)" s:x="0" s:y="10" s:pid="in0" id="port_inst_synchronizer~i_clk"><text x="-3" y="-4" class="inputPortLabel cell_inst_synchronizer">i_clk</text></g><g transform="translate(30,10)" s:x="30" s:y="10" s:pid="out0" id="port_inst_synchronizer~o_sync"><text x="5" y="-4" style="fill:#000; stroke:none" class="cell_inst_synchronizer">o_sync</text></g></g><g s:type="inputExt" transform="translate(148,164)" s:width="30" s:height="20" id="cell_i_input"><text x="15" y="-4" class="nodelabel cell_i_input" s:attribute="ref">i_input</text><s:alias val="$_inputExt_"/><path d="M0,0 L0,20 L15,20 L30,10 L15,0 Z" class="cell_i_input"/><g s:x="30" s:y="10" s:pid="Y"/></g><g s:type="inputExt" transform="translate(12,206.5)" s:width="30" s:height="20" id="cell_i_clk"><text x="15" y="-4" class="nodelabel cell_i_clk" s:attribute="ref">i_clk</text><s:alias val="$_inputExt_"/><path d="M0,0 L0,20 L15,20 L30,10 L15,0 Z" class="cell_i_clk"/><g s:x="30" s:y="10" s:pid="Y"/></g><g s:type="inputExt" transform="translate(410,328)" s:width="30" s:height="20" id="cell_i_clk_ena"><text x="15" y="-4" class="nodelabel cell_i_clk_ena" s:attribute="ref">i_clk_ena</text><s:alias val="$_inputExt_"/><path d="M0,0 L0,20 L15,20 L30,10 L15,0 Z" class="cell_i_clk_ena"/><g s:x="30" s:y="10" s:pid="Y"/></g><g s:type="outputExt" transform="translate(819,508)" s:width="30" s:height="20" id="cell_o_output"><text x="15" y="-4" class="nodelabel cell_o_output" s:attribute="ref">o_output</text><s:alias val="$_outputExt_"/><path d="M30,0 L30,20 L15,20 L0,10 L15,0 Z" class="cell_o_output"/><g s:x="0" s:y="10" s:pid="A"/></g><g s:type="constant" transform="translate(82,241.5)" s:width="30" s:height="20" id="cell_1010"><text x="15" y="-4" class="nodelabel cell_1010" s:attribute="ref">0xa</text><s:alias val="$_constant_"/><rect width="30" height="20" class="cell_1010"/><g s:x="31" s:y="10" s:pid="Y"/></g><g s:type="constant" transform="translate(148,99)" s:width="30" s:height="20" id="cell_0001"><text x="15" y="-4" class="nodelabel cell_0001" s:attribute="ref">0x1</text><s:alias val="$_constant_"/><rect width="30" height="20" class="cell_0001"/><g s:x="31" s:y="10" s:pid="Y"/></g><g s:type="constant" transform="translate(410,214)" s:width="30" s:height="20" id="cell_0000"><text x="15" y="-4" class="nodelabel cell_0000" s:attribute="ref">0x0</text><s:alias val="$_constant_"/><rect width="30" height="20" class="cell_0000"/><g s:x="31" s:y="10" s:pid="Y"/></g><g s:type="constant" transform="translate(268,423)" s:width="30" s:height="20" id="cell_0"><text x="15" y="-4" class="nodelabel cell_0" s:attribute="ref">0</text><s:alias val="$_constant_"/><rect width="30" height="20" class="cell_0"/><g s:x="31" s:y="10" s:pid="Y"/></g><g s:type="constant" transform="translate(268,488)" s:width="30" s:height="20" id="cell_1"><text x="15" y="-4" class="nodelabel cell_1" s:attribute="ref">1</text><s:alias val="$_constant_"/><rect width="30" height="20" class="cell_1"/><g s:x="31" s:y="10" s:pid="Y"/></g><line x1="113" x2="123" y1="48" y2="48" class="net_6,7,8,9 width_4" style="stroke-width: 2"/><line x1="123" x2="123" y1="48" y2="231.5" class="net_6,7,8,9 width_4" style="stroke-width: 2"/><line x1="123" x2="200" y1="231.5" y2="231.5" class="net_6,7,8,9 width_4" style="stroke-width: 2"/><line x1="200" x2="200" y1="231.5" y2="236.5" class="net_6,7,8,9 width_4" style="stroke-width: 2"/><circle cx="123" cy="48" r="3" style="fill:#000" class="net_6,7,8,9 width_4"/><line x1="200" x2="281.3333333333333" y1="236.5" y2="236.5" class="net_6,7,8,9 width_4" style="stroke-width: 2"/><line x1="113" x2="380" y1="48" y2="48" class="net_6,7,8,9 width_4" style="stroke-width: 2"/><line x1="380" x2="380" y1="48" y2="94" class="net_6,7,8,9 width_4" style="stroke-width: 2"/><line x1="380" x2="422" y1="94" y2="94" class="net_6,7,8,9 width_4" style="stroke-width: 2"/><line x1="113" x2="123" y1="48" y2="48" class="net_6,7,8,9 width_4" style="stroke-width: 2"/><line x1="123" x2="123" y1="48" y2="33" class="net_6,7,8,9 width_4" style="stroke-width: 2"/><line x1="123" x2="666.5" y1="33" y2="33" class="net_6,7,8,9 width_4" style="stroke-width: 2"/><line x1="666.5" x2="666.5" y1="33" y2="173" class="net_6,7,8,9 width_4" style="stroke-width: 2"/><line x1="666.5" x2="691.5" y1="173" y2="173" class="net_6,7,8,9 width_4" style="stroke-width: 2"/><line x1="113" x2="281.3333333333333" y1="251.5" y2="251.5" class="net_35,36,37,38 width_4" style="stroke-width: 2"/><line x1="179" x2="422" y1="109" y2="109" class="net_39,40,41,42 width_4" style="stroke-width: 2"/><line x1="446" x2="534" y1="101.5" y2="101.5" class="net_11,12,13,14 width_4" style="stroke-width: 2"/><line x1="534" x2="534" y1="101.5" y2="183" class="net_11,12,13,14 width_4" style="stroke-width: 2"/><line x1="534" x2="564" y1="183" y2="183" class="net_11,12,13,14 width_4" style="stroke-width: 2"/><line x1="441" x2="474" y1="224" y2="224" class="net_43,44,45,46 width_4" style="stroke-width: 2"/><line x1="474" x2="474" y1="224" y2="203" class="net_43,44,45,46 width_4" style="stroke-width: 2"/><circle cx="474" cy="224" r="3" style="fill:#000" class="net_43,44,45,46 width_4"/><line x1="474" x2="564" y1="203" y2="203" class="net_43,44,45,46 width_4" style="stroke-width: 2"/><line x1="441" x2="819" y1="224" y2="224" class="net_43,44,45,46 width_4" style="stroke-width: 2"/><line x1="304.3333333333333" x2="577" y1="244" y2="244" class="net_10 width_1" style="stroke-width: 1"/><line x1="577" x2="577" y1="244" y2="211" class="net_10 width_1" style="stroke-width: 1"/><line x1="304.3333333333333" x2="380" y1="244" y2="244" class="net_10 width_1" style="stroke-width: 1"/><line x1="380" x2="380" y1="244" y2="518" class="net_10 width_1" style="stroke-width: 1"/><line x1="380" x2="431.6666666666667" y1="518" y2="518" class="net_10 width_1" style="stroke-width: 1"/><circle cx="380" cy="244" r="2" style="fill:#000" class="net_10 width_1"/><line x1="431.6666666666667" x2="431.6666666666667" y1="518" y2="503" class="net_10 width_1" style="stroke-width: 1"/><line x1="299" x2="390" y1="433" y2="433" class="net_47 width_1" style="stroke-width: 1"/><line x1="390" x2="390" y1="433" y2="478" class="net_47 width_1" style="stroke-width: 1"/><circle cx="390" cy="433" r="2" style="fill:#000" class="net_47 width_1"/><line x1="390" x2="421.6666666666667" y1="478" y2="478" class="net_47 width_1" style="stroke-width: 1"/><line x1="299" x2="484" y1="433" y2="433" class="net_47 width_1" style="stroke-width: 1"/><line x1="484" x2="484" y1="433" y2="468" class="net_47 width_1" style="stroke-width: 1"/><line x1="484" x2="500.6666666666667" y1="468" y2="468" class="net_47 width_1" style="stroke-width: 1"/><line x1="299" x2="421.6666666666667" y1="498" y2="498" class="net_48 width_1" style="stroke-width: 1"/><line x1="589.5" x2="691.5" y1="193" y2="193" class="net_15,16,17,18 width_4" style="stroke-width: 2"/><line x1="440" x2="474" y1="338" y2="338" class="net_4 width_1" style="stroke-width: 1"/><line x1="474" x2="474" y1="338" y2="255" class="net_4 width_1" style="stroke-width: 1"/><line x1="474" x2="704.5" y1="255" y2="255" class="net_4 width_1" style="stroke-width: 1"/><circle cx="474" cy="338" r="2" style="fill:#000" class="net_4 width_1"/><line x1="704.5" x2="704.5" y1="255" y2="201" class="net_4 width_1" style="stroke-width: 1"/><line x1="440" x2="474" y1="338" y2="338" class="net_4 width_1" style="stroke-width: 1"/><line x1="474" x2="474" y1="338" y2="528" class="net_4 width_1" style="stroke-width: 1"/><line x1="474" x2="510.6666666666667" y1="528" y2="528" class="net_4 width_1" style="stroke-width: 1"/><line x1="510.6666666666667" x2="510.6666666666667" y1="528" y2="493" class="net_4 width_1" style="stroke-width: 1"/><line x1="441.6666666666667" x2="500.6666666666667" y1="488" y2="488" class="net_19 width_1" style="stroke-width: 1"/><line x1="717" x2="794" y1="183" y2="183" class="net_20,21,22,23 width_4" style="stroke-width: 2"/><line x1="794" x2="794" y1="183" y2="204" class="net_20,21,22,23 width_4" style="stroke-width: 2"/><line x1="794" x2="819" y1="204" y2="204" class="net_20,21,22,23 width_4" style="stroke-width: 2"/><line x1="524" x2="554" y1="385.5" y2="385.5" class="net_25 width_1" style="stroke-width: 1"/><line x1="554" x2="554" y1="385.5" y2="266" class="net_25 width_1" style="stroke-width: 1"/><line x1="554" x2="832" y1="266" y2="266" class="net_25 width_1" style="stroke-width: 1"/><circle cx="554" cy="385.5" r="2" style="fill:#000" class="net_25 width_1"/><line x1="832" x2="832" y1="266" y2="232" class="net_25 width_1" style="stroke-width: 1"/><line x1="524" x2="554" y1="385.5" y2="385.5" class="net_25 width_1" style="stroke-width: 1"/><line x1="554" x2="554" y1="385.5" y2="518" class="net_25 width_1" style="stroke-width: 1"/><line x1="554" x2="577.5" y1="518" y2="518" class="net_25 width_1" style="stroke-width: 1"/><line x1="577.5" x2="577.5" y1="518" y2="503" class="net_25 width_1" style="stroke-width: 1"/><line x1="520.6666666666667" x2="567.5" y1="478" y2="478" class="net_24 width_1" style="stroke-width: 1"/><line x1="656.5" x2="666.5" y1="488" y2="488" class="net_30 width_1" style="stroke-width: 1"/><line x1="666.5" x2="666.5" y1="488" y2="528" class="net_30 width_1" style="stroke-width: 1"/><line x1="666.5" x2="544" y1="528" y2="528" class="net_30 width_1" style="stroke-width: 1"/><line x1="544" x2="544" y1="528" y2="498" class="net_30 width_1" style="stroke-width: 1"/><circle cx="666.5" cy="488" r="2" style="fill:#000" class="net_30 width_1"/><line x1="544" x2="567.5" y1="498" y2="498" class="net_30 width_1" style="stroke-width: 1"/><line x1="656.5" x2="705" y1="488" y2="488" class="net_30 width_1" style="stroke-width: 1"/><line x1="705" x2="705" y1="488" y2="312" class="net_30 width_1" style="stroke-width: 1"/><line x1="42" x2="52" y1="216.5" y2="216.5" class="net_3 width_1" style="stroke-width: 1"/><line x1="52" x2="52" y1="216.5" y2="68" class="net_3 width_1" style="stroke-width: 1"/><circle cx="52" cy="216.5" r="2" style="fill:#000" class="net_3 width_1"/><line x1="52" x2="77" y1="68" y2="68" class="net_3 width_1" style="stroke-width: 1"/><line x1="42" x2="390" y1="216.5" y2="216.5" class="net_3 width_1" style="stroke-width: 1"/><line x1="390" x2="390" y1="216.5" y2="413" class="net_3 width_1" style="stroke-width: 1"/><line x1="390" x2="417.3333333333333" y1="413" y2="413" class="net_3 width_1" style="stroke-width: 1"/><line x1="42" x2="52" y1="216.5" y2="216.5" class="net_3 width_1" style="stroke-width: 1"/><line x1="52" x2="52" y1="216.5" y2="538" class="net_3 width_1" style="stroke-width: 1"/><line x1="52" x2="534" y1="538" y2="538" class="net_3 width_1" style="stroke-width: 1"/><line x1="534" x2="534" y1="538" y2="457" class="net_3 width_1" style="stroke-width: 1"/><line x1="534" x2="599.5" y1="457" y2="457" class="net_3 width_1" style="stroke-width: 1"/><line x1="599.5" x2="599.5" y1="457" y2="508" class="net_3 width_1" style="stroke-width: 1"/><circle cx="534" cy="538" r="2" style="fill:#000" class="net_3 width_1"/><line x1="599.5" x2="624.5" y1="508" y2="508" class="net_3 width_1" style="stroke-width: 1"/><line x1="42" x2="52" y1="216.5" y2="216.5" class="net_3 width_1" style="stroke-width: 1"/><line x1="52" x2="52" y1="216.5" y2="538" class="net_3 width_1" style="stroke-width: 1"/><line x1="52" x2="752" y1="538" y2="538" class="net_3 width_1" style="stroke-width: 1"/><line x1="42" x2="200" y1="216.5" y2="216.5" class="net_3 width_1" style="stroke-width: 1"/><line x1="200" x2="200" y1="216.5" y2="194" class="net_3 width_1" style="stroke-width: 1"/><circle cx="200" cy="216.5" r="2" style="fill:#000" class="net_3 width_1"/><line x1="200" x2="268" y1="194" y2="194" class="net_3 width_1" style="stroke-width: 1"/><line x1="844.5" x2="877" y1="214" y2="214" class="net_26,27,28,29 width_4" style="stroke-width: 2"/><line x1="877" x2="877" y1="214" y2="16" class="net_26,27,28,29 width_4" style="stroke-width: 2"/><line x1="877" x2="52" y1="16" y2="16" class="net_26,27,28,29 width_4" style="stroke-width: 2"/><line x1="52" x2="52" y1="16" y2="48" class="net_26,27,28,29 width_4" style="stroke-width: 2"/><line x1="52" x2="77" y1="48" y2="48" class="net_26,27,28,29 width_4" style="stroke-width: 2"/><line x1="299" x2="400" y1="174" y2="174" class="net_32 width_1" style="stroke-width: 1"/><line x1="400" x2="400" y1="174" y2="393" class="net_32 width_1" style="stroke-width: 1"/><line x1="400" x2="417.3333333333333" y1="393" y2="393" class="net_32 width_1" style="stroke-width: 1"/><line x1="299" x2="400" y1="174" y2="174" class="net_32 width_1" style="stroke-width: 1"/><line x1="400" x2="400" y1="174" y2="307" class="net_32 width_1" style="stroke-width: 1"/><circle cx="400" cy="307" r="2" style="fill:#000" class="net_32 width_1"/><line x1="400" x2="695" y1="307" y2="307" class="net_32 width_1" style="stroke-width: 1"/><line x1="299" x2="400" y1="174" y2="174" class="net_32 width_1" style="stroke-width: 1"/><line x1="400" x2="400" y1="174" y2="307" class="net_32 width_1" style="stroke-width: 1"/><line x1="400" x2="484" y1="307" y2="307" class="net_32 width_1" style="stroke-width: 1"/><line x1="484" x2="484" y1="307" y2="378" class="net_32 width_1" style="stroke-width: 1"/><circle cx="484" cy="307" r="2" style="fill:#000" class="net_32 width_1"/><line x1="484" x2="501" y1="378" y2="378" class="net_32 width_1" style="stroke-width: 1"/><line x1="587.5" x2="624.5" y1="488" y2="488" class="net_31 width_1" style="stroke-width: 1"/><line x1="784" x2="794" y1="518" y2="518" class="net_5 width_1" style="stroke-width: 1"/><line x1="794" x2="794" y1="518" y2="498" class="net_5 width_1" style="stroke-width: 1"/><line x1="794" x2="676.5" y1="498" y2="498" class="net_5 width_1" style="stroke-width: 1"/><line x1="676.5" x2="676.5" y1="498" y2="287" class="net_5 width_1" style="stroke-width: 1"/><circle cx="794" cy="518" r="2" style="fill:#000" class="net_5 width_1"/><line x1="676.5" x2="695" y1="287" y2="287" class="net_5 width_1" style="stroke-width: 1"/><line x1="784" x2="819" y1="518" y2="518" class="net_5 width_1" style="stroke-width: 1"/><line x1="715" x2="727" y1="297" y2="297" class="net_34 width_1" style="stroke-width: 1"/><line x1="727" x2="727" y1="297" y2="518" class="net_34 width_1" style="stroke-width: 1"/><line x1="727" x2="752" y1="518" y2="518" class="net_34 width_1" style="stroke-width: 1"/><line x1="449.3333333333333" x2="501" y1="393" y2="393" class="net_33 width_1" style="stroke-width: 1"/><line x1="178" x2="268" y1="174" y2="174" class="net_2 width_1" style="stroke-width: 1"/><rect x="436" y="28" width="16" height="9" class="net_6,7,8,9 width_4 busLabel_4" style="fill: white; stroke: none"/><text x="435" y="36" class="net_6,7,8,9 width_4 busLabel_4">/4/</text><rect x="436" y="28" width="16" height="9" class="net_6,7,8,9 width_4 busLabel_4" style="fill: white; stroke: none"/><text x="435" y="36" class="net_6,7,8,9 width_4 busLabel_4">/4/</text><rect x="436" y="28" width="16" height="9" class="net_6,7,8,9 width_4 busLabel_4" style="fill: white; stroke: none"/><text x="435" y="36" class="net_6,7,8,9 width_4 busLabel_4">/4/</text><rect x="168" y="246.5" width="16" height="9" class="net_35,36,37,38 width_4 busLabel_4" style="fill: white; stroke: none"/><text x="167" y="254.5" class="net_35,36,37,38 width_4 busLabel_4">/4/</text><rect x="296.5" y="104" width="16" height="9" class="net_39,40,41,42 width_4 busLabel_4" style="fill: white; stroke: none"/><text x="295.5" y="112" class="net_39,40,41,42 width_4 busLabel_4">/4/</text><rect x="510.5" y="96.5" width="16" height="9" class="net_11,12,13,14 width_4 busLabel_4" style="fill: white; stroke: none"/><text x="509.5" y="104.5" class="net_11,12,13,14 width_4 busLabel_4">/4/</text><rect x="639.5" y="219" width="16" height="9" class="net_43,44,45,46 width_4 busLabel_4" style="fill: white; stroke: none"/><text x="638.5" y="227" class="net_43,44,45,46 width_4 busLabel_4">/4/</text><rect x="639.5" y="219" width="16" height="9" class="net_43,44,45,46 width_4 busLabel_4" style="fill: white; stroke: none"/><text x="638.5" y="227" class="net_43,44,45,46 width_4 busLabel_4">/4/</text><rect x="639.5" y="188" width="16" height="9" class="net_15,16,17,18 width_4 busLabel_4" style="fill: white; stroke: none"/><text x="638.5" y="196" class="net_15,16,17,18 width_4 busLabel_4">/4/</text><rect x="767" y="178" width="16" height="9" class="net_20,21,22,23 width_4 busLabel_4" style="fill: white; stroke: none"/><text x="766" y="186" class="net_20,21,22,23 width_4 busLabel_4">/4/</text><rect x="510.5" y="11" width="16" height="9" class="net_26,27,28,29 width_4 busLabel_4" style="fill: white; stroke: none"/><text x="509.5" y="19" class="net_26,27,28,29 width_4 busLabel_4">/4/</text></svg>