<svg xmlns="http://www.w3.org/2000/svg" xmlns:xlink="http://www.w3.org/1999/xlink" xmlns:s="https://github.com/nturley/netlistsvg" width="453" height="235"><rect width="100%" height="100%" fill="white"/><style>svg {
  stroke:#000;
  fill:none;
}
text {
  fill:#000;
  stroke:none;
  font-size:10px;
  font-weight: bold;
  font-family: "Courier New", monospace;
}
line {
    stroke-linecap: round;
}
.nodelabel {
  text-anchor: middle;
}
.inputPortLabel {
  text-anchor: end;
}
.splitjoinBody {
  fill:#000;
}</style><g s:type="and" transform="translate(223,67)" s:width="30" s:height="25" id="cell_\10"><s:alias val="$and"/><s:alias val="$logic_and"/><s:alias val="$_AND_"/><s:alias val="$reduce_and"/><path d="M0,0 L0,25 L15,25 A15 12.5 0 0 0 15,0 Z" class="cell_\10"/><g s:x="0" s:y="5" s:pid="A"/><g s:x="0" s:y="20" s:pid="B"/><g s:x="30" s:y="12.5" s:pid="Y"/></g><g s:type="not" transform="translate(157,138)" s:width="30" s:height="20" id="cell_\11"><s:alias val="$_NOT_"/><s:alias val="$not"/><s:alias val="$logic_not"/><path d="M0,0 L0,20 L20,10 Z" class="cell_\11"/><circle cx="24" cy="10" r="3" class="cell_\11"/><g s:x="-1" s:y="10" s:pid="A"/><g s:x="27" s:y="10" s:pid="Y"/></g><g s:type="and" transform="translate(223,178)" s:width="30" s:height="25" id="cell_\12"><s:alias val="$and"/><s:alias val="$logic_and"/><s:alias val="$_AND_"/><s:alias val="$reduce_and"/><path d="M0,0 L0,25 L15,25 A15 12.5 0 0 0 15,0 Z" class="cell_\12"/><g s:x="0" s:y="5" s:pid="A"/><g s:x="0" s:y="20" s:pid="B"/><g s:x="30" s:y="12.5" s:pid="Y"/></g><g s:type="reduce_xor" transform="translate(222,17)" s:width="33" s:height="25" id="cell_\13"><s:alias val="$xor"/><s:alias val="$reduce_xor"/><s:alias val="$_XOR_"/><path d="M3,0 A30 25 0 0 1 3,25 A30 25 0 0 0 33,12.5 A30 25 0 0 0 3,0" class="cell_\13"/><path d="M0,0 A30 25 0 0 1 0,25" class="cell_\13"/><g s:x="2" s:y="5" s:pid="A"/><g s:x="2" s:y="20" s:pid="B"/><g s:x="33" s:y="12.5" s:pid="Y"/></g><g s:type="dff" transform="translate(90,77)" s:width="30" s:height="40" id="cell_\19"><s:alias val="$dff"/><s:alias val="$_DFF_"/><s:alias val="$_DFF_P_"/><s:alias val="$adff"/><s:alias val="$_DFF_"/><s:alias val="$_DFF_P_"/><s:alias val="$sdff"/><s:alias val="$_DFF_"/><s:alias val="$_DFF_P_"/><rect width="30" height="40" x="0" y="0" class="cell_\19"/><path d="M0,35 L5,30 L0,25" class="cell_\19"/><g s:x="31" s:y="10" s:pid="Q"/><g s:x="-1" s:y="30" s:pid="CLK"/><g s:x="-1" s:y="30" s:pid="C"/><g s:x="-1" s:y="10" s:pid="D"/><g s:x="15" s:y="40" s:pid="ARST"/><g s:x="15" s:y="40" s:pid="SRST"/></g><g s:type="dff" transform="translate(291,97)" s:width="30" s:height="40" id="cell_\20"><s:alias val="$dff"/><s:alias val="$_DFF_"/><s:alias val="$_DFF_P_"/><s:alias val="$adff"/><s:alias val="$_DFF_"/><s:alias val="$_DFF_P_"/><s:alias val="$sdff"/><s:alias val="$_DFF_"/><s:alias val="$_DFF_P_"/><rect width="30" height="40" x="0" y="0" class="cell_\20"/><path d="M0,35 L5,30 L0,25" class="cell_\20"/><g s:x="31" s:y="10" s:pid="Q"/><g s:x="-1" s:y="30" s:pid="CLK"/><g s:x="-1" s:y="30" s:pid="C"/><g s:x="-1" s:y="10" s:pid="D"/><g s:x="15" s:y="40" s:pid="ARST"/><g s:x="15" s:y="40" s:pid="SRST"/></g><g s:type="dff" transform="translate(291,183)" s:width="30" s:height="40" id="cell_\21"><s:alias val="$dff"/><s:alias val="$_DFF_"/><s:alias val="$_DFF_P_"/><s:alias val="$adff"/><s:alias val="$_DFF_"/><s:alias val="$_DFF_P_"/><s:alias val="$sdff"/><s:alias val="$_DFF_"/><s:alias val="$_DFF_P_"/><rect width="30" height="40" x="0" y="0" class="cell_\21"/><path d="M0,35 L5,30 L0,25" class="cell_\21"/><g s:x="31" s:y="10" s:pid="Q"/><g s:x="-1" s:y="30" s:pid="CLK"/><g s:x="-1" s:y="30" s:pid="C"/><g s:x="-1" s:y="10" s:pid="D"/><g s:x="15" s:y="40" s:pid="ARST"/><g s:x="15" s:y="40" s:pid="SRST"/></g><g s:type="dff" transform="translate(291,22)" s:width="30" s:height="40" id="cell_\22"><s:alias val="$dff"/><s:alias val="$_DFF_"/><s:alias val="$_DFF_P_"/><s:alias val="$adff"/><s:alias val="$_DFF_"/><s:alias val="$_DFF_P_"/><s:alias val="$sdff"/><s:alias val="$_DFF_"/><s:alias val="$_DFF_P_"/><rect width="30" height="40" x="0" y="0" class="cell_\22"/><path d="M0,35 L5,30 L0,25" class="cell_\22"/><g s:x="31" s:y="10" s:pid="Q"/><g s:x="-1" s:y="30" s:pid="CLK"/><g s:x="-1" s:y="30" s:pid="C"/><g s:x="-1" s:y="10" s:pid="D"/><g s:x="15" s:y="40" s:pid="ARST"/><g s:x="15" s:y="40" s:pid="SRST"/></g><g s:type="not" transform="translate(157,77)" s:width="30" s:height="20" id="cell_\9"><s:alias val="$_NOT_"/><s:alias val="$not"/><s:alias val="$logic_not"/><path d="M0,0 L0,20 L20,10 Z" class="cell_\9"/><circle cx="24" cy="10" r="3" class="cell_\9"/><g s:x="-1" s:y="10" s:pid="A"/><g s:x="27" s:y="10" s:pid="Y"/></g><g s:type="inputExt" transform="translate(12,203)" s:width="30" s:height="20" id="cell_i_clk"><text x="15" y="-4" class="nodelabel cell_i_clk" s:attribute="ref">i_clk</text><s:alias val="$_inputExt_"/><path d="M0,0 L0,20 L15,20 L30,10 L15,0 Z" class="cell_i_clk"/><g s:x="30" s:y="10" s:pid="Y"/></g><g s:type="inputExt" transform="translate(12,138)" s:width="30" s:height="20" id="cell_i_input"><text x="15" y="-4" class="nodelabel cell_i_input" s:attribute="ref">i_input</text><s:alias val="$_inputExt_"/><path d="M0,0 L0,20 L15,20 L30,10 L15,0 Z" class="cell_i_input"/><g s:x="30" s:y="10" s:pid="Y"/></g><g s:type="outputExt" transform="translate(357,97)" s:width="30" s:height="20" id="cell_o_rising_edge"><text x="15" y="-4" class="nodelabel cell_o_rising_edge" s:attribute="ref">o_rising_edge</text><s:alias val="$_outputExt_"/><path d="M30,0 L30,20 L15,20 L0,10 L15,0 Z" class="cell_o_rising_edge"/><g s:x="0" s:y="10" s:pid="A"/></g><g s:type="outputExt" transform="translate(357,183)" s:width="30" s:height="20" id="cell_o_falling_edge"><text x="15" y="-4" class="nodelabel cell_o_falling_edge" s:attribute="ref">o_falling_edge</text><s:alias val="$_outputExt_"/><path d="M30,0 L30,20 L15,20 L0,10 L15,0 Z" class="cell_o_falling_edge"/><g s:x="0" s:y="10" s:pid="A"/></g><g s:type="outputExt" transform="translate(357,22)" s:width="30" s:height="20" id="cell_o_any_edge"><text x="15" y="-4" class="nodelabel cell_o_any_edge" s:attribute="ref">o_any_edge</text><s:alias val="$_outputExt_"/><path d="M30,0 L30,20 L15,20 L0,10 L15,0 Z" class="cell_o_any_edge"/><g s:x="0" s:y="10" s:pid="A"/></g><line x1="42" x2="64" y1="148" y2="148" class="net_3 width_1" style="stroke-width: 1"/><line x1="64" x2="64" y1="148" y2="66" class="net_3 width_1" style="stroke-width: 1"/><line x1="64" x2="197" y1="66" y2="66" class="net_3 width_1" style="stroke-width: 1"/><line x1="197" x2="197" y1="66" y2="72" class="net_3 width_1" style="stroke-width: 1"/><circle cx="64" cy="148" r="2" style="fill:#000" class="net_3 width_1"/><circle cx="64" cy="66" r="2" style="fill:#000" class="net_3 width_1"/><line x1="197" x2="223" y1="72" y2="72" class="net_3 width_1" style="stroke-width: 1"/><line x1="42" x2="156" y1="148" y2="148" class="net_3 width_1" style="stroke-width: 1"/><line x1="42" x2="64" y1="148" y2="148" class="net_3 width_1" style="stroke-width: 1"/><line x1="64" x2="64" y1="148" y2="26" class="net_3 width_1" style="stroke-width: 1"/><line x1="64" x2="197" y1="26" y2="26" class="net_3 width_1" style="stroke-width: 1"/><line x1="197" x2="197" y1="26" y2="22" class="net_3 width_1" style="stroke-width: 1"/><line x1="197" x2="224" y1="22" y2="22" class="net_3 width_1" style="stroke-width: 1"/><line x1="42" x2="64" y1="148" y2="148" class="net_3 width_1" style="stroke-width: 1"/><line x1="64" x2="64" y1="148" y2="87" class="net_3 width_1" style="stroke-width: 1"/><circle cx="64" cy="87" r="2" style="fill:#000" class="net_3 width_1"/><line x1="64" x2="89" y1="87" y2="87" class="net_3 width_1" style="stroke-width: 1"/><line x1="184" x2="223" y1="87" y2="87" class="net_7 width_1" style="stroke-width: 1"/><line x1="184" x2="197" y1="148" y2="148" class="net_9 width_1" style="stroke-width: 1"/><line x1="197" x2="197" y1="148" y2="183" class="net_9 width_1" style="stroke-width: 1"/><line x1="197" x2="223" y1="183" y2="183" class="net_9 width_1" style="stroke-width: 1"/><line x1="121" x2="131" y1="87" y2="87" class="net_10 width_1" style="stroke-width: 1"/><line x1="131" x2="131" y1="87" y2="198" class="net_10 width_1" style="stroke-width: 1"/><circle cx="131" cy="87" r="2" style="fill:#000" class="net_10 width_1"/><line x1="131" x2="223" y1="198" y2="198" class="net_10 width_1" style="stroke-width: 1"/><line x1="121" x2="131" y1="87" y2="87" class="net_10 width_1" style="stroke-width: 1"/><line x1="131" x2="131" y1="87" y2="37" class="net_10 width_1" style="stroke-width: 1"/><line x1="131" x2="224" y1="37" y2="37" class="net_10 width_1" style="stroke-width: 1"/><line x1="121" x2="156" y1="87" y2="87" class="net_10 width_1" style="stroke-width: 1"/><line x1="42" x2="74" y1="213" y2="213" class="net_2 width_1" style="stroke-width: 1"/><line x1="74" x2="74" y1="213" y2="107" class="net_2 width_1" style="stroke-width: 1"/><circle cx="74" cy="213" r="2" style="fill:#000" class="net_2 width_1"/><circle cx="74" cy="107" r="2" style="fill:#000" class="net_2 width_1"/><line x1="74" x2="89" y1="107" y2="107" class="net_2 width_1" style="stroke-width: 1"/><line x1="42" x2="74" y1="213" y2="213" class="net_2 width_1" style="stroke-width: 1"/><line x1="74" x2="74" y1="213" y2="127" class="net_2 width_1" style="stroke-width: 1"/><circle cx="74" cy="127" r="2" style="fill:#000" class="net_2 width_1"/><line x1="74" x2="290" y1="127" y2="127" class="net_2 width_1" style="stroke-width: 1"/><line x1="42" x2="290" y1="213" y2="213" class="net_2 width_1" style="stroke-width: 1"/><line x1="42" x2="74" y1="213" y2="213" class="net_2 width_1" style="stroke-width: 1"/><line x1="74" x2="74" y1="213" y2="52" class="net_2 width_1" style="stroke-width: 1"/><line x1="74" x2="290" y1="52" y2="52" class="net_2 width_1" style="stroke-width: 1"/><line x1="253" x2="265" y1="79.5" y2="79.5" class="net_8 width_1" style="stroke-width: 1"/><line x1="265" x2="265" y1="79.5" y2="107" class="net_8 width_1" style="stroke-width: 1"/><line x1="265" x2="290" y1="107" y2="107" class="net_8 width_1" style="stroke-width: 1"/><line x1="253" x2="265" y1="190.5" y2="190.5" class="net_11 width_1" style="stroke-width: 1"/><line x1="265" x2="265" y1="190.5" y2="193" class="net_11 width_1" style="stroke-width: 1"/><line x1="265" x2="290" y1="193" y2="193" class="net_11 width_1" style="stroke-width: 1"/><line x1="255" x2="265" y1="29.5" y2="29.5" class="net_12 width_1" style="stroke-width: 1"/><line x1="265" x2="265" y1="29.5" y2="32" class="net_12 width_1" style="stroke-width: 1"/><line x1="265" x2="290" y1="32" y2="32" class="net_12 width_1" style="stroke-width: 1"/><line x1="322" x2="357" y1="107" y2="107" class="net_4 width_1" style="stroke-width: 1"/><line x1="322" x2="357" y1="193" y2="193" class="net_5 width_1" style="stroke-width: 1"/><line x1="322" x2="357" y1="32" y2="32" class="net_6 width_1" style="stroke-width: 1"/></svg>